<svg width="40" height="40" viewBox="0 0 40 40" fill="none" xmlns="http://www.w3.org/2000/svg">
<path d="M28.5004 12.5297C29.3141 13.7476 29.3141 15.443 29.3141 18.8337C29.3141 22.2245 29.3141 23.9199 28.5004 25.1377C28.1481 25.665 27.6954 26.1176 27.1682 26.4699C26.1043 27.1808 24.676 27.2707 22.0713 27.282V27.2837L20.7368 29.9528C20.2919 30.8425 19.0222 30.8425 18.5774 29.9528L17.2428 27.2837V27.282C14.6382 27.2707 13.2099 27.1808 12.1459 26.4699C11.6187 26.1176 11.166 25.665 10.8138 25.1377C10 23.9199 10 22.2245 10 18.8337C10 15.443 10 13.7476 10.8138 12.5297C11.166 12.0025 11.6187 11.5498 12.1459 11.1975C13.3638 10.3838 15.0592 10.3838 18.4499 10.3838H20.8642C24.255 10.3838 25.9503 10.3838 27.1682 11.1975C27.6954 11.5498 28.1481 12.0025 28.5004 12.5297Z" stroke="#9E9E9E" stroke-width="1.5" stroke-linecap="round" stroke-linejoin="round"/>
<path d="M16.0352 16.4199L23.278 16.4199" stroke="#9E9E9E" stroke-width="1.5" stroke-linecap="round" stroke-linejoin="round"/>
<path d="M16.0352 21.248H19.6566" stroke="#9E9E9E" stroke-width="1.5" stroke-linecap="round" stroke-linejoin="round"/>
</svg>
