<svg width="20" height="20" viewBox="0 0 20 20" fill="none" xmlns="http://www.w3.org/2000/svg">
<circle cx="10" cy="10" r="10" fill="#212121"/>
<path d="M6.00323 14.5539L6.00308 14.5539L6.00281 14.5557C5.99428 14.6132 5.99 14.6661 5.99 14.7143C5.99 14.7929 6.0163 14.862 6.06872 14.9209C6.12114 14.9799 6.183 15.01 6.25397 15.01H6.90159C7.00504 15.01 7.08437 14.9809 7.13763 14.9209C7.18874 14.8634 7.21965 14.8097 7.22875 14.7597L7.92459 12.7386H12.0754L12.7715 14.7604L12.7715 14.7605C12.7889 14.8093 12.8191 14.8626 12.8618 14.9202L12.8618 14.9203L12.8624 14.9209C12.9156 14.9809 12.995 15.01 13.0984 15.01H13.746C13.817 15.01 13.8789 14.9799 13.9313 14.9209C13.9837 14.862 14.01 14.7929 14.01 14.7143C14.01 14.6655 14.0013 14.6121 13.9842 14.5543L13.9842 14.5543L13.9841 14.5539L10.8476 5.31107L10.8475 5.31094C10.8132 5.21439 10.7615 5.1367 10.6924 5.07829C10.6307 5.01896 10.5433 4.99 10.4317 4.99H9.56825C9.44828 4.99 9.35645 5.01892 9.29465 5.07852C9.23405 5.13695 9.18675 5.21457 9.15248 5.31094L9.15244 5.31106L6.00323 14.5539ZM8.29965 11.49L10 6.4598L11.7003 11.49H8.29965Z" fill="white" stroke="white" stroke-width="0.02"/>
</svg>
