<svg width="40" height="40" viewBox="0 0 40 40" fill="none" xmlns="http://www.w3.org/2000/svg">
<path d="M28.5004 12.5307C29.3141 13.7486 29.3141 15.444 29.3141 18.8347C29.3141 22.2255 29.3141 23.9208 28.5004 25.1387C28.1481 25.6659 27.6954 26.1186 27.1682 26.4709C26.1043 27.1818 24.676 27.2716 22.0713 27.283V27.2846L20.7368 29.9538C20.2919 30.8435 19.0222 30.8435 18.5774 29.9538L17.2428 27.2846V27.283C14.6382 27.2716 13.2099 27.1818 12.1459 26.4709C11.6187 26.1186 11.166 25.6659 10.8138 25.1387C10 23.9208 10 22.2255 10 18.8347C10 15.444 10 13.7486 10.8138 12.5307C11.166 12.0035 11.6187 11.5508 12.1459 11.1985C13.3638 10.3848 15.0592 10.3848 18.4499 10.3848H20.8642C24.255 10.3848 25.9503 10.3848 27.1682 11.1985C27.6954 11.5508 28.1481 12.0035 28.5004 12.5307Z" fill="#3F6EFF" fill-opacity="0.2" stroke="#222222" stroke-width="1.5" stroke-linecap="round" stroke-linejoin="round"/>
<path d="M16.0352 16.4199L23.278 16.4199" stroke="#222222" stroke-width="1.5" stroke-linecap="round" stroke-linejoin="round"/>
<path d="M16.0352 21.248H19.6566" stroke="#222222" stroke-width="1.5" stroke-linecap="round" stroke-linejoin="round"/>
</svg>
