<svg width="30" height="30" viewBox="0 0 30 30" fill="none" xmlns="http://www.w3.org/2000/svg">
<path d="M21.3748 9.39755C21.9851 10.3109 21.9851 11.5825 21.9851 14.1255C21.9851 16.6686 21.9851 17.9401 21.3748 18.8535C21.1106 19.249 20.7711 19.5885 20.3757 19.8527C19.5777 20.3858 18.5065 20.4532 16.553 20.4618V20.463L15.5521 22.4649C15.2184 23.1321 14.2662 23.1321 13.9325 22.4649L12.9316 20.463V20.4618C10.9781 20.4532 9.9069 20.3858 9.10897 19.8527C8.71355 19.5885 8.37404 19.249 8.10983 18.8535C7.49951 17.9401 7.49951 16.6686 7.49951 14.1255C7.49951 11.5825 7.49951 10.3109 8.10983 9.39755C8.37404 9.00212 8.71355 8.66261 9.10897 8.3984C10.0224 7.78809 11.2939 7.78809 13.837 7.78809H15.6477C18.1907 7.78809 19.4623 7.78809 20.3757 8.3984C20.7711 8.66261 21.1106 9.00212 21.3748 9.39755Z" fill="#3F6EFF" fill-opacity="0.5" stroke="#222222" stroke-width="1.5" stroke-linecap="round" stroke-linejoin="round"/>
<path d="M12.0263 12.3149L17.4584 12.3149" stroke="#222222" stroke-width="1.5" stroke-linecap="round" stroke-linejoin="round"/>
<path d="M12.0263 15.9363H14.7423" stroke="#222222" stroke-width="1.7" stroke-linecap="round" stroke-linejoin="round"/>
</svg>
