<svg width="30" height="30" viewBox="0 0 30 30" fill="none" xmlns="http://www.w3.org/2000/svg">
<path d="M9.05823 17.0512L9.05822 17.0512C9.04566 17.0638 9.03298 17.0764 9.02023 17.0891C8.86398 17.2448 8.69597 17.4121 8.57696 17.6223L9.22662 17.9901L8.57696 17.6223C8.45794 17.8325 8.40089 18.0627 8.34782 18.2767C8.34349 18.2942 8.33919 18.3116 8.33488 18.3288L7.53966 21.5097C7.53704 21.5202 7.53437 21.5308 7.53165 21.5417C7.49382 21.6924 7.44745 21.8773 7.4318 22.0372C7.41412 22.218 7.41255 22.5745 7.70164 22.8635L8.23197 22.3332L7.70164 22.8636C7.99074 23.1526 8.34724 23.1511 8.52796 23.1334C8.6879 23.1177 8.87275 23.0714 9.02354 23.0335C9.03438 23.0308 9.04505 23.0281 9.05551 23.0255L12.2364 22.2303L12.2364 22.2303C12.2381 22.2299 12.2399 22.2294 12.2416 22.229C12.2571 22.2251 12.2728 22.2213 12.2885 22.2174C12.5025 22.1643 12.7327 22.1072 12.9429 21.9882C13.1531 21.8692 13.3204 21.7012 13.4761 21.545C13.4888 21.5322 13.5014 21.5195 13.514 21.507L21.8932 13.1277L21.9249 13.0961C22.2309 12.79 22.5116 12.5095 22.7092 12.2505C22.9267 11.9654 23.1129 11.6202 23.1129 11.1832C23.1129 10.7461 22.9267 10.4009 22.7092 10.1158C22.5116 9.85683 22.231 9.57626 21.9249 9.27025L21.8932 9.23861L21.3266 8.67197L21.295 8.64034C20.9889 8.33425 20.7084 8.05361 20.4494 7.85603C20.1643 7.63847 19.8191 7.4523 19.382 7.4523C18.945 7.4523 18.5998 7.63847 18.3147 7.85603C18.0557 8.05361 17.7751 8.33424 17.4691 8.64033C17.4586 8.65084 17.4481 8.66139 17.4375 8.67197L9.05823 17.0512Z" fill="#FF8267" fill-opacity="0.5" stroke="#212121" stroke-width="1.5"/>
<path d="M16.5528 9.4856L21.0795 14.0123" stroke="#212121" stroke-width="1.7"/>
</svg>
