<svg width="40" height="40" viewBox="0 0 40 40" fill="none" xmlns="http://www.w3.org/2000/svg">
<path d="M23.8985 11.2677L12.1242 23.042C12.1116 23.0546 12.099 23.0672 12.0862 23.0799C11.93 23.2355 11.762 23.4029 11.6429 23.6131L12.2956 23.9826L11.6429 23.6131C11.5239 23.8233 11.4669 24.0534 11.4138 24.2675C11.4095 24.285 11.4052 24.3023 11.4009 24.3196L10.2284 29.0094C10.2258 29.0198 10.2231 29.0305 10.2204 29.0413C10.1826 29.1921 10.1362 29.377 10.1206 29.5369C10.1029 29.7176 10.1013 30.0741 10.3904 30.3632C10.6795 30.6523 11.036 30.6508 11.2167 30.6331C11.3766 30.6174 11.5615 30.5711 11.7123 30.5332C11.7231 30.5305 11.7338 30.5278 11.7443 30.5252L16.4341 29.3528C16.4513 29.3485 16.4686 29.3442 16.4861 29.3398C16.7002 29.2868 16.9304 29.2297 17.1406 29.1107C17.3508 28.9917 17.5181 28.8237 17.6737 28.6674C17.6864 28.6547 17.6991 28.642 17.7116 28.6294L29.486 16.8551L29.5176 16.8234C29.8237 16.5174 30.1043 16.2369 30.3019 15.9779C30.5195 15.6928 30.7056 15.3476 30.7056 14.9105C30.7056 14.4735 30.5195 14.1283 30.3019 13.8432C30.1043 13.5842 29.8237 13.3037 29.5176 12.9977L29.486 12.966L27.7876 11.2677L27.756 11.2361C27.45 10.93 27.1694 10.6493 26.9105 10.4517C26.6253 10.2342 26.2801 10.048 25.8431 10.048C25.4061 10.048 25.0609 10.2342 24.7757 10.4517C24.5168 10.6493 24.2362 10.9299 23.9302 11.236L23.8985 11.2677Z" stroke="#9E9E9E" stroke-width="1.5"/>
<path d="M22.0723 12.6475L28.1079 18.6831" stroke="#9E9E9E" stroke-width="1.5"/>
</svg>
