<svg width="18" height="19" viewBox="0 0 18 19" fill="none" xmlns="http://www.w3.org/2000/svg">
<mask id="path-1-inside-1_903_2599" fill="white">
<path fill-rule="evenodd" clip-rule="evenodd" d="M17.8374 14.8513V9.59186C17.8377 9.56126 17.8378 9.53064 17.8378 9.49997C17.8378 4.57419 13.8447 0.581055 8.91892 0.581055C3.99314 0.581055 0 4.57419 0 9.49997C0 14.4258 3.99314 18.4189 8.91892 18.4189L14.9833 18.4189H17.8374H17.8378V14.8513H17.8374Z"/>
</mask>
<path d="M17.8374 9.59186L16.0537 9.57384L16.0536 9.58285V9.59186H17.8374ZM17.8374 14.8513H16.0536V16.6351H17.8374V14.8513ZM8.91892 18.4189L8.91892 16.6351H8.91892V18.4189ZM14.9833 18.4189L14.9833 20.2027H14.9833V18.4189ZM17.8378 18.4189V20.2027H19.6216V18.4189H17.8378ZM17.8378 14.8513H19.6216V13.0675H17.8378V14.8513ZM16.0536 9.59186V14.8513H19.6212V9.59186H16.0536ZM19.6211 9.60987C19.6214 9.57326 19.6216 9.53663 19.6216 9.49997H16.0541C16.0541 9.52465 16.0539 9.54927 16.0537 9.57384L19.6211 9.60987ZM19.6216 9.49997C19.6216 3.58903 14.8299 -1.20273 8.91892 -1.20273V2.36484C12.8595 2.36484 16.0541 5.55935 16.0541 9.49997H19.6216ZM8.91892 -1.20273C3.00798 -1.20273 -1.78378 3.58903 -1.78378 9.49997H1.78378C1.78378 5.55935 4.97829 2.36484 8.91892 2.36484V-1.20273ZM-1.78378 9.49997C-1.78378 15.4109 3.00798 20.2027 8.91892 20.2027V16.6351C4.97829 16.6351 1.78378 13.4406 1.78378 9.49997H-1.78378ZM8.91892 20.2027L14.9833 20.2027L14.9833 16.6351L8.91892 16.6351L8.91892 20.2027ZM14.9833 20.2027H17.8374V16.6351H14.9833V20.2027ZM17.8374 20.2027H17.8378V16.6351H17.8374V20.2027ZM19.6216 18.4189V14.8513H16.0541V18.4189H19.6216ZM17.8378 13.0675H17.8374V16.6351H17.8378V13.0675Z" fill="#9E9E9E" mask="url(#path-1-inside-1_903_2599)"/>
<path d="M9.27539 9.85767V10.0004" stroke="#9E9E9E" stroke-width="1.42703" stroke-linecap="round"/>
<path d="M6.42188 9.85767V10.0004" stroke="#9E9E9E" stroke-width="1.42703" stroke-linecap="round"/>
<path d="M12.1299 9.85767V10.0004" stroke="#9E9E9E" stroke-width="1.42703" stroke-linecap="round"/>
</svg>
