<svg width="31" height="30" viewBox="0 0 31 30" fill="none" xmlns="http://www.w3.org/2000/svg">
<path d="M11.8231 25.1189H18.8072" stroke="#33363F" stroke-width="1.5" stroke-linecap="round"/>
<path d="M15.3154 24.9899V20.4631" stroke="#33363F" stroke-width="1.5" stroke-linecap="round"/>
<mask id="path-3-inside-1_1477_1056" fill="white">
<path d="M7.16724 11.4827C7.16724 11.2868 7.16724 11.1889 7.17789 11.1066C7.2529 10.5276 7.70871 10.0718 8.28778 9.99674C8.37002 9.98608 8.46796 9.98608 8.66384 9.98608H21.9669C22.1628 9.98608 22.2608 9.98608 22.343 9.99674C22.9221 10.0718 23.3779 10.5276 23.4529 11.1066C23.4635 11.1889 23.4635 11.2868 23.4635 11.4827V12.3141C23.4635 12.717 23.4635 12.9184 23.456 13.0887C23.2795 17.0815 20.0827 20.2783 16.0899 20.4548C15.9197 20.4623 15.7182 20.4623 15.3154 20.4623C14.9125 20.4623 14.7111 20.4623 14.5409 20.4548C10.5481 20.2783 7.35125 17.0815 7.17476 13.0887C7.16724 12.9184 7.16724 12.717 7.16724 12.3141V11.4827Z"/>
</mask>
<path d="M7.16724 11.4827C7.16724 11.2868 7.16724 11.1889 7.17789 11.1066C7.2529 10.5276 7.70871 10.0718 8.28778 9.99674C8.37002 9.98608 8.46796 9.98608 8.66384 9.98608H21.9669C22.1628 9.98608 22.2608 9.98608 22.343 9.99674C22.9221 10.0718 23.3779 10.5276 23.4529 11.1066C23.4635 11.1889 23.4635 11.2868 23.4635 11.4827V12.3141C23.4635 12.717 23.4635 12.9184 23.456 13.0887C23.2795 17.0815 20.0827 20.2783 16.0899 20.4548C15.9197 20.4623 15.7182 20.4623 15.3154 20.4623C14.9125 20.4623 14.7111 20.4623 14.5409 20.4548C10.5481 20.2783 7.35125 17.0815 7.17476 13.0887C7.16724 12.9184 7.16724 12.717 7.16724 12.3141V11.4827Z" fill="#3F6EFF" fill-opacity="0.5" stroke="#33363F" stroke-width="3" stroke-linecap="round" mask="url(#path-3-inside-1_1477_1056)"/>
<path d="M14.5942 14.4369C14.4804 14.8352 14.7111 15.2503 15.1093 15.3641C15.5076 15.4779 15.9227 15.2473 16.0365 14.849L14.5942 14.4369ZM17.2969 7.70748L18.0181 7.91352L17.2969 7.70748ZM18.8144 6.02639L18.5359 5.33003L18.8144 6.02639ZM17.752 6.59284L18.3088 7.09538L18.3088 7.09538L17.752 6.59284ZM16.0365 14.849L18.0181 7.91352L16.5758 7.50144L14.5942 14.4369L16.0365 14.849ZM19.093 6.72275L23.7421 4.86311L23.185 3.47039L18.5359 5.33003L19.093 6.72275ZM18.0181 7.91352C18.2085 7.2472 18.2528 7.15734 18.3088 7.09538L17.1953 6.09029C16.8514 6.47123 16.7257 6.97684 16.5758 7.50144L18.0181 7.91352ZM18.5359 5.33003C18.0293 5.53266 17.5392 5.70935 17.1953 6.09029L18.3088 7.09538C18.3647 7.03343 18.4495 6.98012 19.093 6.72275L18.5359 5.33003Z" fill="#33363F"/>
</svg>
