<svg width="40" height="40" viewBox="0 0 40 40" fill="none" xmlns="http://www.w3.org/2000/svg">
<path d="M15.0957 33.4922H24.4079" stroke="#9E9E9E" stroke-width="1.5" stroke-linecap="round"/>
<path d="M19.752 33.3198V27.2842" stroke="#9E9E9E" stroke-width="1.5" stroke-linecap="round"/>
<mask id="path-3-inside-1_255_9861" fill="white">
<path d="M8.88867 15.3099C8.88867 14.648 8.88867 14.317 9.00763 14.06C9.13565 13.7835 9.35772 13.5614 9.63425 13.4334C9.89122 13.3145 10.2222 13.3145 10.8841 13.3145H28.6216C29.2836 13.3145 29.6145 13.3145 29.8715 13.4334C30.148 13.5614 30.3701 13.7835 30.4981 14.06C30.6171 14.317 30.6171 14.648 30.6171 15.3099V16.4185C30.6171 19.3502 30.6171 20.8161 30.2238 22.0002C29.4566 24.31 27.6443 26.1222 25.3346 26.8894C24.1505 27.2827 22.6846 27.2827 19.7529 27.2827C16.8211 27.2827 15.3553 27.2827 14.1712 26.8894C11.8614 26.1222 10.0492 24.31 9.28198 22.0002C8.88867 20.8161 8.88867 19.3502 8.88867 16.4185V15.3099Z"/>
</mask>
<path d="M8.88867 15.3099C8.88867 14.648 8.88867 14.317 9.00763 14.06C9.13565 13.7835 9.35772 13.5614 9.63425 13.4334C9.89122 13.3145 10.2222 13.3145 10.8841 13.3145H28.6216C29.2836 13.3145 29.6145 13.3145 29.8715 13.4334C30.148 13.5614 30.3701 13.7835 30.4981 14.06C30.6171 14.317 30.6171 14.648 30.6171 15.3099V16.4185C30.6171 19.3502 30.6171 20.8161 30.2238 22.0002C29.4566 24.31 27.6443 26.1222 25.3346 26.8894C24.1505 27.2827 22.6846 27.2827 19.7529 27.2827C16.8211 27.2827 15.3553 27.2827 14.1712 26.8894C11.8614 26.1222 10.0492 24.31 9.28198 22.0002C8.88867 20.8161 8.88867 19.3502 8.88867 16.4185V15.3099Z" stroke="#9E9E9E" stroke-width="3" stroke-linecap="round" mask="url(#path-3-inside-1_255_9861)"/>
<path d="M19.0308 19.3179C18.917 19.7162 19.1476 20.1313 19.5459 20.2451C19.9442 20.3589 20.3593 20.1282 20.4731 19.73L19.0308 19.3179ZM22.5095 9.87241L23.2307 10.0784L22.5095 9.87241ZM24.027 8.19132L24.3056 8.88768L24.3056 8.88768L24.027 8.19132ZM22.9646 8.75777L23.5214 9.26032L23.5214 9.26032L22.9646 8.75777ZM20.4731 19.73L23.2307 10.0784L21.7884 9.66637L19.0308 19.3179L20.4731 19.73ZM24.3056 8.88768L30.8947 6.25202L30.3376 4.85931L23.7485 7.49496L24.3056 8.88768ZM23.2307 10.0784C23.4211 9.41213 23.4654 9.32227 23.5214 9.26032L22.4079 8.25522C22.064 8.63616 21.9383 9.14177 21.7884 9.66637L23.2307 10.0784ZM23.7485 7.49496C23.2419 7.69759 22.7518 7.87428 22.4079 8.25522L23.5214 9.26032C23.5773 9.19836 23.6621 9.14505 24.3056 8.88768L23.7485 7.49496Z" fill="#9E9E9E"/>
</svg>
