<svg width="22" height="23" viewBox="0 0 22 23" fill="none" xmlns="http://www.w3.org/2000/svg">
<circle cx="10.7777" cy="11.311" r="10.7777" fill="white"/>
<path d="M10.2247 15.7592C9.6786 15.7592 9.16439 15.65 8.68203 15.4315C8.20877 15.2131 7.79466 14.8991 7.43972 14.4896C7.08477 14.0709 6.80263 13.5612 6.59331 12.9606C6.39308 12.3599 6.29297 11.6773 6.29297 10.9128C6.29297 10.1938 6.37943 9.53397 6.55235 8.9333C6.73438 8.33262 6.99831 7.81385 7.34415 7.377C7.6991 6.94014 8.13596 6.6034 8.65472 6.36677C9.17349 6.12103 9.77417 5.99817 10.4568 5.99817C11.0119 5.99817 11.5398 6.09828 12.0404 6.29851C12.5409 6.49873 12.9778 6.79907 13.3509 7.19952C13.7332 7.59998 14.0335 8.10054 14.2519 8.70122C14.4704 9.3019 14.5796 10.0027 14.5796 10.8036C14.5796 11.4589 14.4931 12.0778 14.3202 12.6602C14.1564 13.2427 13.9015 13.7615 13.5557 14.2165L14.3339 14.8582C14.434 14.9401 14.525 15.0447 14.6069 15.1722C14.6979 15.2905 14.7434 15.427 14.7434 15.5817C14.7434 15.7637 14.6706 15.9093 14.525 16.0186C14.3794 16.1278 14.2064 16.1824 14.0062 16.1824C13.7514 16.1824 13.4829 16.055 13.2008 15.8001L12.4909 15.1858C12.1814 15.3678 11.8401 15.5089 11.467 15.609C11.0938 15.7091 10.6797 15.7592 10.2247 15.7592ZM10.252 14.4759C10.7525 14.4759 11.1894 14.3758 11.5625 14.1756C11.9357 13.9662 12.2451 13.6932 12.4909 13.3565C12.7366 13.0197 12.9186 12.6329 13.0369 12.1961C13.1553 11.7501 13.2144 11.2951 13.2144 10.8309C13.2144 10.2666 13.1371 9.76605 12.9823 9.3292C12.8367 8.88324 12.6365 8.51009 12.3817 8.20975C12.1268 7.90942 11.831 7.68189 11.4943 7.52717C11.1575 7.36335 10.798 7.28143 10.4158 7.28143C9.96074 7.28143 9.56029 7.377 9.21445 7.56812C8.8777 7.75925 8.59101 8.01863 8.35438 8.34627C8.12686 8.67391 7.95393 9.06071 7.83562 9.50667C7.7173 9.94353 7.65814 10.4122 7.65814 10.9128C7.65814 11.4498 7.7264 11.9412 7.86292 12.3872C7.99944 12.824 8.18146 13.1972 8.40899 13.5066C8.64562 13.8161 8.92321 14.0573 9.24175 14.2302C9.56029 14.394 9.89703 14.4759 10.252 14.4759Z" fill="#3F6EFF"/>
<path d="M16.3583 14.121C16.5676 14.121 16.7587 14.2029 16.9316 14.3667C17.1137 14.5305 17.2047 14.7262 17.2047 14.9537C17.2047 15.1722 17.1137 15.3633 16.9316 15.5271C16.7496 15.6818 16.5448 15.7592 16.3173 15.7592C16.1262 15.7592 15.9442 15.6818 15.7712 15.5271C15.6074 15.3633 15.5255 15.1631 15.5255 14.9264C15.5255 14.708 15.6074 14.5214 15.7712 14.3667C15.9442 14.2029 16.1398 14.121 16.3583 14.121Z" fill="#3F6EFF"/>
</svg>
