<svg width="22" height="23" viewBox="0 0 22 23" fill="none" xmlns="http://www.w3.org/2000/svg">
<circle cx="10.7777" cy="11.3111" r="10.7777" fill="#212121"/>
<path d="M10.2247 15.7592C9.6786 15.7592 9.16439 15.65 8.68203 15.4316C8.20877 15.2132 7.79466 14.8992 7.43972 14.4896C7.08477 14.071 6.80263 13.5613 6.59331 12.9606C6.39308 12.36 6.29297 11.6774 6.29297 10.9129C6.29297 10.1939 6.37943 9.53404 6.55235 8.93336C6.73438 8.33268 6.99831 7.81391 7.34415 7.37706C7.6991 6.9402 8.13596 6.60346 8.65472 6.36683C9.17349 6.1211 9.77417 5.99823 10.4568 5.99823C11.0119 5.99823 11.5398 6.09834 12.0404 6.29857C12.5409 6.4988 12.9778 6.79913 13.3509 7.19959C13.7332 7.60004 14.0335 8.1006 14.2519 8.70128C14.4704 9.30196 14.5796 10.0027 14.5796 10.8036C14.5796 11.4589 14.4931 12.0778 14.3202 12.6603C14.1564 13.2428 13.9015 13.7615 13.5557 14.2166L14.3339 14.8582C14.434 14.9401 14.525 15.0448 14.6069 15.1722C14.6979 15.2905 14.7434 15.427 14.7434 15.5818C14.7434 15.7638 14.6706 15.9094 14.525 16.0186C14.3794 16.1278 14.2064 16.1824 14.0062 16.1824C13.7514 16.1824 13.4829 16.055 13.2008 15.8002L12.4909 15.1859C12.1814 15.3679 11.8401 15.509 11.467 15.6091C11.0938 15.7092 10.6797 15.7592 10.2247 15.7592ZM10.252 14.476C10.7525 14.476 11.1894 14.3759 11.5625 14.1756C11.9357 13.9663 12.2451 13.6933 12.4909 13.3565C12.7366 13.0198 12.9186 12.633 13.0369 12.1961C13.1553 11.7502 13.2144 11.2951 13.2144 10.831C13.2144 10.2667 13.1371 9.76612 12.9823 9.32926C12.8367 8.8833 12.6365 8.51015 12.3817 8.20982C12.1268 7.90948 11.831 7.68195 11.4943 7.52723C11.1575 7.36341 10.798 7.2815 10.4158 7.2815C9.96074 7.2815 9.56029 7.37706 9.21445 7.56818C8.8777 7.75931 8.59101 8.01869 8.35438 8.34633C8.12686 8.67398 7.95393 9.06078 7.83562 9.50673C7.7173 9.94359 7.65814 10.4123 7.65814 10.9129C7.65814 11.4498 7.7264 11.9413 7.86292 12.3873C7.99944 12.8241 8.18146 13.1973 8.40899 13.5067C8.64562 13.8161 8.92321 14.0573 9.24175 14.2302C9.56029 14.3941 9.89703 14.476 10.252 14.476Z" fill="#F7F6FA"/>
<path d="M16.3583 14.121C16.5676 14.121 16.7587 14.2029 16.9316 14.3668C17.1137 14.5306 17.2047 14.7263 17.2047 14.9538C17.2047 15.1722 17.1137 15.3633 16.9316 15.5272C16.7496 15.6819 16.5448 15.7592 16.3173 15.7592C16.1262 15.7592 15.9442 15.6819 15.7712 15.5272C15.6074 15.3633 15.5255 15.1631 15.5255 14.9265C15.5255 14.7081 15.6074 14.5215 15.7712 14.3668C15.9442 14.2029 16.1398 14.121 16.3583 14.121Z" fill="#F7F6FA"/>
</svg>
