<svg width="21" height="20" viewBox="0 0 21 20" fill="none" xmlns="http://www.w3.org/2000/svg">
<circle cx="10.5" cy="10" r="10" fill="#3F6EFF"/>
<path d="M9.98784 14.127C9.48118 14.127 9.00407 14.0256 8.55651 13.823C8.1174 13.6203 7.73318 13.329 7.40384 12.949C7.07451 12.5605 6.81273 12.0876 6.61851 11.5303C6.43273 10.973 6.33984 10.3396 6.33984 9.63031C6.33984 8.9632 6.42007 8.35098 6.58051 7.79365C6.7494 7.23631 6.99429 6.75498 7.31518 6.34965C7.64451 5.94431 8.04984 5.63187 8.53118 5.41231C9.01251 5.18431 9.56984 5.07031 10.2032 5.07031C10.7183 5.07031 11.2081 5.1632 11.6725 5.34898C12.137 5.53476 12.5423 5.81342 12.8885 6.18498C13.2432 6.55654 13.5218 7.02098 13.7245 7.57831C13.9272 8.13565 14.0285 8.78587 14.0285 9.52898C14.0285 10.137 13.9483 10.7112 13.7878 11.2516C13.6358 11.7921 13.3994 12.2734 13.0785 12.6956L13.8005 13.291C13.8934 13.367 13.9778 13.4641 14.0538 13.5823C14.1383 13.6921 14.1805 13.8188 14.1805 13.9623C14.1805 14.1312 14.113 14.2663 13.9778 14.3676C13.8427 14.469 13.6823 14.5196 13.4965 14.5196C13.2601 14.5196 13.011 14.4014 12.7492 14.165L12.0905 13.595C11.8034 13.7639 11.4867 13.8948 11.1405 13.9876C10.7943 14.0805 10.4101 14.127 9.98784 14.127ZM10.0132 12.9363C10.4776 12.9363 10.883 12.8434 11.2292 12.6576C11.5754 12.4634 11.8625 12.2101 12.0905 11.8976C12.3185 11.5852 12.4874 11.2263 12.5972 10.821C12.707 10.4072 12.7618 9.98498 12.7618 9.55431C12.7618 9.03076 12.6901 8.56631 12.5465 8.16098C12.4114 7.7472 12.2256 7.40098 11.9892 7.12231C11.7527 6.84365 11.4783 6.63253 11.1658 6.48898C10.8534 6.33698 10.5198 6.26098 10.1652 6.26098C9.74295 6.26098 9.3714 6.34965 9.05051 6.52698C8.73807 6.70431 8.47207 6.94498 8.25251 7.24898C8.0414 7.55298 7.88095 7.91187 7.77118 8.32565C7.6614 8.73098 7.60651 9.16587 7.60651 9.63031C7.60651 10.1285 7.66984 10.5845 7.79651 10.9983C7.92318 11.4036 8.09207 11.7499 8.30318 12.037C8.52273 12.3241 8.78029 12.5479 9.07584 12.7083C9.3714 12.8603 9.68384 12.9363 10.0132 12.9363Z" fill="white"/>
<path d="M15.6788 12.607C15.8731 12.607 16.0504 12.683 16.2108 12.835C16.3797 12.987 16.4642 13.1685 16.4642 13.3796C16.4642 13.5823 16.3797 13.7596 16.2108 13.9116C16.0419 14.0552 15.8519 14.127 15.6408 14.127C15.4635 14.127 15.2946 14.0552 15.1342 13.9116C14.9822 13.7596 14.9062 13.5739 14.9062 13.3543C14.9062 13.1516 14.9822 12.9785 15.1342 12.835C15.2946 12.683 15.4762 12.607 15.6788 12.607Z" fill="white"/>
</svg>
