<svg width="20" height="20" viewBox="0 0 20 20" fill="none" xmlns="http://www.w3.org/2000/svg">
<circle cx="10" cy="10" r="10" fill="#212121"/>
<path d="M9.48784 14.127C8.98118 14.127 8.50407 14.0256 8.05651 13.823C7.6174 13.6203 7.23318 13.329 6.90384 12.949C6.57451 12.5605 6.31273 12.0876 6.11851 11.5303C5.93273 10.973 5.83984 10.3396 5.83984 9.63031C5.83984 8.9632 5.92007 8.35098 6.08051 7.79365C6.2494 7.23631 6.49429 6.75498 6.81518 6.34965C7.14451 5.94431 7.54984 5.63187 8.03118 5.41231C8.51251 5.18431 9.06984 5.07031 9.70318 5.07031C10.2183 5.07031 10.7081 5.1632 11.1725 5.34898C11.637 5.53476 12.0423 5.81342 12.3885 6.18498C12.7432 6.55654 13.0218 7.02098 13.2245 7.57831C13.4272 8.13565 13.5285 8.78587 13.5285 9.52898C13.5285 10.137 13.4483 10.7112 13.2878 11.2516C13.1358 11.7921 12.8994 12.2734 12.5785 12.6956L13.3005 13.291C13.3934 13.367 13.4778 13.4641 13.5538 13.5823C13.6383 13.6921 13.6805 13.8188 13.6805 13.9623C13.6805 14.1312 13.613 14.2663 13.4778 14.3676C13.3427 14.469 13.1823 14.5196 12.9965 14.5196C12.7601 14.5196 12.511 14.4014 12.2492 14.165L11.5905 13.595C11.3034 13.7639 10.9867 13.8948 10.6405 13.9876C10.2943 14.0805 9.91007 14.127 9.48784 14.127ZM9.51318 12.9363C9.97762 12.9363 10.383 12.8434 10.7292 12.6576C11.0754 12.4634 11.3625 12.2101 11.5905 11.8976C11.8185 11.5852 11.9874 11.2263 12.0972 10.821C12.207 10.4072 12.2618 9.98498 12.2618 9.55431C12.2618 9.03076 12.1901 8.56631 12.0465 8.16098C11.9114 7.7472 11.7256 7.40098 11.4892 7.12231C11.2527 6.84365 10.9783 6.63253 10.6658 6.48898C10.3534 6.33698 10.0198 6.26098 9.66518 6.26098C9.24295 6.26098 8.8714 6.34965 8.55051 6.52698C8.23807 6.70431 7.97207 6.94498 7.75251 7.24898C7.5414 7.55298 7.38095 7.91187 7.27118 8.32565C7.1614 8.73098 7.10651 9.16587 7.10651 9.63031C7.10651 10.1285 7.16984 10.5845 7.29651 10.9983C7.42318 11.4036 7.59207 11.7499 7.80318 12.037C8.02273 12.3241 8.28029 12.5479 8.57584 12.7083C8.8714 12.8603 9.18384 12.9363 9.51318 12.9363Z" fill="white"/>
<path d="M15.1788 12.607C15.3731 12.607 15.5504 12.683 15.7108 12.835C15.8797 12.987 15.9642 13.1685 15.9642 13.3796C15.9642 13.5823 15.8797 13.7596 15.7108 13.9116C15.5419 14.0552 15.3519 14.127 15.1408 14.127C14.9635 14.127 14.7946 14.0552 14.6342 13.9116C14.4822 13.7596 14.4062 13.5739 14.4062 13.3543C14.4062 13.1516 14.4822 12.9785 14.6342 12.835C14.7946 12.683 14.9762 12.607 15.1788 12.607Z" fill="white"/>
</svg>
