<svg width="19" height="19" viewBox="0 0 19 19" fill="none" xmlns="http://www.w3.org/2000/svg">
<path d="M3.81055 7.27025C3.81055 5.16804 3.81055 4.11694 4.46362 3.46386C5.11669 2.81079 6.1678 2.81079 8.27001 2.81079H11.243C13.3452 2.81079 14.3963 2.81079 15.0494 3.46386C15.7024 4.11694 15.7024 5.16804 15.7024 7.27025V12.3448C15.7024 14.3392 15.7024 15.3363 15.0749 15.6413C14.4474 15.9463 13.6633 15.3302 12.0951 14.0981L11.5933 13.7038C10.7115 13.011 10.2706 12.6645 9.75649 12.6645C9.24237 12.6645 8.80149 13.011 7.91973 13.7038L7.41785 14.0981C5.84967 15.3302 5.06558 15.9463 4.43806 15.6413C3.81055 15.3363 3.81055 14.3392 3.81055 12.3448V7.27025Z" stroke="#9E9E9E" stroke-width="1.78378"/>
</svg>
