<svg width="290" height="328" viewBox="0 0 290 328" fill="none" xmlns="http://www.w3.org/2000/svg">
<g clip-path="url(#clip0_1468_25866)">
<path d="M147.482 44.7749C151.545 45.6024 169.497 49.71 177.723 65.1534C188.08 84.5847 175.051 106.957 173.28 109.908C154.617 140.885 118.902 129.828 100.339 160.426C98.6982 163.138 85.6291 185.42 95.8962 205.619C107.064 227.613 136.704 229.049 138.265 229.109" stroke="#888888" stroke-width="1.20807" stroke-miterlimit="10"/>
<path d="M138.255 223.057V234.672C138.255 236.775 139.696 238.6 141.748 239.098C150.564 241.212 172.999 246.536 172.999 245.858V211.801L141.838 218.61C139.746 219.069 138.245 220.913 138.245 223.057H138.255Z" fill="#E4D5BE"/>
<path opacity="0.99" d="M215.599 300.443C215.599 300.443 187.96 297.123 190.571 311.241C190.571 311.241 191.692 324.7 225.345 314.212C225.345 314.212 239.905 310.931 231.349 292.577C230.089 289.347 228.918 285.618 228.057 281.431C225.706 269.985 226.706 260.045 228.057 253.236C222.133 253.016 216.209 252.797 210.285 252.578C209.144 259.646 208.374 269.686 210.285 281.431C211.516 288.988 213.567 295.388 215.599 300.443Z" fill="#F2F2F2" stroke="#888888" stroke-width="0.751235" stroke-miterlimit="10"/>
<g opacity="0.99">
<path d="M226.746 261.999C225.606 269.068 224.835 279.108 226.746 290.852C227.977 298.409 230.029 304.81 232.06 309.865C232.06 309.865 204.421 306.545 207.033 320.662C207.033 320.662 208.154 334.122 241.807 323.633C241.807 323.633 256.367 320.353 247.811 301.999C246.55 298.768 245.379 295.04 244.519 290.852C242.167 279.407 243.168 269.467 244.519 262.657" fill="#F2F2F2"/>
<path d="M226.746 261.999C225.606 269.068 224.835 279.108 226.746 290.852C227.977 298.409 230.029 304.81 232.06 309.865C232.06 309.865 204.421 306.545 207.033 320.662C207.033 320.662 208.154 334.122 241.807 323.633C241.807 323.633 256.367 320.353 247.811 301.999C246.55 298.768 245.379 295.04 244.519 290.852C242.167 279.407 243.168 269.467 244.519 262.657" stroke="#888888" stroke-width="0.751235" stroke-miterlimit="10"/>
</g>
<g opacity="0.99">
<path d="M208.153 231.73C199.848 235.519 189.28 236.925 181.045 232.209C174.32 228.361 167.816 217.214 158.739 222.149C155.967 223.655 154.887 227.433 155.427 230.305C156.178 234.353 159.38 237.742 162.332 240.394C176.221 252.917 195.515 260.274 212.426 248.789" fill="#FF8F6B"/>
<path d="M208.153 231.73C199.848 235.519 189.28 236.925 181.045 232.209C174.32 228.361 167.816 217.214 158.739 222.149C155.967 223.655 154.887 227.433 155.427 230.305C156.178 234.353 159.38 237.742 162.332 240.394C176.221 252.917 195.515 260.274 212.426 248.789" stroke="#888888" stroke-width="0.375618" stroke-miterlimit="10"/>
</g>
<path opacity="0.99" d="M289.909 219.449C291.63 186.07 266.93 157.676 234.741 156.029C202.552 154.382 175.063 180.106 173.343 213.485C171.622 246.863 196.321 275.258 228.51 276.905C260.7 278.552 288.189 252.828 289.909 219.449Z" fill="#FF8F6B"/>
<path opacity="0.99" d="M215.829 162.2C215.829 162.2 207.353 135.88 243.328 130.067C243.548 130.805 247.14 143.965 237.804 154.175C229.168 163.616 216.99 162.33 215.839 162.19L215.829 162.2Z" fill="#42CA89"/>
<path opacity="0.99" d="M229.798 147.754C229.798 147.754 224.104 148.691 216.819 162.171" stroke="#006934" stroke-width="0.83245" stroke-miterlimit="10"/>
<path d="M204.201 227.573C211.833 227.573 218.02 223.73 218.02 218.989C218.02 214.248 211.833 210.405 204.201 210.405C196.568 210.405 190.381 214.248 190.381 218.989C190.381 223.73 196.568 227.573 204.201 227.573Z" fill="#FF7364"/>
<path d="M173.69 223.745L195.275 225.26C195.275 225.26 197.176 245.848 182.156 248.48C182.156 248.48 174.971 237.005 173.69 223.735V223.745Z" fill="#221714"/>
<path d="M182.145 248.48C188.58 247.354 191.902 242.937 193.603 238.251C191.952 235.868 188.95 233.984 185.298 233.336C181.775 232.718 178.433 233.396 176.071 234.941C178.623 242.857 182.135 248.48 182.135 248.48H182.145Z" fill="#E17766"/>
<path d="M207.373 231.073C199.478 235.649 189.09 238.061 180.434 234.163C173.37 230.983 165.814 220.514 157.258 226.297C154.647 228.062 153.946 231.93 154.747 234.731C155.887 238.69 159.41 241.75 162.602 244.113C177.642 255.23 197.566 260.693 213.277 247.623" fill="#FF8F6B"/>
<path d="M207.373 231.073C199.478 235.649 189.09 238.061 180.434 234.163C173.37 230.983 165.814 220.514 157.258 226.297C154.647 228.062 153.946 231.93 154.747 234.731C155.887 238.69 159.41 241.75 162.602 244.113C177.642 255.23 197.566 260.693 213.277 247.623" stroke="#FDFBFB" stroke-width="0.527895" stroke-miterlimit="10"/>
<path opacity="0.99" d="M190.711 214.253C195.355 214.253 199.127 208.421 199.127 201.223C199.127 194.025 195.355 188.192 190.711 188.192C186.068 188.192 182.296 194.025 182.296 201.223C182.296 208.421 186.068 214.253 190.711 214.253Z" fill="#FDFBFB"/>
<path opacity="0.99" d="M186.569 207.414C188.88 207.414 190.762 204.642 190.762 201.223C190.762 197.803 188.88 195.031 186.569 195.031C184.257 195.031 182.376 197.803 182.376 201.223C182.376 204.642 184.257 207.414 186.569 207.414Z" fill="#221714"/>
<path opacity="0.99" d="M189.31 200.196C189.791 200.216 190.211 199.668 190.241 198.95C190.271 198.232 189.921 197.644 189.44 197.614C188.96 197.584 188.54 198.142 188.51 198.86C188.48 199.578 188.83 200.166 189.31 200.196Z" fill="#FDFBFB"/>
<path d="M171.598 183.237L166.585 169.907C167.896 167.863 168.656 165.431 168.656 162.829C168.656 155.551 162.732 149.648 155.427 149.648H135.443C128.138 149.648 122.214 155.551 122.214 162.829C122.214 170.107 128.138 176.009 135.443 176.009H155.427C157.589 176.009 159.63 175.49 161.441 174.573L171.598 183.247V183.237Z" fill="white" stroke="#888888" stroke-width="0.873057" stroke-miterlimit="10"/>
<path d="M93.1041 90.786C93.1341 100.247 93.1541 109.709 93.1842 119.17C97.0769 119.101 104.672 120.377 107.204 123.447C108.985 125.611 109.125 128.412 107.854 130.885C105.573 135.342 96.0161 136.797 91.3929 136.777C87.14 136.757 80.5254 136.049 77.8936 132.301C74.8915 128.044 77.3432 125.003 77.0931 120.337C76.9029 116.728 76.7128 113.198 76.5927 109.549C76.2425 98.9115 75.9022 88.2636 75.552 77.6257L93.1041 90.786Z" fill="#F2F2F2"/>
<path d="M54.2975 90.786C54.2675 100.247 54.2475 109.709 54.2174 119.17C50.3247 119.101 42.7295 120.377 40.1978 123.447C38.4165 125.611 38.2764 128.412 39.5473 130.885C41.8289 135.342 51.3855 136.797 56.0087 136.777C60.2616 136.757 66.8762 136.049 69.508 132.301C72.5101 128.044 70.0584 125.003 70.3085 120.337C70.4987 116.728 70.6888 113.198 70.8089 109.549C71.1591 98.9115 71.4994 88.2636 71.8496 77.6257L54.2975 90.786Z" fill="#F2F2F2"/>
<path opacity="0.99" d="M132.581 42.741C132.181 24.835 117.721 10.4285 99.9089 10.4285C96.6166 10.4285 93.4344 10.927 90.4324 11.8443C84.4282 4.6061 75.432 0 65.3651 0C49.8544 0 36.8754 10.927 33.5331 25.5928C33.2429 25.5928 32.9727 25.5728 32.6825 25.5728C14.6401 25.5628 0 40.3682 0 58.6231C0 76.878 14.6401 91.6833 32.6825 91.6833H119.102C120.043 91.7929 120.983 91.8528 121.954 91.8528C136.004 91.8528 147.392 80.3275 147.392 66.1204C147.392 55.7418 141.317 46.8087 132.571 42.741H132.581Z" fill="#6F92FF"/>
<path opacity="0.99" d="M45.4313 63.0196C49.7743 63.0196 53.3068 59.55 53.3068 55.263C53.3068 50.9759 49.7843 47.5164 45.4313 47.5164C41.0783 47.5164 37.5559 50.9859 37.5559 55.263C37.5559 59.5401 41.0783 63.0196 45.4313 63.0196Z" fill="#ED7B69"/>
<path opacity="0.99" d="M92.1735 63.0196C96.5165 63.0196 100.049 59.55 100.049 55.2729C100.049 50.9959 96.5265 47.5164 92.1735 47.5164C87.8205 47.5164 84.2981 50.9859 84.2981 55.2729C84.2981 59.56 87.8205 63.0196 92.1735 63.0196Z" fill="#ED7B69"/>
<path opacity="0.99" d="M79.8851 55.8811C85.4489 55.8811 89.962 50.8762 89.962 44.7048C89.962 38.5335 85.4489 33.5286 79.8851 33.5286C74.3212 33.5286 69.8081 38.5335 69.8081 44.7048C69.8081 50.8762 74.3212 55.8811 79.8851 55.8811Z" fill="#FDFBFB"/>
<path opacity="0.99" d="M84.9485 50.019C87.7204 50.019 89.962 47.6462 89.962 44.7051C89.962 41.7639 87.7204 39.3911 84.9485 39.3911C82.1766 39.3911 79.9351 41.7639 79.9351 44.7051C79.9351 47.6462 82.1766 50.019 84.9485 50.019Z" fill="#221714"/>
<path opacity="0.99" d="M56.3689 55.8811C61.9328 55.8811 66.4459 50.8762 66.4459 44.7048C66.4459 38.5335 61.9328 33.5286 56.3689 33.5286C50.8051 33.5286 46.292 38.5335 46.292 44.7048C46.292 50.8762 50.8051 55.8811 56.3689 55.8811Z" fill="#FDFBFB"/>
<path opacity="0.99" d="M61.4324 50.019C64.2043 50.019 66.4459 47.6462 66.4459 44.7051C66.4459 41.7639 64.2043 39.3911 61.4324 39.3911C58.6605 39.3911 56.4189 41.7639 56.4189 44.7051C56.4189 47.6462 58.6605 50.019 61.4324 50.019Z" fill="#221714"/>
<path opacity="0.99" d="M52.5261 60.9558C56.8991 65.1132 62.6831 67.6456 68.7873 67.6954C74.8915 67.7353 80.6855 65.2328 84.9485 60.9558C85.2587 60.6367 84.7784 60.1582 84.4582 60.4672C80.3253 64.6147 74.7214 67.0474 68.7873 67.0075C62.8633 66.9676 57.2494 64.4951 53.0165 60.4672C52.6962 60.1582 52.2059 60.6467 52.5261 60.9558Z" fill="#616161"/>
<path opacity="0.99" d="M64.5044 46.729C64.5044 53.2294 59.1507 58.4835 52.5662 58.4835C45.9816 58.4835 40.6279 53.2194 40.6279 46.729" stroke="#616161" stroke-width="0.558351" stroke-miterlimit="10"/>
<path opacity="0.99" d="M40.6179 46.7289C40.6179 40.2285 45.9716 34.9744 52.5562 34.9744C59.1407 34.9744 64.4944 40.2385 64.4944 46.7289" stroke="#616161" stroke-width="0.558351" stroke-miterlimit="10"/>
<path opacity="0.99" d="M81.2961 58.4834C87.8907 58.4834 93.2344 53.2193 93.2344 46.7289C93.2344 40.2385 87.8907 34.9744 81.2961 34.9744C74.7016 34.9744 69.3579 40.2385 69.3579 46.7289C69.3579 53.2193 74.7016 58.4834 81.2961 58.4834Z" stroke="#616161" stroke-width="0.558351" stroke-miterlimit="10"/>
<path opacity="0.99" d="M64.5044 46.729H69.3477" stroke="#616161" stroke-width="0.558351" stroke-miterlimit="10"/>
<path d="M115.429 46.2304C119.552 44.7349 124.075 46.4098 125.987 49.8893C127.598 52.8205 127.128 56.5991 124.766 59.3009C128.739 60.7067 131.38 64.1164 131.34 67.4962C131.28 72.1023 126.247 76.6187 119.953 75.851" fill="#6E92FF"/>
<path d="M144.99 48.1845L146.821 39.9892C147.151 38.5037 146.421 36.9982 145.03 36.3302C139.096 33.4888 123.955 26.2905 123.855 26.7691C123.725 27.3673 118.472 50.8065 118.472 50.8065L141.728 50.7766C143.289 50.7766 144.65 49.6999 144.98 48.1944L144.99 48.1845Z" fill="#E4D5BE"/>
<g opacity="0.99">
<path d="M130 56.2004C132.912 56.0109 136.014 55.6421 139.266 55.0439C140.167 54.8744 140.857 54.8644 141.418 54.2064C141.488 54.1167 120.413 41.5047 121.174 37.098C121.614 34.5358 124.636 33.2596 127.268 33.1001C131.091 32.8608 134.893 33.9874 138.305 35.7122C143.819 38.5038 148.863 42.5715 153.246 46.8486C156.768 50.2882 159.87 55.5822 158.479 60.7068C157.289 65.1035 153.016 67.3766 149.853 69.0516C141.268 73.6178 132.371 72.87 127.638 72.0525" fill="#F2F2F2"/>
<path d="M130 56.2004C132.912 56.0109 136.014 55.6421 139.266 55.0439C140.167 54.8744 140.857 54.8644 141.418 54.2064C141.488 54.1167 120.413 41.5047 121.174 37.098C121.614 34.5358 124.636 33.2596 127.268 33.1001C131.091 32.8608 134.893 33.9874 138.305 35.7122C143.819 38.5038 148.863 42.5715 153.246 46.8486C156.768 50.2882 159.87 55.5822 158.479 60.7068C157.289 65.1035 153.016 67.3766 149.853 69.0516C141.268 73.6178 132.371 72.87 127.638 72.0525" stroke="#888888" stroke-width="0.558351" stroke-miterlimit="10"/>
</g>
<g opacity="0.99">
<path d="M128.428 36.9886C127.878 35.5031 126.397 34.4862 124.836 34.3665C123.965 34.2967 123.085 34.4862 122.264 34.7853C121.754 34.9647 121.974 35.7922 122.494 35.6028C123.605 35.204 124.896 34.9946 125.977 35.523C126.637 35.8421 127.108 36.3306 127.448 36.9089C127.498 36.9986 127.548 37.0983 127.598 37.198C127.668 37.3376 127.578 37.1282 127.608 37.2179C127.798 37.7264 128.619 37.5071 128.428 36.9886Z" fill="#888888"/>
</g>
<g opacity="0.99">
<path d="M126.858 39.6903C126.717 39.3513 126.457 39.0522 126.207 38.783C125.567 38.1051 124.726 37.6265 123.835 37.3274C123.075 37.0682 122.284 36.9486 121.484 36.8987C120.933 36.8688 120.933 37.7163 121.484 37.7462C122.615 37.816 123.745 38.0652 124.716 38.6634C125.046 38.8728 125.256 39.0323 125.537 39.3114C125.637 39.4111 125.727 39.5108 125.817 39.6205C125.877 39.7003 125.787 39.5707 125.817 39.6305C125.827 39.6504 125.847 39.6704 125.867 39.6903C125.897 39.7302 125.927 39.78 125.957 39.8199C126.017 39.9096 126.077 39.9994 126.117 40.0991C126.207 40.3084 126.517 40.3583 126.697 40.2486C126.918 40.119 126.938 39.8797 126.848 39.6704L126.858 39.6903Z" fill="#888888"/>
</g>
<path opacity="0.99" d="M119.462 51.4147C123.585 49.9192 128.108 51.5942 130.02 55.0737C131.631 58.0048 131.16 61.7834 128.799 64.4853C132.772 65.891 135.413 69.3007 135.373 72.6805C135.313 77.2866 130.28 81.803 123.986 81.0353" fill="#6F92FF"/>
<path opacity="0.99" d="M8.14703 66.7063C13.0591 66.1462 17.9613 65.5879 22.8734 65.0278C20.4295 77.0463 21.8705 85.6276 23.8113 91.4246C23.8113 91.4246 26.2845 98.804 27.9422 114.542C28.0527 115.598 28.2543 117.917 27.0571 118.654C26.4673 119.015 25.6636 119.023 25.0694 118.653C25.0933 119.278 24.7507 119.906 24.2119 120.217C23.1988 120.805 20.3246 120.146 19.3852 119.529C18.4223 118.897 17.661 117.95 17.0409 116.995C17.0409 116.995 17.035 116.966 17.0173 116.929C10.4886 101.549 8.6435 89.7435 8.6435 89.7435C7.78497 84.2599 7.10508 76.3713 8.14703 66.7063Z" fill="#F2F2F2"/>
<g opacity="0.99">
<path d="M25.3042 118.479C25.3944 118.522 25.2473 118.45 25.212 118.426C25.108 118.366 24.9923 118.297 24.8961 118.225C24.541 117.98 24.2152 117.678 23.9266 117.359C22.9371 116.243 22.5036 114.803 22.5229 113.335C22.5263 113.05 22.0814 113.016 22.0779 113.301C22.0589 114.871 22.5141 116.418 23.5508 117.616C23.9906 118.129 24.546 118.609 25.1559 118.905C25.4148 119.027 25.5533 118.603 25.3042 118.479Z" fill="#888888"/>
</g>
<g opacity="0.99">
<path d="M22.4807 119.917C21.906 119.593 21.4075 119.092 20.9991 118.583C19.929 117.27 19.4228 115.621 19.381 113.951C19.3707 113.648 18.8944 113.61 18.9047 113.913C18.9545 115.673 19.4648 117.392 20.5526 118.794C21.0042 119.365 21.5597 119.947 22.203 120.307C22.4678 120.458 22.7337 120.06 22.4689 119.909L22.4807 119.917Z" fill="#888888"/>
</g>
<path opacity="0.99" d="M32.2921 70.7264C30.1607 74.505 25.6676 76.1301 21.955 74.7044C18.8328 73.508 16.7214 70.3376 16.7414 66.7684C12.8287 68.2439 8.6158 67.3466 6.4443 64.7445C3.49226 61.2051 4.33284 54.5453 9.57646 51.0857" fill="#6F92FF"/>
<path d="M93.1842 119.17C93.1842 116.758 93.1742 114.345 93.1642 111.932H76.6728C76.4627 115.671 76.3126 118.752 76.2025 121.035C76.1625 121.942 76.1124 122.879 76.1425 124.135C76.2025 126.648 76.5027 128.702 76.7629 130.077C76.923 131.154 77.3133 132.6 78.354 133.886C81.0859 137.306 86.2494 137.086 91.393 136.797C95.5859 136.558 105.303 135.89 107.854 130.905C109.115 128.422 108.985 125.631 107.204 123.467C104.672 120.397 97.0769 119.12 93.1842 119.19V119.17Z" fill="#FE9979"/>
<path d="M54.2174 119.17C50.3247 119.1 42.7295 120.377 40.1978 123.447C38.4165 125.611 38.2764 128.412 39.5473 130.885C41.8989 135.501 50.0546 136.279 56.0087 136.777C63.4738 137.395 65.9455 135.94 67.0963 135.052C68.7775 133.766 69.7181 132.151 70.2285 131.014C70.3786 130.685 70.5887 130.187 70.7989 129.569C71.8096 126.568 71.5894 124.056 71.4493 122.201C71.1991 119.09 70.989 115.771 70.7188 111.922H54.2274C54.2274 114.335 54.2174 116.748 54.2074 119.16L54.2174 119.17Z" fill="#FE9979"/>
<ellipse cx="135.301" cy="163.281" rx="2.22859" ry="2.22035" fill="#D9D9D9"/>
<ellipse cx="145.887" cy="163.281" rx="2.22859" ry="2.22035" fill="#D9D9D9"/>
<ellipse cx="156.473" cy="163.281" rx="2.22859" ry="2.22035" fill="#D9D9D9"/>
</g>
<defs>
<clipPath id="clip0_1468_25866">
<rect width="290" height="328" fill="white"/>
</clipPath>
</defs>
</svg>
