<svg width="251" height="338" viewBox="0 0 251 338" fill="none" xmlns="http://www.w3.org/2000/svg">
<path opacity="0.99" d="M155.166 115.506L127.401 149.285C127.401 149.285 53.7141 175.266 53.6979 175.274C50.9985 176.223 46.2806 177.163 44.1567 174.601C43.1434 173.385 42.8921 171.586 43.5163 170.135C42.122 170.394 40.6061 169.827 39.7225 168.716C38.0607 166.625 38.6362 159.945 39.7225 157.643C40.8412 155.276 42.7219 153.274 44.6755 151.571C44.6998 151.547 44.7485 151.523 44.8133 151.49C74.7988 132.772 155.174 115.522 155.174 115.522L155.166 115.506Z" fill="#F2F2F2"/>
<g opacity="0.99">
<path d="M43.9621 170.638C44.0431 170.378 44.1242 170.2 44.1972 170.046C44.4728 169.446 44.7889 168.87 45.1537 168.327C46.321 166.568 47.9504 165.133 49.823 164.161C51.3227 163.382 52.9764 162.92 54.6463 162.71C55.2867 162.628 55.2948 161.615 54.6463 161.696C49.896 162.296 45.5185 164.915 43.4108 169.324C43.2487 169.665 43.0866 170.013 42.9812 170.37C42.7867 170.994 43.7675 171.262 43.9621 170.638Z" fill="#DAB7B7"/>
</g>
<g opacity="0.99">
<path d="M39.852 164.639C39.9006 164.509 39.7952 164.753 39.8925 164.542C39.9817 164.363 40.0628 164.177 40.16 164.007C40.5005 163.358 40.9058 162.742 41.3436 162.158C42.7865 160.245 44.6996 158.697 46.8316 157.611C48.5745 156.727 50.4551 156.176 52.3764 155.852C53.0654 155.738 52.7736 154.692 52.0926 154.806C46.8802 155.673 41.9272 158.559 39.3251 163.269C39.1305 163.618 38.9522 163.974 38.8063 164.347C38.555 164.996 39.6007 165.279 39.852 164.631V164.639Z" fill="#DAB7B7"/>
</g>
<path d="M174.148 158.917C165.205 160.013 156.263 161.109 147.32 162.205C146.612 162.289 143.275 184.248 142.768 186.924C141.615 192.941 141.243 199.108 141.687 205.22C142.185 212.15 145.25 216.995 147.989 223.265C148.705 224.91 156.566 243.035 156.603 243.017C148.79 246.292 144.278 253.055 145.167 259.072C145.593 261.905 147.288 265.174 150.453 267.019C154.694 269.486 160.531 268.798 165.023 265.115C169.604 262.096 174.198 259.066 178.785 256.038C182.118 253.837 183.443 249.596 181.963 245.916C178.765 237.956 175.575 229.994 172.38 222.042C170.711 217.884 167.518 212.721 166.849 208.316C165.637 200.371 168.233 192.121 169.967 184.441C170.597 181.632 173.067 159.051 174.164 158.913L174.148 158.917Z" fill="#F2F2F2"/>
<path opacity="0.99" d="M151.88 232.17C153.459 235.782 155.032 239.403 156.61 243.015C148.798 246.29 144.286 253.053 145.175 259.07C145.601 261.903 147.296 265.172 150.461 267.016C154.702 269.484 160.538 268.795 165.031 265.112C169.612 262.094 174.206 259.063 178.793 256.035C182.126 253.835 183.451 249.594 181.971 245.913L172.284 221.783L151.888 232.168L151.88 232.17Z" fill="#FE9878"/>
<path d="M150.048 168.251C141.284 166.173 132.512 164.098 123.747 162.021C123.056 161.856 112.305 181.296 110.898 183.627C107.727 188.866 105.242 194.524 103.534 200.415C101.595 207.092 102.792 212.697 103.178 219.523C103.279 221.318 104.359 241.044 104.401 241.041C95.9382 241.402 89.3582 246.182 88.104 252.135C87.5225 254.939 87.977 258.587 90.3027 261.424C93.4247 265.213 99.1342 266.592 104.623 264.688C109.972 263.443 115.329 262.196 120.677 260.952C124.564 260.046 127.278 256.527 127.165 252.559C126.934 243.986 126.695 235.415 126.464 226.842C126.338 222.365 125.141 216.415 126.036 212.047C127.658 204.171 132.957 197.337 137.244 190.736C138.815 188.326 148.963 168 150.04 168.253L150.048 168.251Z" fill="#F2F2F2"/>
<path opacity="0.99" d="M103.741 229.224C103.963 233.162 104.186 237.101 104.408 241.039C95.9462 241.4 89.3661 246.18 88.1119 252.133C87.5304 254.937 87.9849 258.585 90.3106 261.422C93.4326 265.211 99.1422 266.59 104.631 264.686C109.98 263.441 115.336 262.194 120.685 260.95C124.572 260.044 127.286 256.525 127.173 252.557L126.464 226.565L103.733 229.226L103.741 229.224Z" fill="#FE9878"/>
<path opacity="0.99" d="M225.577 176.328C234.486 156.954 226.315 133.899 206.998 124.48C203.423 122.737 199.71 121.586 195.981 120.978C193.249 110.066 185.889 100.371 174.969 95.0453C158.14 86.8416 138.369 91.673 127.085 105.592C126.777 105.438 126.485 105.276 126.169 105.122C106.592 95.5722 82.9861 103.679 73.4692 123.215C63.9442 142.751 72.0992 166.333 91.6761 175.874L185.427 221.578C186.391 222.186 187.38 222.753 188.434 223.264C203.682 230.698 222.043 224.383 229.452 209.183C234.867 198.086 232.93 185.302 225.577 176.328Z" fill="#6F92FF"/>
<path opacity="0.99" d="M106.884 133.583C111.601 135.886 117.284 133.932 119.578 129.222C121.872 124.512 119.91 118.838 115.193 116.536C110.475 114.233 104.792 116.187 102.498 120.889C100.204 125.59 102.166 131.273 106.884 133.575V133.583Z" fill="#ED7B69"/>
<path opacity="0.99" d="M156.195 161.153C160.913 163.455 166.596 161.501 168.89 156.8C171.184 152.098 169.222 146.415 164.504 144.113C159.786 141.811 154.104 143.765 151.809 148.475C149.515 153.184 151.477 158.859 156.195 161.161V161.153Z" fill="#ED7B69"/>
<path opacity="0.99" d="M147.975 145.135C154.103 147.883 161.569 144.527 164.658 137.645C167.747 130.762 165.282 122.948 159.162 120.2C153.042 117.452 145.567 120.808 142.479 127.69C139.39 134.572 141.855 142.387 147.975 145.135Z" fill="white"/>
<path opacity="0.99" d="M145.341 136.097C148.389 137.467 152.045 135.918 153.52 132.643C154.995 129.368 153.706 125.607 150.658 124.245C147.61 122.875 143.946 124.423 142.479 127.698C141.012 130.973 142.293 134.735 145.341 136.097Z" fill="#221714"/>
<path opacity="0.99" d="M122.764 134.653C128.893 137.401 136.358 134.045 139.447 127.163C142.536 120.281 140.071 112.466 133.951 109.718C127.822 106.97 120.356 110.326 117.268 117.208C114.179 124.091 116.644 131.905 122.764 134.653Z" fill="white"/>
<path opacity="0.99" d="M120.138 125.607C123.186 126.977 126.842 125.428 128.317 122.153C129.792 118.878 128.503 115.117 125.455 113.755C122.407 112.393 118.743 113.933 117.276 117.208C115.809 120.483 117.09 124.245 120.138 125.607Z" fill="#221714"/>
<path opacity="0.99" d="M119.927 136.956L146.97 150.137C146.232 150.931 141.879 155.422 134.964 155.422C133.059 155.422 128.009 155.073 124.012 151.085C118.403 145.492 119.797 137.653 119.935 136.956H119.927Z" fill="#ED7B69"/>
<path opacity="0.99" d="M32.3712 130.568C32.3712 130.568 44.6256 96.2663 28.416 81.7837" stroke="#DAB7B7" stroke-width="0.590462" stroke-miterlimit="10"/>
<path opacity="0.99" d="M50.6741 121.188C50.6741 121.188 53.106 92.5646 62.6148 76.668" stroke="#DAB7B7" stroke-width="0.590462" stroke-miterlimit="10"/>
<path opacity="0.99" d="M100.326 97.8098L128.22 31.6536" stroke="#DAB7B7" stroke-width="0.590462" stroke-miterlimit="10"/>
<path opacity="0.99" d="M68.4108 114.654C68.2892 113.317 77.8061 92.1511 77.8061 92.1511" stroke="#DAB7B7" stroke-width="0.590462" stroke-miterlimit="10"/>
<path opacity="0.99" d="M151.275 86.6289C151.275 86.6289 159.58 76.0224 214.027 62.9906" stroke="#DAB7B7" stroke-width="0.590462" stroke-miterlimit="10"/>
<path d="M83.2131 133.342L64.0057 147.601C61.9891 149.098 61.5679 151.947 63.0651 153.963L72.3765 166.506C73.8736 168.523 76.7221 168.944 78.7387 167.447L97.9462 153.187C99.9628 151.69 100.384 148.841 98.8868 146.825L89.5754 134.282C88.0782 132.266 85.2298 131.845 83.2131 133.342Z" fill="#F7DFBC"/>
<g opacity="0.99">
<path d="M85.5798 133.997C83.464 138.909 81.3482 143.814 79.2325 148.726L80.108 148.224C74.7983 148.824 69.4805 149.432 64.1708 150.031C62.89 150.177 62.8738 152.204 64.1708 152.058C69.4805 151.458 74.7983 150.85 80.108 150.25C80.4403 150.21 80.8375 150.088 80.9834 149.748C83.0992 144.835 85.215 139.931 87.3307 135.018C87.8414 133.835 86.0986 132.797 85.5798 133.997Z" fill="#DAB7B7"/>
</g>
<path d="M245.694 52.9224L226.551 48.0108C224.118 47.3866 221.64 48.8528 221.015 51.2856L217.907 63.4014C217.283 65.8342 218.749 68.3124 221.182 68.9365L240.325 73.8482C242.758 74.4723 245.236 73.0062 245.86 70.5734L248.969 58.4576C249.593 56.0248 248.127 53.5466 245.694 52.9224Z" fill="#F7DFBC"/>
<g opacity="0.99">
<path d="M247.021 55.0393C242.522 56.3039 238.023 57.5685 233.524 58.8412L234.383 59.0682C231.051 55.7932 227.72 52.5182 224.38 49.2432C223.569 48.4407 222.313 49.6972 223.123 50.4997C226.455 53.7747 229.787 57.0497 233.127 60.3247C233.354 60.5435 233.686 60.6408 233.986 60.5516C238.485 59.287 242.984 58.0224 247.483 56.7497C248.578 56.4417 248.115 54.7312 247.013 55.0393H247.021Z" fill="#DAB7B7"/>
</g>
<path d="M245.755 110.039L226.116 107.819C223.621 107.537 221.369 109.332 221.087 111.827L219.681 124.256C219.399 126.752 221.194 129.004 223.689 129.286L243.328 131.506C245.823 131.788 248.075 129.994 248.357 127.498L249.763 115.069C250.045 112.573 248.25 110.322 245.755 110.039Z" fill="#F7DFBC"/>
<g opacity="0.99">
<path d="M247.246 112.036C242.965 113.909 238.685 115.789 234.405 117.662H235.297C231.544 114.881 227.79 112.093 224.037 109.312C223.121 108.631 222.237 110.172 223.145 110.844C226.899 113.625 230.652 116.414 234.405 119.194C234.673 119.389 235.029 119.316 235.297 119.194C239.577 117.321 243.857 115.441 248.137 113.568C249.183 113.114 248.275 111.582 247.246 112.036Z" fill="#DAB7B7"/>
</g>
<path d="M34.9697 71.7169L24.0759 50.4194C22.9321 48.1833 20.1922 47.2978 17.9561 48.4416L4.04886 55.5552C1.81278 56.699 0.927292 59.4389 2.07106 61.6749L12.9649 82.9725C14.1086 85.2085 16.8485 86.094 19.0846 84.9503L32.9919 77.8366C35.2279 76.6929 36.1134 73.953 34.9697 71.7169Z" fill="#F7DFBC"/>
<g opacity="0.99">
<path d="M33.7982 73.8523C29.3073 70.9583 24.8082 68.0562 20.3173 65.1622L20.8199 66.0377C21.1036 60.6956 21.3873 55.3616 21.663 50.0195C21.7278 48.7144 19.7012 48.7225 19.6364 50.0195C19.3526 55.3616 19.0689 60.6956 18.7933 66.0377C18.7771 66.4025 19.0041 66.7268 19.2959 66.9132C23.7868 69.8072 28.2859 72.7093 32.7768 75.6033C33.8793 76.3085 34.8926 74.5575 33.7982 73.8523Z" fill="#DAB7B7"/>
</g>
<path d="M41.0571 8.57165L31.9295 30.6838C30.9712 33.0054 32.0764 35.6643 34.398 36.6226L48.8372 42.5829C51.1588 43.5412 53.8177 42.4361 54.776 40.1145L63.9035 18.0023C64.8619 15.6807 63.7567 13.0218 61.4351 12.0635L46.9959 6.1032C44.6743 5.14489 42.0154 6.25005 41.0571 8.57165Z" fill="#F7DFBC"/>
<g opacity="0.99">
<path d="M43.4589 8.16019C44.1723 13.4618 44.8857 18.7552 45.599 24.0568L46.0611 22.9138C41.8133 26.1645 37.5737 29.4151 33.3259 32.6739C32.3045 33.4602 33.3097 35.2193 34.3474 34.4249C38.5951 31.1742 42.8347 27.9236 47.0825 24.6648C47.4878 24.3568 47.6175 24.0244 47.5446 23.5218C46.8312 18.2202 46.1178 12.9267 45.4045 7.62517C45.2342 6.33625 43.2806 6.88749 43.4508 8.16019H43.4589Z" fill="#DAB7B7"/>
</g>
<path d="M40.7277 129.469L37.9243 153.226C37.63 155.721 39.4134 157.981 41.9077 158.276L57.4211 160.106C59.9154 160.401 62.176 158.617 62.4704 156.123L65.2738 132.366C65.5681 129.871 63.7847 127.611 61.2904 127.316L45.777 125.486C43.2827 125.191 41.0221 126.975 40.7277 129.469Z" fill="#F7DFBC"/>
<g opacity="0.99">
<path d="M42.9246 128.427C45.0485 133.332 47.1642 138.244 49.2881 143.149V142.127C46.0861 146.407 42.876 150.688 39.6739 154.96C38.8876 156.005 40.6467 157.019 41.4249 155.981C44.6269 151.701 47.8371 147.421 51.0391 143.149C51.2661 142.841 51.1769 142.435 51.0391 142.127C48.9152 137.223 46.7994 132.31 44.6756 127.406C44.1568 126.214 42.4139 127.244 42.9246 128.427Z" fill="#DAB7B7"/>
</g>
<path d="M125.591 3.7865L112.342 23.7047C110.951 25.7959 111.519 28.6188 113.61 30.0098L126.617 38.6612C128.708 40.0522 131.531 39.4845 132.922 37.3933L146.17 17.4751C147.561 15.3839 146.994 12.5609 144.902 11.1699L131.896 2.51859C129.805 1.12758 126.982 1.69525 125.591 3.7865Z" fill="#F7DFBC"/>
<g opacity="0.99">
<path d="M128.011 3.7739C127.687 9.10791 127.355 14.45 127.031 19.784L127.533 18.9085C122.742 21.2756 117.943 23.6427 113.152 26.0097C111.985 26.5853 113.007 28.3363 114.174 27.7607C118.965 25.3936 123.764 23.0266 128.555 20.6595C128.879 20.4974 129.033 20.1245 129.057 19.784C129.381 14.45 129.714 9.10791 130.038 3.7739C130.119 2.46878 128.093 2.47688 128.011 3.7739Z" fill="#DAB7B7"/>
</g>
<path d="M142.603 66.5678L163.448 54.8317C165.636 53.5995 166.412 50.8264 165.18 48.6378L157.516 35.0259C156.284 32.8373 153.511 32.062 151.322 33.2942L130.477 45.0303C128.288 46.2625 127.513 49.0356 128.745 51.2242L136.409 64.8361C137.641 67.0247 140.414 67.8 142.603 66.5678Z" fill="#F7DFBC"/>
<g opacity="0.99">
<path d="M140.412 65.5304C143.127 60.926 145.843 56.3216 148.551 51.7091L147.675 52.2117C153.017 52.2765 158.367 52.3495 163.709 52.4143C165.015 52.4305 165.015 50.4039 163.709 50.3877C158.367 50.3229 153.017 50.2499 147.675 50.1851C147.318 50.1851 146.978 50.3796 146.8 50.6877C144.084 55.2921 141.368 59.8965 138.661 64.509C137.996 65.6358 139.747 66.6572 140.412 65.5304Z" fill="#DAB7B7"/>
</g>
<path d="M63.9846 60.9252L83.6101 48.5062C85.6691 47.201 88.9603 47.6064 90.9545 49.406L103.349 60.5928C105.343 62.3924 105.287 64.9135 103.228 66.2186L83.602 78.6376C81.543 79.9427 78.2518 79.5374 76.2576 77.7378L63.863 66.551C61.8688 64.7514 61.9255 62.2303 63.9846 60.9252Z" fill="#F7DFBC"/>
<g opacity="0.99">
<path d="M80.7405 77.852C82.4023 73.5313 84.0722 69.2025 85.734 64.8818L84.7532 65.6276C89.925 65.206 95.0888 64.7926 100.261 64.3711C101.015 64.3062 101.768 64.2495 102.53 64.1846C103.819 64.0792 103.836 62.0526 102.53 62.158C97.3586 62.5796 92.1948 62.993 87.023 63.4145C86.2691 63.4794 85.5152 63.5361 84.7532 63.601C84.2668 63.6415 83.9506 63.8928 83.7723 64.3467C82.1105 68.6675 80.4406 72.9963 78.7788 77.317C78.3086 78.5329 80.2703 79.0598 80.7324 77.852H80.7405Z" fill="#DAB7B7"/>
</g>
<path d="M82.1566 179.811C75.4445 164.669 68.7325 149.526 62.0204 134.383C61.5259 133.272 60.4639 132.527 59.2561 132.446C51.8063 131.943 44.3566 131.449 36.9068 130.946C34.4911 130.784 32.7482 133.208 33.6642 135.445L51.782 179.69C52.236 180.8 53.2574 181.57 54.449 181.7C62.5716 182.592 70.6942 183.492 78.8168 184.383C81.3217 184.659 83.1861 182.113 82.1647 179.811H82.1566Z" fill="#464646"/>
<path opacity="0.99" d="M196.53 190.635L161.26 164.793C161.26 164.793 83.436 157.889 83.4118 157.887C80.5614 157.635 75.7607 157.902 74.3309 160.908C73.651 162.337 73.8491 164.145 74.8128 165.394C73.3966 165.489 72.0689 166.421 71.4908 167.713C70.3957 170.155 72.6112 176.479 74.2356 178.446C75.905 180.457 78.2233 181.94 80.5379 183.097C80.5688 183.116 80.6246 183.129 80.6885 183.143C114.377 193.847 196.522 190.635 196.522 190.635L196.53 190.635Z" fill="#F2F2F2"/>
<g opacity="0.99">
<path d="M74.2393 165.254C75.0586 166.572 76.2861 167.689 77.5513 168.566C80.5279 170.612 84.1249 171.256 87.6797 170.814C88.3297 170.733 88.1409 169.74 87.4997 169.813C84.1753 170.227 80.8043 169.603 78.0387 167.657C77.2263 167.089 76.4872 166.43 75.8373 165.68C75.6526 165.469 75.4693 165.241 75.3022 165.014C75.2514 164.945 75.0429 164.633 75.1652 164.815C74.8233 164.264 73.9062 164.696 74.2481 165.247L74.2393 165.254Z" fill="#DAB7B7"/>
</g>
<g opacity="0.99">
<path d="M71.7508 172.219C72.7206 173.583 74.1757 174.705 75.5796 175.577C79.0209 177.705 83.0342 178.426 87.0362 178.081C87.7252 178.019 87.5341 176.961 86.8458 177.014C83.0492 177.337 79.1827 176.612 75.9573 174.529C74.7179 173.727 73.4547 172.736 72.5858 171.52C72.18 170.955 71.3538 171.647 71.7596 172.212L71.7508 172.219Z" fill="#DAB7B7"/>
</g>
<path d="M200.948 194.905C196.627 199.972 189.396 201.09 184.241 197.856C179.904 195.14 177.675 189.725 178.769 184.359C172.462 185.429 166.407 182.835 163.918 178.279C160.53 172.077 163.764 162.285 172.665 158.621" fill="#6E92FF"/>
<path d="M136.186 128.603C133.079 135.085 125.31 137.828 118.829 134.721C112.347 131.615 109.604 123.846 112.711 117.364" stroke="#3D3A39" stroke-width="0.667595" stroke-miterlimit="10"/>
<path d="M112.706 117.364C115.812 110.883 123.581 108.14 130.063 111.246C136.544 114.353 139.287 122.122 136.18 128.603" stroke="#3D3A39" stroke-width="0.667595" stroke-miterlimit="10"/>
<path d="M152.692 149.521C159.879 149.521 165.706 143.694 165.706 136.507C165.706 129.32 159.879 123.494 152.692 123.494C145.505 123.494 139.678 129.32 139.678 136.507C139.678 143.694 145.505 149.521 152.692 149.521Z" stroke="#3D3A39" stroke-width="0.667595" stroke-miterlimit="10"/>
<path d="M136.186 128.603L140.949 130.887" stroke="#3D3A39" stroke-width="0.667595" stroke-miterlimit="10"/>
<path d="M104.6 321.882C104.019 323.243 103.239 324.414 102.268 325.401C101.272 326.388 100.102 327.168 98.7726 327.749C97.4352 328.323 95.9942 328.601 94.4418 328.601C93.8447 328.601 93.2237 328.553 92.5789 328.466C92.3082 328.426 92.0933 328.299 91.9261 328.084C91.7669 327.869 91.6873 327.63 91.6873 327.351V324.398C91.6873 323.88 91.7589 323.442 91.8942 323.092C92.0296 322.742 92.1729 322.591 92.3321 322.646C92.4913 322.734 92.7142 322.821 93.0088 322.901C93.5024 323.028 93.9801 323.092 94.4498 323.092C95.1981 323.092 95.9305 322.933 96.6231 322.622C97.2839 322.352 97.8651 321.962 98.3746 321.46C98.8841 320.959 99.2742 320.369 99.5608 319.709C99.8474 319.048 99.9907 318.339 99.9907 317.567V302.17C99.9907 301.836 100.102 301.557 100.333 301.334C100.564 301.111 100.835 301 101.161 301H104.33C104.664 301 104.943 301.111 105.165 301.334C105.388 301.557 105.5 301.836 105.5 302.17V317.567C105.5 319.096 105.205 320.529 104.624 321.866L104.6 321.882Z" fill="#616161"/>
<path d="M108.517 308.515C108.748 308.292 109.019 308.181 109.345 308.181H112.283C112.617 308.181 112.896 308.292 113.118 308.515C113.341 308.738 113.453 309.017 113.453 309.351V320.154C113.453 320.736 113.548 321.253 113.747 321.691C113.954 322.161 114.241 322.583 114.599 322.957C114.95 323.307 115.364 323.586 115.841 323.793C116.319 324 116.82 324.103 117.338 324.103H117.728C118.245 324.103 118.755 324 119.241 323.793C119.718 323.586 120.132 323.307 120.483 322.957C120.857 322.583 121.143 322.161 121.334 321.691C121.525 321.253 121.629 320.736 121.629 320.154V309.351C121.629 309.017 121.74 308.738 121.971 308.515C122.202 308.292 122.473 308.181 122.799 308.181H125.713C126.047 308.181 126.334 308.292 126.557 308.515C126.788 308.738 126.899 309.017 126.899 309.351V319.772C126.899 321.014 126.66 322.216 126.183 323.371C125.681 324.525 125.02 325.512 124.2 326.324C123.38 327.136 122.393 327.813 121.263 328.307C120.188 328.776 119.01 329.007 117.728 329.007H117.378C116.096 329.007 114.91 328.776 113.819 328.307C112.689 327.813 111.709 327.152 110.881 326.324C110.061 325.504 109.401 324.525 108.899 323.371C108.421 322.216 108.183 321.022 108.183 319.772V309.351C108.183 309.017 108.294 308.738 108.525 308.515H108.517Z" fill="#616161"/>
<path d="M136.803 305.283C136.62 305.618 136.413 305.92 136.182 306.175C135.919 306.461 135.617 306.676 135.267 306.82C134.916 306.963 134.534 307.035 134.12 307.035C133.706 307.035 133.332 306.963 133.014 306.82C132.663 306.66 132.353 306.453 132.082 306.175C131.811 305.896 131.604 305.602 131.461 305.283C131.302 304.949 131.23 304.575 131.23 304.153C131.23 303.731 131.31 303.372 131.461 303.022C131.604 302.712 131.811 302.409 132.082 302.107C132.353 301.82 132.663 301.613 133.014 301.486C133.348 301.358 133.722 301.287 134.12 301.271C134.534 301.255 134.916 301.326 135.267 301.486C135.601 301.629 135.911 301.836 136.182 302.107C136.445 302.369 136.652 302.672 136.803 303.022C136.97 303.412 137.058 303.786 137.058 304.153C137.058 304.567 136.97 304.941 136.803 305.283Z" fill="#3F6EFF"/>
<path d="M131.795 328.275C131.573 328.052 131.453 327.773 131.453 327.439V309.359C131.453 309.025 131.565 308.746 131.795 308.523C132.026 308.3 132.305 308.189 132.639 308.189H135.593C135.927 308.189 136.206 308.3 136.429 308.523C136.652 308.746 136.763 309.025 136.763 309.359V327.439C136.763 327.773 136.652 328.052 136.429 328.275C136.206 328.498 135.927 328.609 135.593 328.609H132.639C132.305 328.609 132.018 328.498 131.795 328.275Z" fill="#616161"/>
<path d="M147.025 327.893C145.863 327.375 144.883 326.714 144.111 325.91C143.267 325.082 142.606 324.111 142.129 322.997C141.635 321.866 141.388 320.672 141.388 319.398V302.218C141.388 301.884 141.5 301.605 141.723 301.382C141.946 301.159 142.224 301.048 142.559 301.048H145.457C145.791 301.048 146.07 301.159 146.292 301.382C146.515 301.605 146.627 301.884 146.627 302.218V306.883C146.627 307.218 146.738 307.496 146.961 307.719C147.184 307.942 147.463 308.054 147.797 308.054H153.434C153.768 308.054 154.055 308.165 154.277 308.396C154.5 308.627 154.62 308.905 154.62 309.24V312.138C154.62 312.464 154.508 312.735 154.277 312.966C154.047 313.197 153.768 313.308 153.434 313.308H147.797C147.463 313.308 147.184 313.419 146.961 313.642C146.738 313.865 146.627 314.144 146.627 314.478V319.414C146.627 319.956 146.73 320.473 146.937 320.967C147.16 321.468 147.439 321.89 147.789 322.232C148.116 322.559 148.538 322.845 149.055 323.084C149.533 323.291 150.05 323.395 150.607 323.395H153.426C153.76 323.395 154.047 323.506 154.27 323.729C154.492 323.952 154.612 324.231 154.612 324.581V327.455C154.612 327.789 154.5 328.068 154.27 328.291C154.039 328.514 153.76 328.625 153.426 328.625H150.607C149.35 328.625 148.155 328.386 147.033 327.909L147.025 327.893Z" fill="#616161"/>
<path d="M173.4 315.242C173.193 315.37 173.002 315.426 172.835 315.426C172.668 315.426 172.548 315.354 172.485 315.211C172.381 315.043 172.222 314.813 172.015 314.51C171.689 314.096 171.322 313.73 170.908 313.419C170.471 313.133 170.009 312.918 169.531 312.759C169.077 312.599 168.576 312.528 168.034 312.528C167.35 312.528 166.673 312.679 166.012 312.974C165.415 313.244 164.866 313.65 164.356 314.2C163.903 314.717 163.528 315.354 163.226 316.102C162.963 316.843 162.836 317.655 162.836 318.53C162.836 319.215 162.963 319.892 163.226 320.553C163.513 321.189 163.887 321.739 164.356 322.208C164.826 322.702 165.375 323.076 166.012 323.339C166.657 323.602 167.334 323.729 168.034 323.729C168.536 323.729 169.03 323.657 169.515 323.514C169.985 323.387 170.439 323.18 170.877 322.909C171.314 322.614 171.689 322.288 171.983 321.938C172.437 321.707 172.859 321.587 173.249 321.587C173.536 321.587 173.751 321.667 173.91 321.818L175.932 323.856C176.163 324.087 176.282 324.358 176.282 324.676C176.282 324.907 176.195 325.13 176.011 325.337C175.709 325.711 175.359 326.078 174.945 326.428C174.364 326.929 173.671 327.399 172.883 327.829C172.158 328.219 171.386 328.514 170.566 328.721C169.762 328.904 168.918 328.991 168.042 328.991C166.578 328.991 165.216 328.721 163.958 328.171C162.716 327.638 161.602 326.906 160.615 325.958C159.667 325.027 158.911 323.912 158.338 322.614C157.796 321.373 157.518 320.011 157.518 318.53C157.518 316.922 157.788 315.449 158.338 314.096C158.911 312.711 159.667 311.509 160.615 310.498C161.546 309.487 162.661 308.683 163.958 308.085C165.24 307.504 166.601 307.21 168.042 307.21C168.87 307.21 169.714 307.321 170.566 307.544C171.346 307.727 172.142 308.038 172.954 308.476C173.639 308.866 174.332 309.383 175.032 310.028C175.462 310.442 175.844 310.88 176.179 311.35C176.306 311.533 176.37 311.732 176.37 311.955C176.37 312.241 176.25 312.496 176.019 312.735L174.037 314.717C173.814 314.94 173.599 315.107 173.392 315.235L173.4 315.242Z" fill="#616161"/>
<path d="M179.626 308.316C179.857 308.093 180.127 307.982 180.454 307.982H183.391C183.726 307.982 184.004 308.093 184.227 308.316C184.45 308.539 184.562 308.818 184.562 309.152V320.154C184.562 320.736 184.657 321.253 184.856 321.691C185.063 322.161 185.35 322.583 185.708 322.957C186.058 323.307 186.472 323.586 186.95 323.793C187.428 324 187.929 324.103 188.447 324.103H188.837C189.354 324.103 189.864 324 190.349 323.793C190.827 323.586 191.241 323.307 191.591 322.957C191.965 322.583 192.252 322.161 192.443 321.691C192.602 321.301 192.69 320.927 192.714 320.56V310.609C192.714 310.506 192.714 310.434 192.73 310.394V309.152C192.73 308.818 192.841 308.539 193.072 308.316C193.303 308.093 193.574 307.982 193.9 307.982H196.814C197.148 307.982 197.435 308.093 197.658 308.316C197.889 308.539 198 308.818 198 309.152L197.96 327.399C197.936 328.434 197.801 329.365 197.57 330.201C197.339 331.053 196.989 331.897 196.519 332.725C196.042 333.505 195.484 334.206 194.847 334.843C194.171 335.519 193.47 336.053 192.73 336.459C191.95 336.929 191.114 337.279 190.222 337.526C189.338 337.772 188.415 337.892 187.444 337.892H186.027C185.692 337.892 185.406 337.78 185.183 337.557C184.96 337.335 184.84 337.056 184.84 336.722V333.784C184.84 333.45 184.952 333.163 185.183 332.94C185.414 332.717 185.692 332.598 186.027 332.598L187.754 332.614C188.494 332.614 189.147 332.478 189.72 332.208C190.318 331.921 190.843 331.531 191.297 331.045C191.751 330.568 192.093 330.01 192.324 329.373C192.507 328.936 192.618 328.522 192.674 328.147L192.364 328.283C191.289 328.752 190.111 328.983 188.829 328.983H188.479C187.197 328.983 186.011 328.752 184.92 328.283C183.789 327.789 182.81 327.128 181.982 326.3C181.162 325.48 180.501 324.501 180 323.347C179.522 322.193 179.283 320.998 179.283 319.748V309.136C179.283 308.802 179.395 308.523 179.626 308.3V308.316Z" fill="#616161"/>
<path d="M89.6015 318.443C90.2622 317.392 90.7877 316.246 91.13 315.012C92.5073 310.084 89.6572 304.344 84.9283 302.385C79.8172 300.26 73.1777 302.561 70.8291 308.197C68.6 313.555 71.0202 319.669 76.2348 322.097L73.528 328.609C76.0994 328.219 78.0817 327.511 79.3714 326.961C81.2503 326.165 86.2498 323.793 89.5935 318.443H89.6015Z" fill="#3F6EFF"/>
</svg>
