<svg width="207" height="311" viewBox="0 0 207 311" fill="none" xmlns="http://www.w3.org/2000/svg">
<path d="M117.46 106.305C131.001 110.706 144.543 115.115 158.084 119.516C160.78 110.793 167.572 105.244 174.13 105.566C177.209 105.722 180.896 107.21 183.21 110.41C186.297 114.706 186.167 121.038 182.679 126.247C179.914 131.483 177.139 136.727 174.374 141.963C172.365 145.764 167.946 147.633 163.841 146.424L90.4993 124.934L117.469 106.279V106.296L117.46 106.305Z" fill="#F2F2F2"/>
<path d="M80.4364 149.564C80.245 163.801 80.0711 178.038 79.8884 192.284C70.7565 192.032 63.3206 196.685 61.529 202.99C60.6941 205.956 60.9028 209.922 63.1988 213.148C66.2776 217.453 72.3133 219.367 78.3578 217.74C84.2022 216.801 90.064 215.862 95.9084 214.923C100.161 214.244 103.344 210.661 103.527 206.382L106.754 130.022L80.419 149.564H80.4364Z" fill="#F2F2F2"/>
<path opacity="0.99" d="M67.0249 157.079C103.549 157.079 133.157 127.47 133.157 90.9463C133.157 54.4224 103.549 24.814 67.0249 24.814C30.501 24.814 0.892578 54.4224 0.892578 90.9463C0.892578 127.47 30.501 157.079 67.0249 157.079Z" fill="#FF8F6B"/>
<path opacity="0.99" d="M30.1755 55.2794C30.1755 55.2794 -0.638163 36.4677 29.7319 0.192383C30.5755 0.740296 45.3605 10.681 44.9083 28.71C44.4908 45.3735 31.4278 54.4445 30.1755 55.2794Z" fill="#42CA89"/>
<path opacity="0.99" d="M30.6107 30.0059C30.6107 30.0059 25.8186 35.7807 30.1758 55.2795" stroke="#006934" stroke-width="0.583896" stroke-miterlimit="10"/>
<g opacity="0.99">
<path d="M53.2228 139.311C62.3634 139.311 69.7733 131.901 69.7733 122.76C69.7733 113.62 62.3634 106.21 53.2228 106.21C44.0823 106.21 36.6724 113.62 36.6724 122.76C36.6724 131.901 44.0823 139.311 53.2228 139.311Z" fill="#FF7364" stroke="#FF8F6B" stroke-width="0.776239" stroke-miterlimit="10"/>
<path d="M97.4826 90.9112C106.623 90.9112 114.033 83.5013 114.033 74.3608C114.033 65.2202 106.623 57.8103 97.4826 57.8103C88.342 57.8103 80.9321 65.2202 80.9321 74.3608C80.9321 83.5013 88.342 90.9112 97.4826 90.9112Z" fill="#FF7364" stroke="#FF8F6B" stroke-width="0.776239" stroke-miterlimit="10"/>
</g>
<path d="M66.8177 107.901C70.7883 103.558 68.5272 95.0273 61.7674 88.8461C55.0077 82.665 46.309 81.1742 42.3384 85.5165C38.3677 89.8588 40.6288 98.3897 47.3886 104.571C54.1484 110.752 62.8471 112.243 66.8177 107.901Z" fill="white"/>
<path d="M64.3193 97.7301C66.2965 95.5678 65.2959 91.4343 62.0844 88.4977C58.8729 85.561 54.6666 84.9333 52.6894 87.0956C50.7122 89.2579 51.7128 93.3914 54.9243 96.328C58.1359 99.2646 62.3421 99.8923 64.3193 97.7301Z" fill="#221714"/>
<path d="M59.5258 88.7418C59.9342 88.2951 59.7251 87.4391 59.0587 86.8297C58.3923 86.2203 57.5209 86.0884 57.1125 86.535C56.7041 86.9817 56.9133 87.8377 57.5797 88.4471C58.2461 89.0565 59.1174 89.1884 59.5258 88.7418Z" fill="white"/>
<path d="M82.4258 90.8217C86.3964 86.4794 84.1354 77.9485 77.3756 71.7673C70.6158 65.5861 61.9171 64.0954 57.9465 68.4377C53.9759 72.7799 56.237 81.3109 62.9967 87.4921C69.7565 93.6733 78.4552 95.164 82.4258 90.8217Z" fill="white"/>
<path d="M79.9356 80.6427C81.9128 78.4804 80.9121 74.3469 77.7006 71.4103C74.4891 68.4736 70.2828 67.8459 68.3056 70.0082C66.3284 72.1705 67.329 76.304 70.5406 79.2406C73.7521 82.1772 77.9584 82.8049 79.9356 80.6427Z" fill="#221714"/>
<path d="M71.8267 72.1519C72.6529 72.1519 73.3226 71.4822 73.3226 70.656C73.3226 69.8299 72.6529 69.1602 71.8267 69.1602C71.0005 69.1602 70.3308 69.8299 70.3308 70.656C70.3308 71.4822 71.0005 72.1519 71.8267 72.1519Z" fill="white"/>
<path d="M84.506 106.931C87.863 103.261 92.2029 101.365 95.8382 101.6C95.1511 100.043 94.1423 98.5992 92.8116 97.3729C87.6543 92.6591 79.6443 93.0157 74.9305 98.173C70.2167 103.33 70.5733 111.34 75.7307 116.054C77.07 117.28 78.592 118.15 80.2096 118.698C79.653 115.097 81.1576 110.601 84.5147 106.931H84.506Z" fill="#221714"/>
<path d="M93.6121 115.263C97.1083 111.445 97.8127 106.061 95.8472 101.608C92.2119 101.374 87.872 103.269 84.515 106.94C81.1579 110.61 79.6533 115.106 80.2099 118.707C84.8194 120.263 90.1159 119.089 93.6121 115.263Z" fill="#E17766"/>
<path d="M71.8782 104.218C74.3742 104.575 77.0007 103.74 78.8271 101.739C80.6535 99.7391 81.2623 97.0517 80.6796 94.5991C78.5401 95.234 76.5485 96.4168 74.9308 98.1823C73.3132 99.9478 72.313 102.044 71.8782 104.227V104.218Z" fill="white"/>
<path d="M68.6768 113.263L59.2138 136.188C58.2202 138.595 59.366 141.352 61.773 142.346L76.743 148.525C79.15 149.519 81.9066 148.373 82.9001 145.966L92.3632 123.041C93.3568 120.634 92.211 117.877 89.804 116.884L74.834 110.704C72.427 109.711 69.6704 110.856 68.6768 113.263Z" fill="#F7DFBC"/>
<g opacity="0.99">
<path d="M71.1667 112.837C71.9063 118.334 72.6459 123.822 73.3854 129.319L73.8645 128.133C69.4606 131.504 65.0651 134.874 60.6612 138.252C59.6022 139.068 60.6444 140.891 61.7201 140.068C66.124 136.698 70.5195 133.327 74.9234 129.949C75.3437 129.629 75.4781 129.285 75.4025 128.764C74.6629 123.267 73.9233 117.779 73.1837 112.283C73.0072 110.947 70.9818 111.518 71.1583 112.837H71.1667Z" fill="#DAB7B7"/>
</g>
<path d="M53.0846 147.815C54.0847 151.381 55.3545 155.147 56.9548 159.034C57.3983 160.113 57.5984 160.957 58.5724 161.487C58.7116 161.557 69.1045 132.03 74.8533 131.813C78.2016 131.691 80.5846 135.109 81.4717 138.336C82.7676 143.023 82.3414 148.05 81.0543 152.747C78.9757 160.33 75.1664 167.671 70.9135 174.254C67.1477 180.073 62.1208 185.152 54.824 184.421C47.5272 183.691 41.5262 178.551 37.7952 172.384C31.6464 162.235 28.4546 147.998 27.9675 136.222" fill="#FF8F6B"/>
<path d="M53.0846 147.815C54.0847 151.381 55.3545 155.147 56.9548 159.034C57.3983 160.113 57.5984 160.957 58.5724 161.487C58.7116 161.557 69.1045 132.03 74.8533 131.813C78.2016 131.691 80.5846 135.109 81.4717 138.336C82.7676 143.023 82.3414 148.05 81.0543 152.747C78.9757 160.33 75.1664 167.671 70.9135 174.254C67.1477 180.073 62.1208 185.152 54.824 184.421C47.5272 183.691 41.5262 178.551 37.7952 172.384C31.6464 162.235 28.4546 147.998 27.9675 136.222" stroke="white" stroke-width="0.480856" stroke-miterlimit="10"/>
<path d="M76.6191 140.319C76.6191 140.319 80.6894 137.788 77.5671 132.813L76.6191 140.319Z" fill="#FF8F6B"/>
<path d="M76.8976 140.789C78.5762 139.736 79.4981 137.64 79.2458 135.701C79.098 134.561 78.6371 133.5 78.037 132.535C77.6717 131.944 76.7324 132.483 77.0977 133.083C78.0457 134.622 78.6458 136.527 77.7674 138.214C77.4977 138.727 77.2368 139.075 76.8194 139.467C76.7411 139.536 76.6715 139.606 76.5933 139.667C76.5672 139.684 76.5411 139.71 76.515 139.727C76.4019 139.823 76.5846 139.675 76.515 139.727C76.4628 139.771 76.4019 139.806 76.3497 139.841C75.7583 140.215 76.3062 141.154 76.8976 140.78V140.789Z" fill="white"/>
<path d="M72.6953 139.154C72.6953 139.154 75.4001 137.284 74.6348 132.257L72.6953 139.154Z" fill="#FF8F6B"/>
<path d="M72.974 139.623C74.3655 138.649 75.0352 136.788 75.2439 135.179C75.3743 134.153 75.3135 133.135 75.1656 132.118C75.1221 131.831 74.7569 131.665 74.4959 131.735C74.1828 131.822 74.0698 132.109 74.1133 132.405C74.3568 134.057 74.2611 135.866 73.4697 137.344C73.3479 137.579 73.2001 137.805 73.0435 138.023C73.0261 138.049 73.0087 138.075 72.9914 138.101C73.0348 138.049 73.0348 138.049 72.9914 138.101C72.9653 138.136 72.9392 138.162 72.9131 138.197C72.8522 138.275 72.7826 138.345 72.713 138.414C72.6261 138.51 72.5217 138.597 72.426 138.684C72.2869 138.806 72.4956 138.632 72.4173 138.692C71.8433 139.093 72.3913 140.032 72.9653 139.632L72.974 139.623Z" fill="white"/>
<path d="M165.065 116.88H153.463V218.109H165.065V116.88Z" fill="#6F92FF"/>
<path d="M103.548 115.681C110.46 116.608 117.372 117.543 124.283 118.47C125.578 118.646 126.88 118.822 128.174 118.989C154.119 118.454 180.056 117.927 206 117.391V89.4812C205.888 87.9231 205.257 81.8424 200.295 77.0882C193.463 70.5361 184.402 72.262 183.507 72.4458C172.633 72.3579 161.614 72.3579 150.451 72.4458C137.196 72.5497 124.139 72.7814 111.291 73.1329C110.084 73.3007 108.39 73.7242 106.848 74.9228C102.981 77.9271 102.829 83.6642 102.781 88.0589C102.701 95.0344 102.821 104.367 103.556 115.681H103.548Z" fill="#FBFBFD" stroke="#6F92FF" stroke-width="0.637428" stroke-miterlimit="10"/>
<g opacity="0.99">
<path d="M107.192 75.0661C112.929 71.9179 120.967 73.2922 124.475 79.1092C126.337 82.1935 126.904 85.8131 126.856 89.3528C126.792 93.9632 127.072 98.6056 127.176 103.208C127.296 108.514 127.423 113.827 127.543 119.133C127.543 119.468 128.71 119.253 128.702 118.821C128.582 113.707 128.47 108.602 128.35 103.488C128.238 98.4858 127.927 93.4519 128.047 88.4499C128.135 84.8143 127.192 80.7952 125.018 77.8308C122.973 75.0501 119.745 73.4281 116.381 72.9167C113.017 72.4053 109.501 73.0925 106.497 74.7465C105.818 75.122 106.848 75.2499 107.208 75.0581L107.192 75.0661Z" fill="#6F92FF"/>
</g>
<path d="M128.167 118.989C125.801 121.778 123.38 124.574 120.895 127.387C115.59 133.387 110.308 139.125 105.067 144.59C104.06 145.852 98.93 152.013 91.7467 152.045C90.2525 152.045 87.5038 152.061 85.1706 150.103C84.7791 149.768 82.8374 148.066 82.4539 145.469C82.0704 142.848 83.6045 140.723 86.6888 136.592C92.282 129.089 95.1106 125.301 96.8685 123.248C98.8021 120.978 101.031 118.454 103.548 115.737C111.754 116.824 119.961 117.902 128.175 118.989H128.167Z" fill="#FBFBFD" stroke="#6F92FF" stroke-width="0.631117" stroke-miterlimit="10"/>
<path d="M128.852 65.3347C125.712 65.9434 122.781 67.1871 120.459 69.1092C119.129 70.205 117.894 71.6922 118.52 73.536C119.703 77.0148 130.722 75.3276 130.722 72.7706V83.955C130.722 83.955 131.757 94.7742 137.679 87.5643L139.741 82.9288C139.741 82.9288 137.166 90.1995 141.541 90.0517C144.794 89.9386 146.368 87.8774 146.437 84.3464C145.663 85.7118 145.976 87.5904 147.142 88.634C151.873 92.8434 153.273 83.7289 153.221 80.6675C153.038 68.7874 139.662 63.2648 128.852 65.3434V65.3347Z" fill="#FF8F6B" stroke="white" stroke-width="0.480856" stroke-miterlimit="10"/>
<path d="M89.7875 295.366C89.2199 296.696 88.4581 297.839 87.5097 298.802C86.5379 299.766 85.3951 300.528 84.0969 301.096C82.7908 301.656 81.3837 301.928 79.8678 301.928C79.2847 301.928 78.6784 301.881 78.0487 301.795C77.7843 301.757 77.5745 301.632 77.4112 301.422C77.2557 301.212 77.178 300.979 77.178 300.707V297.823C77.178 297.318 77.248 296.89 77.3801 296.548C77.5123 296.206 77.6522 296.058 77.8077 296.113C77.9632 296.198 78.1808 296.284 78.4685 296.361C78.9505 296.486 79.4169 296.548 79.8756 296.548C80.6063 296.548 81.3215 296.393 81.9979 296.089C82.6431 295.825 83.2106 295.444 83.7082 294.954C84.2057 294.465 84.5866 293.889 84.8665 293.244C85.1464 292.599 85.2863 291.907 85.2863 291.153V276.118C85.2863 275.791 85.3951 275.519 85.6206 275.302C85.846 275.084 86.1103 274.975 86.4291 274.975H89.5231C89.8496 274.975 90.1217 275.084 90.3394 275.302C90.5571 275.519 90.6659 275.791 90.6659 276.118V291.153C90.6659 292.645 90.3783 294.045 89.8108 295.351L89.7875 295.366Z" fill="#616161"/>
<path d="M93.6122 282.306C93.8376 282.089 94.1019 281.98 94.4206 281.98H97.2893C97.6158 281.98 97.8879 282.089 98.1055 282.306C98.3232 282.524 98.432 282.796 98.432 283.123V293.672C98.432 294.239 98.5253 294.745 98.7197 295.172C98.9218 295.631 99.2017 296.043 99.5515 296.408C99.8936 296.75 100.298 297.022 100.764 297.225C101.231 297.427 101.72 297.528 102.226 297.528H102.607C103.112 297.528 103.61 297.427 104.084 297.225C104.55 297.022 104.954 296.75 105.297 296.408C105.662 296.043 105.942 295.631 106.128 295.172C106.315 294.745 106.416 294.239 106.416 293.672V283.123C106.416 282.796 106.525 282.524 106.75 282.306C106.976 282.089 107.24 281.98 107.559 281.98H110.404C110.731 281.98 111.01 282.089 111.228 282.306C111.454 282.524 111.562 282.796 111.562 283.123V293.299C111.562 294.511 111.329 295.685 110.863 296.813C110.373 297.94 109.728 298.904 108.927 299.697C108.126 300.49 107.162 301.15 106.058 301.632C105.009 302.091 103.858 302.317 102.607 302.317H102.265C101.013 302.317 99.8547 302.091 98.7897 301.632C97.6858 301.15 96.7295 300.505 95.9211 299.697C95.1203 298.896 94.4751 297.94 93.9853 296.813C93.5189 295.685 93.2856 294.519 93.2856 293.299V283.123C93.2856 282.796 93.3945 282.524 93.6199 282.306H93.6122Z" fill="#616161"/>
<path d="M121.233 279.158C121.055 279.484 120.852 279.779 120.627 280.028C120.37 280.308 120.075 280.518 119.733 280.658C119.391 280.798 119.018 280.868 118.613 280.868C118.209 280.868 117.844 280.798 117.533 280.658C117.191 280.502 116.888 280.3 116.623 280.028C116.359 279.756 116.157 279.469 116.017 279.158C115.861 278.831 115.792 278.466 115.792 278.054C115.792 277.642 115.869 277.292 116.017 276.95C116.157 276.647 116.359 276.351 116.623 276.056C116.888 275.776 117.191 275.574 117.533 275.449C117.859 275.325 118.225 275.255 118.613 275.239C119.018 275.224 119.391 275.294 119.733 275.449C120.059 275.589 120.363 275.791 120.627 276.056C120.883 276.312 121.086 276.608 121.233 276.95C121.397 277.331 121.482 277.696 121.482 278.054C121.482 278.458 121.397 278.823 121.233 279.158Z" fill="#FF8267"/>
<path d="M116.343 301.609C116.126 301.392 116.009 301.119 116.009 300.793V283.138C116.009 282.812 116.118 282.54 116.343 282.322C116.569 282.104 116.841 281.995 117.167 281.995H120.052C120.378 281.995 120.65 282.104 120.868 282.322C121.085 282.54 121.194 282.812 121.194 283.138V300.793C121.194 301.119 121.085 301.392 120.868 301.609C120.65 301.827 120.378 301.936 120.052 301.936H117.167C116.841 301.936 116.561 301.827 116.343 301.609Z" fill="#616161"/>
<path d="M131.215 301.228C130.08 300.723 129.124 300.078 128.37 299.292C127.546 298.484 126.901 297.536 126.434 296.447C125.952 295.343 125.711 294.177 125.711 292.933V276.157C125.711 275.83 125.82 275.558 126.038 275.341C126.255 275.123 126.527 275.014 126.854 275.014H129.684C130.01 275.014 130.282 275.123 130.5 275.341C130.718 275.558 130.827 275.83 130.827 276.157V280.713C130.827 281.039 130.935 281.311 131.153 281.529C131.371 281.746 131.643 281.855 131.969 281.855H137.473C137.8 281.855 138.08 281.964 138.297 282.19C138.515 282.415 138.632 282.687 138.632 283.014V285.843C138.632 286.162 138.523 286.426 138.297 286.652C138.072 286.877 137.8 286.986 137.473 286.986H131.969C131.643 286.986 131.371 287.095 131.153 287.313C130.935 287.53 130.827 287.802 130.827 288.129V292.949C130.827 293.477 130.928 293.983 131.13 294.465C131.347 294.955 131.619 295.367 131.962 295.701C132.28 296.02 132.692 296.299 133.198 296.533C133.664 296.735 134.169 296.836 134.714 296.836H137.466C137.792 296.836 138.072 296.945 138.29 297.162C138.507 297.38 138.624 297.652 138.624 297.994V300.801C138.624 301.127 138.515 301.399 138.29 301.617C138.064 301.835 137.792 301.943 137.466 301.943H134.714C133.485 301.943 132.319 301.71 131.223 301.244L131.215 301.228Z" fill="#616161"/>
<path d="M156.97 288.883C156.768 289.007 156.582 289.062 156.418 289.062C156.255 289.062 156.139 288.992 156.076 288.852C155.975 288.688 155.82 288.463 155.618 288.168C155.299 287.763 154.941 287.406 154.537 287.103C154.11 286.823 153.659 286.613 153.192 286.457C152.749 286.302 152.259 286.232 151.731 286.232C151.062 286.232 150.401 286.38 149.756 286.667C149.173 286.932 148.637 287.328 148.139 287.864C147.696 288.37 147.331 288.992 147.035 289.722C146.779 290.445 146.654 291.238 146.654 292.093C146.654 292.762 146.779 293.423 147.035 294.068C147.315 294.69 147.68 295.226 148.139 295.685C148.598 296.167 149.134 296.532 149.756 296.789C150.386 297.046 151.047 297.17 151.731 297.17C152.22 297.17 152.702 297.1 153.177 296.96C153.635 296.836 154.078 296.634 154.506 296.369C154.934 296.082 155.299 295.763 155.587 295.421C156.03 295.195 156.442 295.079 156.823 295.079C157.103 295.079 157.312 295.156 157.468 295.304L159.443 297.294C159.668 297.52 159.785 297.784 159.785 298.095C159.785 298.32 159.699 298.538 159.52 298.74C159.225 299.106 158.883 299.463 158.479 299.805C157.911 300.295 157.235 300.754 156.465 301.174C155.758 301.554 155.004 301.842 154.203 302.044C153.418 302.223 152.594 302.309 151.738 302.309C150.308 302.309 148.979 302.044 147.75 301.508C146.538 300.987 145.449 300.272 144.485 299.347C143.56 298.437 142.822 297.349 142.262 296.082C141.733 294.869 141.461 293.539 141.461 292.093C141.461 290.523 141.725 289.085 142.262 287.763C142.822 286.411 143.56 285.237 144.485 284.249C145.395 283.262 146.483 282.477 147.75 281.894C149.002 281.326 150.331 281.039 151.738 281.039C152.547 281.039 153.371 281.148 154.203 281.365C154.965 281.544 155.742 281.847 156.535 282.275C157.204 282.656 157.88 283.161 158.564 283.791C158.984 284.195 159.357 284.623 159.684 285.081C159.808 285.26 159.87 285.454 159.87 285.672C159.87 285.952 159.753 286.201 159.528 286.434L157.592 288.37C157.375 288.587 157.165 288.751 156.963 288.875L156.97 288.883Z" fill="#616161"/>
<path d="M163.058 282.119C163.283 281.902 163.547 281.793 163.866 281.793H166.735C167.061 281.793 167.333 281.902 167.551 282.119C167.769 282.337 167.878 282.609 167.878 282.936V293.679C167.878 294.247 167.971 294.752 168.165 295.18C168.367 295.639 168.647 296.051 168.997 296.416C169.339 296.758 169.743 297.03 170.21 297.232C170.676 297.434 171.166 297.535 171.671 297.535H172.052C172.558 297.535 173.055 297.434 173.529 297.232C173.996 297.03 174.4 296.758 174.742 296.416C175.107 296.051 175.387 295.639 175.574 295.18C175.729 294.799 175.815 294.434 175.838 294.076V284.358C175.838 284.257 175.838 284.187 175.854 284.148V282.936C175.854 282.609 175.963 282.337 176.188 282.119C176.413 281.902 176.678 281.793 176.996 281.793H179.842C180.168 281.793 180.448 281.902 180.666 282.119C180.891 282.337 181 282.609 181 282.936L180.961 300.754C180.938 301.764 180.806 302.674 180.58 303.49C180.355 304.322 180.013 305.146 179.554 305.955C179.088 306.717 178.544 307.401 177.922 308.023C177.261 308.683 176.577 309.204 175.854 309.601C175.092 310.059 174.276 310.401 173.405 310.642C172.542 310.883 171.64 311 170.692 311H169.308C168.981 311 168.702 310.891 168.484 310.673C168.266 310.456 168.15 310.184 168.15 309.857V306.989C168.15 306.662 168.258 306.382 168.484 306.165C168.709 305.947 168.981 305.83 169.308 305.83L170.995 305.846C171.718 305.846 172.355 305.714 172.915 305.449C173.498 305.169 174.011 304.789 174.454 304.314C174.898 303.848 175.232 303.304 175.457 302.682C175.636 302.254 175.745 301.85 175.799 301.485L175.496 301.617C174.447 302.075 173.296 302.301 172.044 302.301H171.702C170.451 302.301 169.292 302.075 168.227 301.617C167.123 301.135 166.167 300.49 165.359 299.681C164.558 298.88 163.913 297.924 163.423 296.797C162.957 295.67 162.723 294.503 162.723 293.283V282.92C162.723 282.594 162.832 282.322 163.058 282.104V282.119Z" fill="#616161"/>
<path d="M75.1408 292.008C75.7861 290.982 76.2992 289.863 76.6334 288.658C77.9783 283.845 75.1952 278.24 70.5775 276.328C65.5865 274.252 59.103 276.499 56.8097 282.003C54.6329 287.235 56.9962 293.205 62.0882 295.576L59.4451 301.936C61.9561 301.555 63.8918 300.863 65.1512 300.326C66.9859 299.549 71.8679 297.232 75.133 292.008H75.1408Z" fill="#FF8267"/>
<path opacity="0.99" d="M66.4032 278.03C66.4032 278.03 64.9728 270.707 74.7447 270.28C74.7758 270.482 75.3278 274.128 72.5136 276.577C69.917 278.839 66.7064 278.108 66.4032 278.038V278.03Z" fill="#42CA89"/>
</svg>
