<svg width="283" height="341" viewBox="0 0 283 341" fill="none" xmlns="http://www.w3.org/2000/svg">
<g filter="url(#filter0_d_1468_24238)">
<rect x="10" y="10" width="261" height="319" rx="10" fill="#FDFBFB"/>
</g>
<g clip-path="url(#clip0_1468_24238)">
<path d="M138.558 68.1208C141.107 68.6406 152.374 71.2203 157.536 80.9195C164.036 93.1234 155.859 107.174 154.748 109.028C143.035 128.483 120.621 121.538 108.972 140.755C107.942 142.458 99.7397 156.453 106.183 169.139C113.192 182.952 131.794 183.854 132.773 183.891" stroke="#888888" stroke-width="1.20807" stroke-miterlimit="10"/>
<path d="M132.767 180.091V187.385C132.767 188.707 133.671 189.852 134.959 190.165C140.492 191.493 154.572 194.837 154.572 194.411V173.021L135.015 177.298C133.703 177.586 132.761 178.744 132.761 180.091H132.767Z" fill="#E4D5BE"/>
<path opacity="0.99" d="M181.307 228.693C181.307 228.693 163.961 226.608 165.6 235.474C165.6 235.474 166.303 243.927 187.424 237.34C187.424 237.34 196.561 235.28 191.192 223.753C190.4 221.724 189.666 219.382 189.125 216.752C187.65 209.564 188.278 203.321 189.125 199.044C185.408 198.907 181.69 198.769 177.972 198.631C177.256 203.071 176.772 209.376 177.972 216.752C178.744 221.498 180.032 225.518 181.307 228.693Z" fill="#F2F2F2" stroke="#888888" stroke-width="0.751235" stroke-miterlimit="10"/>
<g opacity="0.99">
<path d="M188.303 204.548C187.587 208.988 187.103 215.293 188.303 222.669C189.075 227.416 190.363 231.436 191.638 234.61C191.638 234.61 174.292 232.525 175.931 241.392C175.931 241.392 176.634 249.845 197.755 243.257C197.755 243.257 206.892 241.197 201.523 229.67C200.731 227.641 199.997 225.299 199.457 222.669C197.981 215.481 198.609 209.238 199.457 204.962" fill="#F2F2F2"/>
<path d="M188.303 204.548C187.587 208.988 187.103 215.293 188.303 222.669C189.075 227.416 190.363 231.436 191.638 234.61C191.638 234.61 174.292 232.525 175.931 241.392C175.931 241.392 176.634 249.845 197.755 243.257C197.755 243.257 206.892 241.197 201.523 229.67C200.731 227.641 199.997 225.299 199.457 222.669C197.981 215.481 198.609 209.238 199.457 204.962" stroke="#888888" stroke-width="0.751235" stroke-miterlimit="10"/>
</g>
<g opacity="0.99">
<path d="M176.634 185.538C171.422 187.917 164.79 188.8 159.621 185.839C155.401 183.422 151.319 176.421 145.623 179.521C143.883 180.466 143.205 182.839 143.544 184.643C144.015 187.185 146.024 189.314 147.877 190.979C156.594 198.844 168.702 203.465 179.316 196.252" fill="#FF8F6B"/>
<path d="M176.634 185.538C171.422 187.917 164.79 188.8 159.621 185.839C155.401 183.422 151.319 176.421 145.623 179.521C143.883 180.466 143.205 182.839 143.544 184.643C144.015 187.185 146.024 189.314 147.877 190.979C156.594 198.844 168.702 203.465 179.316 196.252" stroke="#888888" stroke-width="0.375618" stroke-miterlimit="10"/>
</g>
<path opacity="0.99" d="M227.943 177.825C229.023 156.861 213.522 139.028 193.32 137.994C173.119 136.96 155.867 153.115 154.787 174.079C153.708 195.042 169.209 212.875 189.41 213.91C209.611 214.944 226.863 198.788 227.943 177.825Z" fill="#FF8F6B"/>
<path opacity="0.99" d="M181.451 141.87C181.451 141.87 176.132 125.339 198.709 121.689C198.847 122.152 201.102 130.417 195.243 136.829C189.823 142.759 182.18 141.951 181.457 141.864L181.451 141.87Z" fill="#42CA89"/>
<path opacity="0.99" d="M190.218 132.797C190.218 132.797 186.645 133.385 182.073 141.851" stroke="#006934" stroke-width="0.83245" stroke-miterlimit="10"/>
<path d="M174.154 182.927C178.943 182.927 182.826 180.513 182.826 177.536C182.826 174.559 178.943 172.145 174.154 172.145C169.364 172.145 165.481 174.559 165.481 177.536C165.481 180.513 169.364 182.927 174.154 182.927Z" fill="#FF7364"/>
<path d="M155.005 180.523L168.552 181.474C168.552 181.474 169.745 194.405 160.318 196.058C160.318 196.058 155.809 188.851 155.005 180.516V180.523Z" fill="#221714"/>
<path d="M160.312 196.058C164.35 195.35 166.435 192.576 167.503 189.633C166.467 188.137 164.582 186.953 162.29 186.546C160.08 186.158 157.982 186.584 156.5 187.554C158.101 192.526 160.306 196.058 160.306 196.058H160.312Z" fill="#E17766"/>
<path d="M176.144 185.125C171.189 187.999 164.67 189.514 159.238 187.066C154.804 185.069 150.063 178.494 144.693 182.126C143.054 183.234 142.614 185.663 143.117 187.423C143.833 189.909 146.043 191.831 148.047 193.315C157.486 200.297 169.99 203.728 179.85 195.519" fill="#FF8F6B"/>
<path d="M176.144 185.125C171.189 187.999 164.67 189.514 159.238 187.066C154.804 185.069 150.063 178.494 144.693 182.126C143.054 183.234 142.614 185.663 143.117 187.423C143.833 189.909 146.043 191.831 148.047 193.315C157.486 200.297 169.99 203.728 179.85 195.519" stroke="#FDFBFB" stroke-width="0.527895" stroke-miterlimit="10"/>
<path opacity="0.99" d="M165.688 174.562C168.602 174.562 170.97 170.899 170.97 166.378C170.97 161.857 168.602 158.194 165.688 158.194C162.774 158.194 160.406 161.857 160.406 166.378C160.406 170.899 162.774 174.562 165.688 174.562Z" fill="#FDFBFB"/>
<path opacity="0.99" d="M163.088 170.266C164.539 170.266 165.719 168.525 165.719 166.378C165.719 164.23 164.539 162.489 163.088 162.489C161.637 162.489 160.456 164.23 160.456 166.378C160.456 168.525 161.637 170.266 163.088 170.266Z" fill="#221714"/>
<path opacity="0.99" d="M164.809 165.733C165.11 165.745 165.374 165.401 165.393 164.95C165.412 164.499 165.192 164.13 164.89 164.111C164.589 164.092 164.325 164.443 164.306 164.894C164.287 165.345 164.507 165.714 164.809 165.733Z" fill="#FDFBFB"/>
<path d="M153.693 155.082L150.546 146.71C151.369 145.426 151.846 143.899 151.846 142.264C151.846 137.693 148.128 133.987 143.544 133.987H131.002C126.418 133.987 122.7 137.693 122.7 142.264C122.7 146.835 126.418 150.542 131.002 150.542H143.544C144.9 150.542 146.182 150.217 147.318 149.641L153.693 155.088V155.082Z" fill="white" stroke="#888888" stroke-width="0.873057" stroke-miterlimit="10"/>
<path d="M104.431 97.018C104.45 102.96 104.462 108.902 104.481 114.845C106.924 114.801 111.691 115.602 113.28 117.531C114.398 118.89 114.485 120.649 113.688 122.202C112.256 125.001 106.258 125.915 103.357 125.903C100.688 125.89 96.5367 125.446 94.885 123.091C93.0009 120.418 94.5396 118.508 94.3826 115.577C94.2632 113.311 94.1439 111.094 94.0685 108.802C93.8487 102.121 93.6352 95.4338 93.4154 88.7527L104.431 97.018Z" fill="#F2F2F2"/>
<path d="M80.0763 97.018C80.0574 102.96 80.0449 108.902 80.026 114.845C77.583 114.801 72.8163 115.602 71.2275 117.531C70.1096 118.89 70.0217 120.649 70.8192 122.202C72.2511 125.001 78.2487 125.915 81.1502 125.903C83.8192 125.89 87.9705 125.446 89.6221 123.091C91.5062 120.418 89.9676 118.508 90.1246 115.577C90.2439 113.311 90.3632 111.094 90.4386 108.802C90.6584 102.121 90.8719 95.4338 91.0917 88.7527L80.0763 97.018Z" fill="#F2F2F2"/>
<path opacity="0.99" d="M129.206 66.8434C128.955 55.5976 119.88 46.5496 108.701 46.5496C106.635 46.5496 104.638 46.8627 102.754 47.4388C98.986 42.8929 93.3401 40 87.0222 40C77.2879 40 69.1425 46.8627 67.0449 56.0735C66.8628 56.0735 66.6932 56.061 66.5111 56.061C55.1879 56.0547 46 65.3532 46 76.8181C46 88.2831 55.1879 97.5816 66.5111 97.5816H120.747C121.337 97.6504 121.928 97.688 122.537 97.688C131.354 97.688 138.501 90.4496 138.501 81.5269C138.501 75.0085 134.689 69.3982 129.2 66.8434H129.206Z" fill="#6F92FF"/>
<path opacity="0.99" d="M74.5121 79.5793C77.2377 79.5793 79.4546 77.4003 79.4546 74.7078C79.4546 72.0153 77.244 69.8425 74.5121 69.8425C71.7802 69.8425 69.5696 72.0216 69.5696 74.7078C69.5696 77.394 71.7802 79.5793 74.5121 79.5793Z" fill="#ED7B69"/>
<path opacity="0.99" d="M103.847 79.5793C106.572 79.5793 108.789 77.4003 108.789 74.714C108.789 72.0278 106.579 69.8425 103.847 69.8425C101.115 69.8425 98.9043 72.0216 98.9043 74.714C98.9043 77.4065 101.115 79.5793 103.847 79.5793Z" fill="#ED7B69"/>
<path opacity="0.99" d="M96.1347 75.0961C99.6265 75.0961 102.459 71.9528 102.459 68.0769C102.459 64.2009 99.6265 61.0576 96.1347 61.0576C92.6429 61.0576 89.8105 64.2009 89.8105 68.0769C89.8105 71.9528 92.6429 75.0961 96.1347 75.0961Z" fill="#FDFBFB"/>
<path opacity="0.99" d="M99.3125 71.4144C101.052 71.4144 102.459 69.9241 102.459 68.0769C102.459 66.2298 101.052 64.7395 99.3125 64.7395C97.5729 64.7395 96.1661 66.2298 96.1661 68.0769C96.1661 69.9241 97.5729 71.4144 99.3125 71.4144Z" fill="#221714"/>
<path opacity="0.99" d="M81.3763 75.0961C84.8681 75.0961 87.7004 71.9528 87.7004 68.0769C87.7004 64.2009 84.8681 61.0576 81.3763 61.0576C77.8845 61.0576 75.0521 64.2009 75.0521 68.0769C75.0521 71.9528 77.8845 75.0961 81.3763 75.0961Z" fill="#FDFBFB"/>
<path opacity="0.99" d="M84.5541 71.4144C86.2937 71.4144 87.7005 69.9241 87.7005 68.0769C87.7005 66.2298 86.2937 64.7395 84.5541 64.7395C82.8145 64.7395 81.4077 66.2298 81.4077 68.0769C81.4077 69.9241 82.8145 71.4144 84.5541 71.4144Z" fill="#221714"/>
<path opacity="0.99" d="M78.9647 78.2833C81.7092 80.8944 85.3391 82.4848 89.17 82.5162C93.0009 82.5412 96.6372 80.9695 99.3125 78.2833C99.5072 78.0829 99.2058 77.7824 99.0048 77.9765C96.4111 80.5813 92.8942 82.1091 89.17 82.0841C85.4522 82.0591 81.929 80.5062 79.2724 77.9765C79.0715 77.7824 78.7638 78.0892 78.9647 78.2833Z" fill="#616161"/>
<path opacity="0.99" d="M86.4821 69.3481C86.4821 73.4307 83.1222 76.7306 78.9898 76.7306C74.8575 76.7306 71.4976 73.4244 71.4976 69.3481" stroke="#616161" stroke-width="0.558351" stroke-miterlimit="10"/>
<path opacity="0.99" d="M71.4912 69.348C71.4912 65.2654 74.8511 61.9656 78.9835 61.9656C83.1159 61.9656 86.4758 65.2717 86.4758 69.348" stroke="#616161" stroke-width="0.558351" stroke-miterlimit="10"/>
<path opacity="0.99" d="M97.0203 76.7304C101.159 76.7304 104.513 73.4243 104.513 69.348C104.513 65.2717 101.159 61.9656 97.0203 61.9656C92.8817 61.9656 89.5281 65.2717 89.5281 69.348C89.5281 73.4243 92.8817 76.7304 97.0203 76.7304Z" stroke="#616161" stroke-width="0.558351" stroke-miterlimit="10"/>
<path opacity="0.99" d="M86.4821 69.3481H89.5217" stroke="#616161" stroke-width="0.558351" stroke-miterlimit="10"/>
<path d="M118.442 69.0349C121.029 68.0957 123.868 69.1476 125.068 71.3329C126.079 73.1738 125.784 75.547 124.301 77.2439C126.795 78.1267 128.453 80.2682 128.428 82.3909C128.39 85.2837 125.231 88.1202 121.281 87.6381" fill="#6E92FF"/>
<path d="M136.994 70.2623L138.143 65.1153C138.35 64.1823 137.892 63.2368 137.019 62.8172C133.295 61.0327 123.793 56.5118 123.73 56.8124C123.648 57.1881 120.351 71.9091 120.351 71.9091L134.946 71.8903C135.926 71.8903 136.78 71.214 136.987 70.2685L136.994 70.2623Z" fill="#E4D5BE"/>
<g opacity="0.99">
<path d="M127.586 75.2965C129.414 75.1775 131.36 74.9458 133.402 74.5701C133.967 74.4637 134.4 74.4574 134.752 74.0442C134.796 73.9878 121.57 66.0669 122.047 63.2993C122.323 61.6901 124.22 60.8886 125.872 60.7884C128.271 60.6381 130.657 61.3457 132.799 62.4289C136.259 64.1822 139.424 66.7369 142.175 69.4231C144.386 71.5834 146.332 74.9083 145.459 78.1267C144.712 80.8881 142.03 82.3157 140.046 83.3677C134.658 86.2355 129.074 85.7659 126.104 85.2524" fill="#F2F2F2"/>
<path d="M127.586 75.2965C129.414 75.1775 131.36 74.9458 133.402 74.5701C133.967 74.4637 134.4 74.4574 134.752 74.0442C134.796 73.9878 121.57 66.0669 122.047 63.2993C122.323 61.6901 124.22 60.8886 125.872 60.7884C128.271 60.6381 130.657 61.3457 132.799 62.4289C136.259 64.1822 139.424 66.7369 142.175 69.4231C144.386 71.5834 146.332 74.9083 145.459 78.1267C144.712 80.8881 142.03 82.3157 140.046 83.3677C134.658 86.2355 129.074 85.7659 126.104 85.2524" stroke="#888888" stroke-width="0.558351" stroke-miterlimit="10"/>
</g>
<g opacity="0.99">
<path d="M126.6 63.2306C126.255 62.2976 125.325 61.6589 124.345 61.5838C123.799 61.54 123.246 61.6589 122.731 61.8468C122.411 61.9595 122.549 62.4792 122.876 62.3602C123.573 62.1098 124.383 61.9783 125.061 62.3101C125.476 62.5105 125.771 62.8173 125.985 63.1805C126.016 63.2369 126.047 63.2995 126.079 63.3621C126.123 63.4498 126.066 63.3183 126.085 63.3746C126.204 63.694 126.719 63.5562 126.6 63.2306Z" fill="#888888"/>
</g>
<g opacity="0.99">
<path d="M125.614 64.9273C125.526 64.7144 125.363 64.5266 125.206 64.3575C124.804 63.9317 124.276 63.6312 123.717 63.4433C123.24 63.2805 122.744 63.2054 122.242 63.1741C121.896 63.1553 121.896 63.6875 122.242 63.7063C122.951 63.7501 123.661 63.9067 124.27 64.2824C124.477 64.4139 124.609 64.514 124.785 64.6894C124.848 64.752 124.904 64.8146 124.961 64.8835C124.999 64.9336 124.942 64.8522 124.961 64.8897C124.967 64.9023 124.98 64.9148 124.992 64.9273C125.011 64.9524 125.03 64.9837 125.049 65.0087C125.087 65.0651 125.124 65.1214 125.149 65.184C125.206 65.3155 125.401 65.3468 125.514 65.278C125.652 65.1966 125.664 65.0463 125.608 64.9148L125.614 64.9273Z" fill="#888888"/>
</g>
<path opacity="0.99" d="M120.973 72.291C123.56 71.3518 126.399 72.4037 127.599 74.589C128.61 76.4299 128.314 78.8031 126.832 80.5C129.326 81.3828 130.984 83.5243 130.958 85.647C130.921 88.5398 127.762 91.3763 123.812 90.8942" fill="#6F92FF"/>
<path opacity="0.99" d="M51.1136 81.896C54.1971 81.5438 57.2744 81.1929 60.3579 80.8407C58.8228 88.3889 59.7267 93.7782 60.9445 97.4188C60.9445 97.4188 62.4964 102.053 63.5357 111.937C63.6049 112.6 63.7313 114.057 62.9797 114.52C62.6094 114.747 62.1049 114.751 61.732 114.519C61.7469 114.912 61.5318 115.306 61.1936 115.501C60.5576 115.871 58.7534 115.457 58.1638 115.07C57.5594 114.673 57.0816 114.078 56.6924 113.479C56.6924 113.479 56.6887 113.46 56.6776 113.437C52.5806 103.779 51.4234 96.3642 51.4234 96.3642C50.8849 92.9204 50.4587 87.9661 51.1136 81.896Z" fill="#F2F2F2"/>
<g opacity="0.99">
<path d="M61.8804 114.41C61.937 114.437 61.8446 114.392 61.8225 114.377C61.7572 114.339 61.6846 114.296 61.6242 114.25C61.4013 114.097 61.1969 113.907 61.0157 113.707C60.3947 113.006 60.1229 112.102 60.1352 111.18C60.1374 111.001 59.8581 110.98 59.8559 111.159C59.8436 112.145 60.1291 113.116 60.7797 113.869C61.0558 114.191 61.4043 114.492 61.7872 114.678C61.9497 114.754 62.0367 114.488 61.8804 114.41Z" fill="#888888"/>
</g>
<g opacity="0.99">
<path d="M60.1083 115.313C59.7475 115.11 59.4346 114.796 59.1783 114.476C58.5068 113.651 58.1893 112.616 58.1633 111.567C58.1569 111.377 57.8579 111.353 57.8643 111.543C57.8953 112.649 58.2153 113.728 58.898 114.608C59.1815 114.967 59.5301 115.332 59.9339 115.559C60.1001 115.653 60.2671 115.403 60.1009 115.308L60.1083 115.313Z" fill="#888888"/>
</g>
<path opacity="0.99" d="M66.2661 84.4196C64.9284 86.7927 62.1086 87.8133 59.7786 86.9179C57.8192 86.1665 56.4941 84.1754 56.5066 81.9337C54.0511 82.8604 51.4071 82.2969 50.0443 80.6626C48.1917 78.4397 48.7192 74.257 52.01 72.0842" fill="#6F92FF"/>
<path d="M104.481 114.845C104.481 113.329 104.475 111.814 104.469 110.299H94.1188C93.9869 112.647 93.8927 114.582 93.8236 116.016C93.7985 116.585 93.7671 117.174 93.7859 117.963C93.8236 119.541 94.012 120.831 94.1753 121.695C94.2758 122.371 94.5207 123.279 95.1738 124.087C96.8883 126.235 100.129 126.097 103.357 125.915C105.988 125.765 112.086 125.345 113.688 122.215C114.479 120.655 114.397 118.902 113.28 117.543C111.691 115.615 106.924 114.813 104.481 114.857V114.845Z" fill="#FE9979"/>
<path d="M80.026 114.845C77.583 114.801 72.8163 115.602 71.2275 117.531C70.1096 118.89 70.0217 120.649 70.8192 122.202C72.2951 125.101 77.4135 125.59 81.1502 125.903C85.8352 126.291 87.3864 125.377 88.1086 124.819C89.1637 124.012 89.754 122.997 90.0743 122.283C90.1685 122.077 90.3004 121.764 90.4323 121.375C91.0666 119.491 90.9284 117.913 90.8405 116.748C90.6835 114.795 90.5516 112.709 90.382 110.292H80.0323C80.0323 111.808 80.026 113.323 80.0197 114.838L80.026 114.845Z" fill="#FE9979"/>
<ellipse cx="130.913" cy="142.549" rx="1.39863" ry="1.39449" fill="#D9D9D9"/>
<ellipse cx="137.557" cy="142.549" rx="1.39863" ry="1.39449" fill="#D9D9D9"/>
<ellipse cx="144.2" cy="142.549" rx="1.39863" ry="1.39449" fill="#D9D9D9"/>
</g>
<path d="M59.1123 262.102H60.6162V269.115C60.6094 271.022 59.4199 272.137 57.5947 272.137C55.9131 272.137 54.6553 271.193 54.6553 269.512H56.1455C56.1592 270.339 56.7676 270.852 57.6357 270.852C58.5791 270.852 59.1055 270.257 59.1123 269.115V262.102ZM67.2197 268.91V264.576H68.6689V272H67.2471V270.715H67.165C66.8232 271.508 66.0645 272.096 64.9502 272.096C63.5146 272.096 62.5029 271.132 62.5029 269.293V264.576H63.9658V269.115C63.9658 270.127 64.5811 270.77 65.4697 270.77C66.2832 270.77 67.2197 270.175 67.2197 268.91ZM70.4463 272V264.576H71.9092V272H70.4463ZM70.2549 262.566C70.2617 262.088 70.6787 261.705 71.1846 261.705C71.6836 261.705 72.1006 262.088 72.1006 262.566C72.1006 263.045 71.6836 263.435 71.1846 263.428C70.6787 263.435 70.2617 263.045 70.2549 262.566ZM77.1592 264.576V265.738H75.6416V269.812C75.6484 270.653 76.0586 270.804 76.5303 270.811C76.7422 270.811 77.0635 270.79 77.2686 270.77V272.041C77.0703 272.068 76.7559 272.096 76.3525 272.096C75.2109 272.096 74.1787 271.467 74.1924 270.113V265.738H73.0986V264.576H74.1924V262.799H75.6416V264.576H77.1592ZM81.6436 272.15C79.4766 272.15 78.1641 270.558 78.1709 268.322C78.1641 266.06 79.5244 264.48 81.6162 264.48C83.3115 264.48 84.5352 265.479 84.6924 266.982H83.2705C83.1201 266.285 82.5664 265.704 81.6436 265.697C80.4404 265.704 79.6338 266.702 79.6338 268.281C79.6338 269.908 80.4199 270.913 81.6436 270.906C82.4707 270.913 83.0859 270.448 83.2705 269.648H84.6924C84.5352 271.091 83.3936 272.15 81.6436 272.15ZM86.9756 274.789C86.6748 274.782 86.3809 274.775 86.1963 274.748V273.531C86.3604 273.545 86.6475 273.552 86.8525 273.559C87.3037 273.552 87.6797 273.524 88.0283 272.588L88.2061 272.096L85.4854 264.576H87.0439L88.917 270.332H88.999L90.8721 264.576H92.4443L89.3818 272.984C88.9512 274.16 88.1992 274.782 86.9756 274.789ZM103.108 264.494V265.533H94.6729V261.35H95.958V264.494H103.108ZM93.1826 268.117V267.078H104.394V268.117H93.1826ZM94.5771 272.875V269.279H95.876V271.809H103.19V272.875H94.5771ZM118.872 268.801V273.162H117.573V269.854H110.573V268.801H118.872ZM108.96 264.549C108.967 262.833 110.348 261.623 112.228 261.623C114.101 261.623 115.481 262.833 115.481 264.549C115.481 266.278 114.101 267.475 112.228 267.475C110.348 267.475 108.967 266.278 108.96 264.549ZM110.231 264.549C110.225 265.649 111.065 266.381 112.228 266.367C113.376 266.381 114.21 265.649 114.21 264.549C114.21 263.455 113.376 262.737 112.228 262.73C111.065 262.737 110.225 263.455 110.231 264.549ZM117.573 268.172V260.912H118.872V268.172H117.573ZM131.026 260.912V268.145H129.728V266.326H127.062V267.324H121.374V261.828H127.062V262.84H129.728V260.912H131.026ZM122.659 266.285H125.79V262.867H122.659V266.285ZM122.782 270.824C122.775 269.341 124.348 268.479 126.925 268.486C129.488 268.479 131.061 269.341 131.067 270.824C131.061 272.301 129.488 273.142 126.925 273.135C124.348 273.142 122.775 272.301 122.782 270.824ZM124.067 270.824C124.061 271.645 125.127 272.13 126.925 272.137C128.709 272.13 129.775 271.645 129.782 270.824C129.775 269.963 128.709 269.491 126.925 269.484C125.127 269.491 124.061 269.963 124.067 270.824ZM127.062 265.273H129.728V263.879H127.062V265.273ZM136.905 261.787C138.84 261.78 140.234 262.977 140.241 264.699C140.234 266.422 138.84 267.618 136.905 267.625C134.978 267.618 133.562 266.422 133.569 264.699C133.562 262.977 134.978 261.78 136.905 261.787ZM132.981 269.471C135.21 269.471 138.3 269.45 140.979 269.061L141.075 270.004C138.307 270.537 135.333 270.551 133.146 270.551L132.981 269.471ZM134.854 264.699C134.841 265.786 135.716 266.49 136.905 266.49C138.095 266.49 138.97 265.786 138.97 264.699C138.97 263.626 138.095 262.908 136.905 262.908C135.716 262.908 134.841 263.626 134.854 264.699ZM141.745 273.189V260.912H143.044V273.189H141.745ZM152.929 264.029C152.915 266.265 154.269 268.521 156.169 269.361L155.39 270.387C153.981 269.717 152.867 268.343 152.293 266.668C151.726 268.466 150.598 269.942 149.128 270.66L148.335 269.566C150.263 268.712 151.616 266.367 151.616 264.029V261.938H152.929V264.029ZM157.276 273.189V260.912H158.575V273.189H157.276ZM170.702 260.912V273.162H169.403V260.912H170.702ZM161.282 270.045V262.102H162.567V268.924C164.358 268.917 166.238 268.76 168.2 268.363L168.378 269.457C166.211 269.901 164.242 270.052 162.308 270.045H161.282ZM175.952 261.828C177.62 261.835 178.83 263.243 179.028 265.506H181.558V260.912H182.843V273.189H181.558V266.559H179.042C178.898 268.951 177.661 270.435 175.952 270.428C174.127 270.435 172.835 268.767 172.849 266.121C172.835 263.503 174.127 261.835 175.952 261.828ZM174.079 266.121C174.086 268.069 174.845 269.266 175.952 269.266C177.06 269.266 177.818 268.069 177.825 266.121C177.818 264.2 177.06 262.997 175.952 262.99C174.845 262.997 174.086 264.2 174.079 266.121ZM216.024 261.691C217.911 261.691 219.312 262.881 219.319 264.604C219.312 266.121 218.226 267.222 216.681 267.468V269.409C217.768 269.354 218.854 269.272 219.866 269.143L219.962 270.113C217.371 270.564 214.521 270.585 212.401 270.564L212.196 269.498C213.146 269.491 214.24 269.484 215.382 269.457V267.468C213.803 267.235 212.723 266.128 212.729 264.604C212.723 262.881 214.104 261.691 216.024 261.691ZM213.987 264.604C213.98 265.69 214.849 266.415 216.024 266.408C217.187 266.415 218.041 265.69 218.048 264.604C218.041 263.51 217.187 262.799 216.024 262.785C214.849 262.799 213.98 263.51 213.987 264.604ZM220.604 273.162V260.912H221.903V265.889H223.79V266.982H221.903V273.162H220.604ZM226.647 271.057L225.554 274.83H224.392L225.116 271.057H226.647ZM59.9395 285.801V290.162H58.6406V286.854H51.6406V285.801H59.9395ZM50.0273 281.549C50.0342 279.833 51.415 278.623 53.2949 278.623C55.168 278.623 56.5488 279.833 56.5488 281.549C56.5488 283.278 55.168 284.475 53.2949 284.475C51.415 284.475 50.0342 283.278 50.0273 281.549ZM51.2988 281.549C51.292 282.649 52.1328 283.381 53.2949 283.367C54.4434 283.381 55.2773 282.649 55.2773 281.549C55.2773 280.455 54.4434 279.737 53.2949 279.73C52.1328 279.737 51.292 280.455 51.2988 281.549ZM58.6406 285.172V277.912H59.9395V285.172H58.6406ZM72.0938 277.912V285.145H70.7949V283.326H68.1289V284.324H62.4414V278.828H68.1289V279.84H70.7949V277.912H72.0938ZM63.7266 283.285H66.8574V279.867H63.7266V283.285ZM63.8496 287.824C63.8428 286.341 65.415 285.479 67.9922 285.486C70.5557 285.479 72.1279 286.341 72.1348 287.824C72.1279 289.301 70.5557 290.142 67.9922 290.135C65.415 290.142 63.8428 289.301 63.8496 287.824ZM65.1348 287.824C65.1279 288.645 66.1943 289.13 67.9922 289.137C69.7764 289.13 70.8428 288.645 70.8496 287.824C70.8428 286.963 69.7764 286.491 67.9922 286.484C66.1943 286.491 65.1279 286.963 65.1348 287.824ZM68.1289 282.273H70.7949V280.879H68.1289V282.273ZM77.9727 278.787C79.9072 278.78 81.3018 279.977 81.3086 281.699C81.3018 283.422 79.9072 284.618 77.9727 284.625C76.0449 284.618 74.6299 283.422 74.6367 281.699C74.6299 279.977 76.0449 278.78 77.9727 278.787ZM74.0488 286.471C76.2773 286.471 79.3672 286.45 82.0469 286.061L82.1426 287.004C79.374 287.537 76.4004 287.551 74.2129 287.551L74.0488 286.471ZM75.9219 281.699C75.9082 282.786 76.7832 283.49 77.9727 283.49C79.1621 283.49 80.0371 282.786 80.0371 281.699C80.0371 280.626 79.1621 279.908 77.9727 279.908C76.7832 279.908 75.9082 280.626 75.9219 281.699ZM82.8125 290.189V277.912H84.1113V290.189H82.8125ZM100.668 284.816V285.869H95.6914V290.148H94.4199V285.869H89.498V284.816H100.668ZM90.127 282.861C92.4102 282.547 94.3105 281.187 94.3516 279.676H90.5371V278.637H99.6152V279.676H95.8281C95.8486 281.187 97.7354 282.547 100.053 282.861L99.5742 283.887C97.5645 283.572 95.8281 282.581 95.083 281.187C94.3311 282.581 92.6016 283.572 90.6191 283.887L90.127 282.861ZM111.77 277.912V290.162H110.471V277.912H111.77ZM102.35 287.045V279.102H103.635V285.924C105.426 285.917 107.306 285.76 109.268 285.363L109.445 286.457C107.278 286.901 105.31 287.052 103.375 287.045H102.35ZM117.02 278.828C118.688 278.835 119.897 280.243 120.096 282.506H122.625V277.912H123.91V290.189H122.625V283.559H120.109C119.966 285.951 118.729 287.435 117.02 287.428C115.194 287.435 113.902 285.767 113.916 283.121C113.902 280.503 115.194 278.835 117.02 278.828ZM115.146 283.121C115.153 285.069 115.912 286.266 117.02 286.266C118.127 286.266 118.886 285.069 118.893 283.121C118.886 281.2 118.127 279.997 117.02 279.99C115.912 279.997 115.153 281.2 115.146 283.121ZM164.611 283.531V284.529H153.4V283.531H164.611ZM154.727 286.32V285.391H163.23V288.084H156.039V289.096H163.613V290.012H154.74V287.223H161.945V286.32H154.727ZM154.809 279.143V278.227H163.203V280.879H156.121V281.809H163.408V282.725H154.836V280.018H161.904V279.143H154.809ZM179.145 277.926V286.949H177.846V283.764H174.804C174.229 284.454 173.341 284.871 172.322 284.871C170.477 284.871 169.103 283.579 169.109 281.781C169.103 279.97 170.477 278.678 172.322 278.664C173.334 278.671 174.216 279.088 174.79 279.771H177.846V277.926H179.145ZM170.354 281.781C170.347 282.937 171.174 283.729 172.322 283.723C173.423 283.729 174.264 282.937 174.264 281.781C174.264 280.626 173.423 279.833 172.322 279.826C171.174 279.833 170.347 280.626 170.354 281.781ZM171.188 289.902V286.006H172.486V288.85H179.473V289.902H171.188ZM175.364 280.824C175.46 281.125 175.508 281.439 175.508 281.781C175.508 282.109 175.46 282.424 175.371 282.711H177.846V280.824H175.364ZM191.244 277.912V284.146H189.945V282.971H186.842V281.959H189.945V280.633H186.992C186.233 282.533 184.381 283.791 181.674 284.42L181.223 283.354C184.162 282.704 185.748 281.337 185.96 279.539H181.865V278.473H187.389C187.389 278.869 187.354 279.245 187.286 279.607H189.945V277.912H191.244ZM183.232 285.691V284.666H191.244V287.77H184.545V289H191.613V290.039H183.26V286.785H189.945V285.691H183.232ZM202.756 277.912V280.988H204.533V282.082H202.756V285.049H201.457V277.912H202.756ZM193.145 280.154V279.115H196.152V277.803H197.451V279.115H200.445V280.154H193.145ZM193.814 282.807C193.808 281.501 195.011 280.653 196.795 280.66C198.559 280.653 199.762 281.501 199.762 282.807C199.762 284.112 198.559 284.967 196.795 284.953C195.011 284.967 193.808 284.112 193.814 282.807ZM194.922 290.012V285.555H196.207V286.744H201.457V285.555H202.756V290.012H194.922ZM195.072 282.807C195.059 283.538 195.756 283.989 196.795 283.996C197.834 283.989 198.531 283.538 198.545 282.807C198.531 282.089 197.834 281.624 196.795 281.631C195.756 281.624 195.059 282.089 195.072 282.807ZM196.207 288.973H201.457V287.756H196.207V288.973ZM215.402 277.912V290.162H214.104V277.912H215.402ZM205.982 287.045V279.102H207.268V285.924C209.059 285.917 210.938 285.76 212.9 285.363L213.078 286.457C210.911 286.901 208.942 287.052 207.008 287.045H205.982ZM226.873 277.912V282.656H228.842V283.723H226.873V290.189H225.574V277.912H226.873ZM217.85 287.141V279.088H223.578V280.141H219.148V286.061C221.206 286.054 222.744 285.965 224.494 285.65L224.658 286.744C222.737 287.086 221.11 287.147 218.834 287.141H217.85ZM230.824 289.096C230.291 289.089 229.847 288.658 229.854 288.125C229.847 287.592 230.291 287.154 230.824 287.154C231.351 287.154 231.788 287.592 231.795 288.125C231.788 288.658 231.351 289.089 230.824 289.096Z" fill="black"/>
<path d="M192.782 263.824C192.769 266.094 193.965 268.363 195.968 269.225L195.065 270.441C193.644 269.785 192.604 268.479 192.03 266.866C191.463 268.603 190.396 270.024 188.899 270.729L187.97 269.457C190.027 268.568 191.23 266.21 191.237 263.824V261.855H192.782V263.824ZM196.856 273.23V260.857H198.388V273.23H196.856ZM210.515 260.857V273.217H209.011V260.857H210.515ZM200.917 270.113V262.061H202.421V268.814C204.15 268.787 205.996 268.637 207.903 268.254L208.095 269.525C205.921 269.977 203.904 270.12 201.983 270.113H200.917Z" fill="#3F6EFF"/>
<path d="M140.439 284.68V285.924H137.705V290.217H136.188V285.924H133.426V290.217H131.895V285.924H129.174V284.68H140.439ZM129.762 282.697C132.175 282.39 133.788 281.111 133.925 279.758H130.213V278.555H139.4V279.758H135.688C135.812 281.111 137.425 282.39 139.852 282.697L139.305 283.9C137.199 283.593 135.559 282.629 134.807 281.289C134.048 282.629 132.421 283.593 130.336 283.9L129.762 282.697ZM151.582 277.857V290.217H150.078V277.857H151.582ZM141.984 287.113V279.061H143.488V285.814C145.218 285.787 147.063 285.637 148.971 285.254L149.162 286.525C146.988 286.977 144.972 287.12 143.051 287.113H141.984Z" fill="#FF8267"/>
<defs>
<filter id="filter0_d_1468_24238" x="0" y="0" width="283" height="341" filterUnits="userSpaceOnUse" color-interpolation-filters="sRGB">
<feFlood flood-opacity="0" result="BackgroundImageFix"/>
<feColorMatrix in="SourceAlpha" type="matrix" values="0 0 0 0 0 0 0 0 0 0 0 0 0 0 0 0 0 0 127 0" result="hardAlpha"/>
<feMorphology radius="1" operator="dilate" in="SourceAlpha" result="effect1_dropShadow_1468_24238"/>
<feOffset dx="1" dy="1"/>
<feGaussianBlur stdDeviation="5"/>
<feComposite in2="hardAlpha" operator="out"/>
<feColorMatrix type="matrix" values="0 0 0 0 0 0 0 0 0 0 0 0 0 0 0 0 0 0 0.1 0"/>
<feBlend mode="normal" in2="BackgroundImageFix" result="effect1_dropShadow_1468_24238"/>
<feBlend mode="normal" in="SourceGraphic" in2="effect1_dropShadow_1468_24238" result="shape"/>
</filter>
<clipPath id="clip0_1468_24238">
<rect width="182" height="206" fill="white" transform="translate(46 40)"/>
</clipPath>
</defs>
</svg>
