<svg width="283" height="341" viewBox="0 0 283 341" fill="none" xmlns="http://www.w3.org/2000/svg">
<g filter="url(#filter0_d_1506_5097)">
<rect x="10" y="10" width="261" height="319" rx="10" fill="#FDFBFB"/>
</g>
<path d="M71.8691 278.68V279.924H69.1348V284.217H67.6172V279.924H64.8555V284.217H63.3242V279.924H60.6035V278.68H71.8691ZM61.1914 276.697C63.6045 276.39 65.2178 275.111 65.3545 273.758H61.6426V272.555H70.8301V273.758H67.1182C67.2412 275.111 68.8545 276.39 71.2812 276.697L70.7344 277.9C68.6289 277.593 66.9883 276.629 66.2363 275.289C65.4775 276.629 63.8506 277.593 61.7656 277.9L61.1914 276.697ZM83.0117 271.857V284.217H81.5078V271.857H83.0117ZM73.4141 281.113V273.061H74.918V279.814C76.6475 279.787 78.4932 279.637 80.4004 279.254L80.5918 280.525C78.418 280.977 76.4014 281.12 74.4805 281.113H73.4141Z" fill="#FF8267"/>
<path d="M94.7559 275.494V276.533H86.3203V272.35H87.6055V275.494H94.7559ZM84.8301 279.117V278.078H96.041V279.117H84.8301ZM86.2246 283.875V280.279H87.5234V282.809H94.8379V283.875H86.2246ZM104.6 273.32C104.593 274.968 105.7 276.39 107.594 276.984L106.883 277.996C105.529 277.538 104.524 276.622 103.991 275.433C103.458 276.8 102.378 277.859 100.908 278.379L100.238 277.34C102.173 276.697 103.308 275.125 103.314 273.348V272.391H104.6V273.32ZM101.387 279.992V279.021H105.338V281.92H102.672V283.068C103.875 283.062 104.634 283.034 105.57 282.85L105.693 283.834C104.572 284.053 103.697 284.066 102.084 284.066H101.414V280.977H104.08V279.992H101.387ZM106.049 284.066V279.021H109.986V284.066H106.049ZM107.197 283.109H108.852V279.992H107.197V283.109ZM108.688 278.434V271.912H109.986V274.523H111.764V275.59H109.986V278.434H108.688ZM116.453 272.787C118.388 272.78 119.782 273.977 119.789 275.699C119.782 277.422 118.388 278.618 116.453 278.625C114.525 278.618 113.11 277.422 113.117 275.699C113.11 273.977 114.525 272.78 116.453 272.787ZM112.529 280.471C114.758 280.471 117.848 280.45 120.527 280.061L120.623 281.004C117.854 281.537 114.881 281.551 112.693 281.551L112.529 280.471ZM114.402 275.699C114.389 276.786 115.264 277.49 116.453 277.49C117.643 277.49 118.518 276.786 118.518 275.699C118.518 274.626 117.643 273.908 116.453 273.908C115.264 273.908 114.389 274.626 114.402 275.699ZM121.293 284.189V271.912H122.592V284.189H121.293ZM137.891 273.088V274.291C137.884 275.802 137.884 277.497 137.426 280.006L136.113 279.869C136.585 277.497 136.585 275.761 136.592 274.291V274.141H129.154V273.088H137.891ZM127.979 282.508V281.428H132.23V277.107H133.516V281.428H139.148V282.508H127.979ZM146.545 272.951V278.707H140.721V272.951H146.545ZM141.992 277.668H145.26V274.004H141.992V277.668ZM142.225 283.793V279.855H143.537V282.727H150.605V283.793H142.225ZM148.938 280.703V271.926H150.236V280.703H148.938ZM157.756 272.117C160.518 272.11 162.124 272.855 162.131 274.223C162.124 275.597 160.518 276.342 157.756 276.342C154.994 276.342 153.374 275.597 153.381 274.223C153.374 272.855 154.994 272.11 157.756 272.117ZM152.178 278.133V277.094H163.348V278.133H152.178ZM153.518 280.047V279.076H161.939V281.947H154.803V283.041H162.281V284.039H153.531V281.004H160.654V280.047H153.518ZM154.734 274.223C154.728 274.981 155.808 275.371 157.756 275.371C159.718 275.371 160.798 274.981 160.791 274.223C160.798 273.498 159.718 273.074 157.756 273.074C155.808 273.074 154.728 273.498 154.734 274.223ZM173.916 272.637V273.689H169.596V274.811H173.561V275.795H169.596V277.039C171.694 277.032 172.966 276.998 174.49 276.752L174.6 277.791C172.952 278.058 171.585 278.078 169.227 278.078H168.311V272.637H173.916ZM169.883 280.02V279.008H177.895V281.975H171.209V283.027H178.332V284.039H169.91V281.004H176.609V280.02H169.883ZM174.381 275.699V274.66H176.609V271.912H177.895V278.488H176.609V275.699H174.381ZM183.117 272.828C184.785 272.835 185.995 274.243 186.193 276.506H188.723V271.912H190.008V284.189H188.723V277.559H186.207C186.063 279.951 184.826 281.435 183.117 281.428C181.292 281.435 180 279.767 180.014 277.121C180 274.503 181.292 272.835 183.117 272.828ZM181.244 277.121C181.251 279.069 182.01 280.266 183.117 280.266C184.225 280.266 184.983 279.069 184.99 277.121C184.983 275.2 184.225 273.997 183.117 273.99C182.01 273.997 181.251 275.2 181.244 277.121ZM205.443 279.322V280.32H196.338V279.322H200.248V278.283H201.533V279.322H205.443ZM195.299 277.846V276.807H200.289V275.672H196.816V272.09H198.102V274.646H205.252V275.672H201.588V276.807H206.51V277.846H195.299ZM197.172 282.48C197.165 281.394 198.512 280.812 200.877 280.812C203.256 280.812 204.616 281.394 204.623 282.48C204.616 283.567 203.256 284.142 200.877 284.135C198.512 284.142 197.165 283.567 197.172 282.48ZM198.525 282.48C198.519 282.993 199.366 283.232 200.877 283.232C202.395 283.232 203.263 282.993 203.256 282.48C203.263 281.961 202.395 281.722 200.877 281.729C199.366 281.722 198.519 281.961 198.525 282.48ZM217.324 273.088V274.291C217.317 275.802 217.317 277.497 216.859 280.006L215.547 279.869C216.019 277.497 216.019 275.761 216.025 274.291V274.141H208.588V273.088H217.324ZM207.412 282.508V281.428H211.664V277.107H212.949V281.428H218.582V282.508H207.412ZM221.713 282.057L220.619 285.83H219.457L220.182 282.057H221.713Z" fill="black"/>
<path d="M151.821 142.609C162.707 146.147 173.593 149.692 184.479 153.23C186.647 146.217 192.108 141.756 197.379 142.015C199.855 142.141 202.819 143.336 204.679 145.909C207.161 149.363 207.056 154.453 204.252 158.641C202.029 162.851 199.799 167.067 197.575 171.276C195.96 174.331 192.408 175.834 189.108 174.863L130.146 157.586L151.828 142.588V142.602L151.821 142.609Z" fill="#F2F2F2"/>
<path d="M122.056 177.387C121.902 188.832 121.763 200.278 121.616 211.731C114.274 211.528 108.296 215.269 106.856 220.338C106.185 222.722 106.353 225.91 108.198 228.504C110.673 231.965 115.526 233.503 120.385 232.196C125.084 231.441 129.796 230.686 134.495 229.93C137.914 229.385 140.473 226.504 140.62 223.064L143.214 161.676L122.042 177.387H122.056Z" fill="#F2F2F2"/>
<path opacity="0.99" d="M111.275 183.428C140.637 183.428 164.441 159.625 164.441 130.262C164.441 100.899 140.637 77.0959 111.275 77.0959C81.9119 77.0959 58.1086 100.899 58.1086 130.262C58.1086 159.625 81.9119 183.428 111.275 183.428Z" fill="#FF8F6B"/>
<path opacity="0.99" d="M81.6502 101.588C81.6502 101.588 56.8781 86.4647 81.2936 57.3018C81.9718 57.7422 93.8579 65.7339 93.4944 80.228C93.1588 93.6244 82.657 100.917 81.6502 101.588Z" fill="#42CA89"/>
<path opacity="0.99" d="M82 81.2698C82 81.2698 78.1475 85.9124 81.6504 101.588" stroke="#006934" stroke-width="0.674383" stroke-miterlimit="10"/>
<g opacity="0.99">
<path d="M100.178 169.143C107.527 169.143 113.484 163.186 113.484 155.838C113.484 148.489 107.527 142.532 100.178 142.532C92.83 142.532 86.8729 148.489 86.8729 155.838C86.8729 163.186 92.83 169.143 100.178 169.143Z" fill="#FF7364" stroke="#FF8F6B" stroke-width="0.896533" stroke-miterlimit="10"/>
<path d="M135.76 130.234C143.108 130.234 149.065 124.276 149.065 116.928C149.065 109.58 143.108 103.623 135.76 103.623C128.412 103.623 122.454 109.58 122.454 116.928C122.454 124.276 128.412 130.234 135.76 130.234Z" fill="#FF7364" stroke="#FF8F6B" stroke-width="0.896533" stroke-miterlimit="10"/>
</g>
<path d="M111.108 143.892C114.3 140.401 112.482 133.543 107.048 128.573C101.614 123.604 94.6204 122.406 91.4283 125.896C88.2362 129.387 90.0539 136.246 95.4883 141.215C100.923 146.184 107.916 147.383 111.108 143.892Z" fill="white"/>
<path d="M109.099 135.715C110.689 133.977 109.884 130.654 107.303 128.293C104.721 125.932 101.339 125.428 99.7497 127.166C98.1602 128.904 98.9646 132.227 101.546 134.588C104.128 136.949 107.51 137.454 109.099 135.715Z" fill="#221714"/>
<path d="M105.245 128.489C105.574 128.13 105.405 127.442 104.87 126.952C104.334 126.462 103.634 126.356 103.305 126.715C102.977 127.074 103.145 127.763 103.681 128.253C104.216 128.742 104.917 128.848 105.245 128.489Z" fill="white"/>
<path d="M123.655 130.162C126.848 126.671 125.03 119.812 119.595 114.843C114.161 109.874 107.168 108.675 103.976 112.166C100.784 115.657 102.601 122.515 108.036 127.485C113.47 132.454 120.463 133.652 123.655 130.162Z" fill="white"/>
<path d="M121.654 121.978C123.243 120.24 122.439 116.917 119.857 114.556C117.275 112.195 113.894 111.691 112.304 113.429C110.714 115.167 111.519 118.49 114.101 120.851C116.683 123.212 120.064 123.717 121.654 121.978Z" fill="#221714"/>
<path d="M115.134 115.152C115.799 115.152 116.337 114.614 116.337 113.95C116.337 113.285 115.799 112.747 115.134 112.747C114.47 112.747 113.932 113.285 113.932 113.95C113.932 114.614 114.47 115.152 115.134 115.152Z" fill="white"/>
<path d="M125.328 143.112C128.027 140.162 131.516 138.638 134.439 138.826C133.886 137.575 133.075 136.414 132.006 135.428C127.859 131.639 121.42 131.925 117.63 136.072C113.841 140.218 114.127 146.657 118.274 150.447C119.35 151.433 120.574 152.132 121.874 152.572C121.427 149.678 122.636 146.063 125.335 143.112H125.328Z" fill="#221714"/>
<path d="M132.649 149.811C135.459 146.741 136.026 142.413 134.445 138.834C131.523 138.645 128.034 140.169 125.335 143.12C122.636 146.07 121.427 149.685 121.874 152.579C125.58 153.831 129.838 152.887 132.649 149.811Z" fill="#E17766"/>
<path d="M115.176 140.931C117.183 141.218 119.294 140.547 120.763 138.939C122.231 137.33 122.72 135.17 122.252 133.198C120.532 133.709 118.931 134.66 117.63 136.079C116.33 137.498 115.526 139.183 115.176 140.938V140.931Z" fill="white"/>
<path d="M112.602 148.203L104.995 166.633C104.196 168.568 105.117 170.784 107.052 171.583L119.087 176.551C121.022 177.35 123.238 176.429 124.037 174.494L131.645 156.063C132.443 154.128 131.522 151.912 129.587 151.113L117.552 146.146C115.617 145.347 113.401 146.268 112.602 148.203Z" fill="#F7DFBC"/>
<g opacity="0.99">
<path d="M114.604 147.861C115.199 152.279 115.794 156.691 116.388 161.11L116.773 160.158C113.233 162.867 109.699 165.576 106.159 168.292C105.307 168.948 106.145 170.414 107.01 169.752C110.55 167.042 114.084 164.333 117.625 161.617C117.962 161.36 118.071 161.083 118.01 160.664C117.415 156.245 116.821 151.833 116.226 147.415C116.084 146.34 114.456 146.8 114.598 147.861H114.604Z" fill="#DAB7B7"/>
</g>
<path d="M100.067 175.981C100.871 178.847 101.892 181.875 103.178 185C103.535 185.867 103.695 186.545 104.479 186.972C104.59 187.028 112.946 163.29 117.567 163.116C120.259 163.018 122.175 165.765 122.888 168.359C123.93 172.128 123.587 176.169 122.552 179.945C120.881 186.042 117.819 191.943 114.4 197.236C111.373 201.913 107.331 205.997 101.465 205.409C95.5989 204.822 90.7745 200.69 87.775 195.733C82.8318 187.573 80.2658 176.127 79.8743 166.66" fill="#FF8F6B"/>
<path d="M100.067 175.981C100.871 178.847 101.892 181.875 103.178 185C103.535 185.867 103.695 186.545 104.479 186.972C104.59 187.028 112.946 163.29 117.567 163.116C120.259 163.018 122.175 165.765 122.888 168.359C123.93 172.128 123.587 176.169 122.552 179.945C120.881 186.042 117.819 191.943 114.4 197.236C111.373 201.913 107.331 205.997 101.465 205.409C95.5989 204.822 90.7745 200.69 87.775 195.733C82.8318 187.573 80.2658 176.127 79.8743 166.66" stroke="white" stroke-width="0.555374" stroke-miterlimit="10"/>
<path d="M118.987 169.954C118.987 169.954 122.259 167.919 119.749 163.92L118.987 169.954Z" fill="#FF8F6B"/>
<path d="M119.21 170.332C120.56 169.486 121.301 167.801 121.098 166.242C120.979 165.326 120.609 164.473 120.126 163.696C119.833 163.221 119.078 163.655 119.371 164.137C120.133 165.375 120.616 166.906 119.91 168.262C119.693 168.675 119.483 168.954 119.148 169.269C119.085 169.325 119.029 169.381 118.966 169.43C118.945 169.444 118.924 169.465 118.903 169.479C118.812 169.556 118.959 169.437 118.903 169.479C118.861 169.514 118.812 169.542 118.77 169.57C118.295 169.87 118.735 170.625 119.21 170.325V170.332Z" fill="white"/>
<path d="M115.833 169.017C115.833 169.017 118.008 167.514 117.392 163.473L115.833 169.017Z" fill="#FF8F6B"/>
<path d="M116.057 169.395C117.176 168.612 117.714 167.116 117.882 165.822C117.987 164.997 117.938 164.179 117.819 163.361C117.784 163.13 117.49 162.997 117.281 163.053C117.029 163.123 116.938 163.354 116.973 163.592C117.169 164.92 117.092 166.374 116.456 167.563C116.358 167.752 116.239 167.934 116.113 168.108C116.099 168.129 116.085 168.15 116.071 168.171C116.106 168.129 116.106 168.129 116.071 168.171C116.05 168.199 116.029 168.22 116.008 168.248C115.959 168.311 115.903 168.367 115.847 168.423C115.777 168.5 115.693 168.57 115.617 168.64C115.505 168.738 115.672 168.598 115.61 168.647C115.148 168.968 115.589 169.723 116.05 169.402L116.057 169.395Z" fill="white"/>
<path d="M190.091 151.111H180.764V232.493H190.091V151.111Z" fill="#6F92FF"/>
<path d="M140.635 150.147C146.192 150.892 151.748 151.644 157.305 152.389C158.345 152.53 159.392 152.672 160.433 152.807C181.291 152.376 202.142 151.952 223 151.522V129.084C222.91 127.831 222.402 122.943 218.413 119.121C212.921 113.853 205.637 115.241 204.917 115.389C196.174 115.318 187.316 115.318 178.342 115.389C167.685 115.472 157.189 115.658 146.86 115.941C145.89 116.076 144.528 116.416 143.288 117.38C140.179 119.795 140.057 124.407 140.019 127.941C139.954 133.548 140.051 141.051 140.642 150.147H140.635Z" fill="#FBFBFD" stroke="#6F92FF" stroke-width="0.736211" stroke-miterlimit="10"/>
<g opacity="0.99">
<path d="M143.565 117.495C148.177 114.964 154.639 116.069 157.459 120.746C158.956 123.225 159.412 126.135 159.373 128.981C159.322 132.687 159.547 136.419 159.63 140.119C159.727 144.385 159.829 148.657 159.926 152.922C159.926 153.192 160.864 153.018 160.857 152.671C160.761 148.56 160.671 144.455 160.574 140.344C160.485 136.323 160.234 132.276 160.33 128.255C160.401 125.332 159.643 122.101 157.896 119.718C156.251 117.482 153.656 116.178 150.952 115.767C148.247 115.356 145.421 115.909 143.006 117.238C142.46 117.54 143.288 117.643 143.577 117.489L143.565 117.495Z" fill="#6F92FF"/>
</g>
<path d="M160.427 152.806C158.525 155.048 156.579 157.296 154.581 159.558C150.316 164.382 146.07 168.994 141.856 173.388C141.046 174.403 136.922 179.355 131.148 179.381C129.946 179.381 127.737 179.394 125.861 177.82C125.546 177.55 123.985 176.182 123.677 174.094C123.368 171.987 124.602 170.279 127.081 166.958C131.578 160.926 133.852 157.881 135.265 156.23C136.82 154.406 138.612 152.376 140.635 150.192C147.232 151.066 153.83 151.933 160.433 152.806H160.427Z" fill="#FBFBFD" stroke="#6F92FF" stroke-width="0.728922" stroke-miterlimit="10"/>
<path d="M160.978 109.672C158.454 110.161 156.098 111.161 154.231 112.706C153.161 113.587 152.168 114.783 152.672 116.265C153.623 119.062 162.481 117.705 162.481 115.65V124.641C162.481 124.641 163.313 133.339 168.075 127.543L169.732 123.816C169.732 123.816 167.662 129.662 171.179 129.543C173.794 129.452 175.06 127.795 175.116 124.956C174.493 126.054 174.745 127.564 175.682 128.403C179.486 131.787 180.611 124.46 180.569 121.998C180.422 112.448 169.669 108.008 160.978 109.679V109.672Z" fill="#FF8F6B" stroke="white" stroke-width="0.555374" stroke-miterlimit="10"/>
<defs>
<filter id="filter0_d_1506_5097" x="0" y="0" width="283" height="341" filterUnits="userSpaceOnUse" color-interpolation-filters="sRGB">
<feFlood flood-opacity="0" result="BackgroundImageFix"/>
<feColorMatrix in="SourceAlpha" type="matrix" values="0 0 0 0 0 0 0 0 0 0 0 0 0 0 0 0 0 0 127 0" result="hardAlpha"/>
<feMorphology radius="1" operator="dilate" in="SourceAlpha" result="effect1_dropShadow_1506_5097"/>
<feOffset dx="1" dy="1"/>
<feGaussianBlur stdDeviation="5"/>
<feComposite in2="hardAlpha" operator="out"/>
<feColorMatrix type="matrix" values="0 0 0 0 0 0 0 0 0 0 0 0 0 0 0 0 0 0 0.1 0"/>
<feBlend mode="normal" in2="BackgroundImageFix" result="effect1_dropShadow_1506_5097"/>
<feBlend mode="normal" in="SourceGraphic" in2="effect1_dropShadow_1506_5097" result="shape"/>
</filter>
</defs>
</svg>
