<svg width="283" height="341" viewBox="0 0 283 341" fill="none" xmlns="http://www.w3.org/2000/svg">
<g filter="url(#filter0_d_1506_5098)">
<rect x="10" y="10" width="261" height="319" rx="10" fill="#FDFBFB"/>
</g>
<path d="M33.3486 274.824C33.335 277.094 34.5244 279.363 36.5342 280.225L35.6318 281.441C34.21 280.785 33.1641 279.473 32.5967 277.859C32.0293 279.603 30.9697 281.024 29.4658 281.729L28.5361 280.457C30.6006 279.568 31.8037 277.203 31.8037 274.824V272.855H33.3486V274.824ZM38.9541 271.857V284.23H37.4229V271.857H38.9541ZM51.0811 271.857V284.217H49.5771V271.857H51.0811ZM42.9873 273.061V279.814C44.7236 279.787 46.5693 279.63 48.4697 279.254L48.6611 280.525C46.4873 280.977 44.4639 281.113 42.5498 281.113H41.4834V273.061H42.9873Z" fill="#3F6EFF"/>
<path d="M62.8252 275.494V276.533H54.3896V272.35H55.6748V275.494H62.8252ZM64.1104 278.078V279.117H52.8994V278.078H64.1104ZM62.9072 282.809V283.875H54.2939V280.279H55.5928V282.809H62.9072ZM72.6689 273.32C72.6689 274.975 73.7764 276.396 75.6631 276.984L74.9521 277.996C73.5986 277.531 72.5938 276.615 72.0674 275.426C71.5273 276.8 70.4541 277.853 68.9775 278.379L68.3076 277.34C70.2354 276.697 71.3838 275.125 71.3838 273.348V272.391H72.6689V273.32ZM78.0557 271.912V274.523H79.833V275.59H78.0557V278.434H76.7568V271.912H78.0557ZM73.4072 279.021V281.92H70.7412V283.068C71.9443 283.062 72.7031 283.027 73.6396 282.85L73.7627 283.834C72.6416 284.053 71.7666 284.066 70.1533 284.066H69.4834V280.977H72.1494V279.992H69.4561V279.021H73.4072ZM78.0557 279.021V284.066H74.1182V279.021H78.0557ZM75.2666 279.992V283.109H76.9209V279.992H75.2666ZM84.5225 272.787C86.4639 272.773 87.8447 273.977 87.8584 275.699C87.8447 277.422 86.4639 278.625 84.5225 278.625C82.5947 278.625 81.1729 277.422 81.1865 275.699C81.1729 273.977 82.5947 272.773 84.5225 272.787ZM84.5225 273.908C83.333 273.908 82.458 274.619 82.4717 275.699C82.458 276.779 83.333 277.49 84.5225 277.49C85.7119 277.49 86.5869 276.779 86.5869 275.699C86.5869 274.619 85.7119 273.908 84.5225 273.908ZM90.6611 271.912V284.189H89.3623V271.912H90.6611ZM80.5986 280.471C82.8271 280.471 85.917 280.443 88.5967 280.061L88.6924 281.004C85.917 281.537 82.9502 281.551 80.7627 281.551L80.5986 280.471ZM100.56 275.521C100.56 277.572 101.899 279.691 103.786 280.498L103.075 281.51C101.633 280.874 100.484 279.527 99.917 277.887C99.3496 279.637 98.1943 281.127 96.7725 281.824L96.0205 280.799C97.8662 279.938 99.2334 277.627 99.2471 275.521V274.223H96.4443V273.143H103.349V274.223H100.56V275.521ZM106.192 271.912V284.162H104.894V271.912H106.192ZM118.688 271.912V284.162H117.444V271.912H118.688ZM116.337 272.158V283.574H115.134V279.855H113.479C113.083 280.847 112.201 281.469 111.101 281.469C109.61 281.469 108.503 280.293 108.517 278.598C108.503 276.902 109.61 275.727 111.101 275.727C112.618 275.727 113.712 276.902 113.712 278.598C113.712 278.673 113.712 278.741 113.712 278.816H115.134V277.066H113.534V276H115.134V272.158H116.337ZM114.136 273.936V274.988H108.12V273.936H110.485V272.227H111.784V273.936H114.136ZM111.101 276.834C110.253 276.848 109.651 277.531 109.651 278.598C109.651 279.65 110.253 280.348 111.101 280.348C111.962 280.348 112.577 279.65 112.591 278.598C112.577 277.531 111.962 276.848 111.101 276.834ZM129.79 271.912V276.793H131.69V277.873H129.79V284.148H128.491V271.912H129.79ZM126.591 273.197C126.577 276.738 125.019 279.896 120.985 281.893L120.261 280.881C123.33 279.35 124.998 277.135 125.265 274.277H120.876V273.197H126.591ZM145.39 271.912V274.824H147.167V275.904H145.39V278.83H144.091V271.912H145.39ZM141.753 272.719V273.771H137.597V277.148C139.982 277.142 141.329 277.053 142.86 276.752L143.011 277.791C141.356 278.146 139.907 278.201 137.282 278.201H136.312V272.719H141.753ZM145.39 279.432V283.998H137.569V279.432H145.39ZM138.841 280.471V282.959H144.104V280.471H138.841ZM158.009 271.926V280.812H156.71V271.926H158.009ZM154.44 272.842C154.44 276.055 152.212 278.406 148.575 279.5L148.056 278.461C150.968 277.586 152.772 275.952 153.032 273.908H148.726V272.842H154.44ZM158.31 282.85V283.902H149.956V280.074H151.269V282.85H158.31ZM173.007 271.912V274.715H174.784V275.795H173.007V278.447H171.708V271.912H173.007ZM169.37 272.691V273.758H165.214V277.012C167.6 277.005 168.946 276.93 170.478 276.602L170.628 277.654C168.974 277.996 167.524 278.078 164.899 278.078H163.929V272.691H169.37ZM166.444 279.09V280.484H171.708V279.09H173.007V283.971H165.159V279.09H166.444ZM166.444 282.918H171.708V281.51H166.444V282.918ZM185.694 271.926V280.977H184.396V277.791H181.716V278.939H176.069V272.732H177.368V274.811H180.431V272.732H181.716V274.1H184.396V271.926H185.694ZM185.968 282.85V283.902H177.696V280.088H179.009V282.85H185.968ZM177.368 277.887H180.431V275.809H177.368V277.887ZM181.716 276.738H184.396V275.166H181.716V276.738ZM193.159 272.117C195.921 272.117 197.534 272.855 197.534 274.223C197.534 275.59 195.921 276.342 193.159 276.342C190.397 276.342 188.784 275.59 188.784 274.223C188.784 272.855 190.397 272.117 193.159 272.117ZM193.159 273.074C191.204 273.074 190.124 273.498 190.138 274.223C190.124 274.975 191.204 275.371 193.159 275.371C195.114 275.371 196.194 274.975 196.194 274.223C196.194 273.498 195.114 273.074 193.159 273.074ZM198.751 277.094V278.133H187.581V277.094H198.751ZM197.343 279.076V281.947H190.206V283.041H197.685V284.039H188.935V281.004H196.058V280.047H188.921V279.076H197.343ZM212.724 271.926V274.646H214.515V275.727H212.724V278.83H211.425V271.926H212.724ZM212.724 279.473V283.998H204.876V279.473H212.724ZM206.147 280.484V282.959H211.466V280.484H206.147ZM204.958 272.527V276.916C206.619 276.902 208.355 276.759 210.235 276.383L210.399 277.449C208.335 277.873 206.462 277.982 204.657 277.996H203.659V272.527H204.958ZM225.343 271.912V278.57H224.058V271.912H225.343ZM221.692 272.596C221.692 275.768 219.642 277.791 215.841 278.666L215.376 277.627C218.486 276.964 220.079 275.515 220.284 273.648H216.005V272.596H221.692ZM218.616 279.076V280.512H224.071V279.076H225.343V284.012H217.317V279.076H218.616ZM218.616 282.945H224.071V281.537H218.616V282.945ZM237.47 271.912V284.162H236.171V271.912H237.47ZM229.335 273.102V279.924C231.119 279.91 232.999 279.767 234.968 279.363L235.146 280.457C232.972 280.895 231.003 281.045 229.075 281.045H228.05V273.102H229.335ZM248.94 271.912V276.656H250.909V277.723H248.94V284.189H247.642V271.912H248.94ZM245.646 273.088V274.141H241.216V280.061C243.273 280.054 244.818 279.965 246.562 279.65L246.726 280.744C244.812 281.086 243.185 281.154 240.901 281.141H239.917V273.088H245.646ZM252.892 283.096C252.358 283.096 251.907 282.658 251.921 282.125C251.907 281.592 252.358 281.154 252.892 281.154C253.411 281.154 253.862 281.592 253.862 282.125C253.862 282.658 253.411 283.096 252.892 283.096Z" fill="black"/>
<path opacity="0.99" d="M160.206 121.737L138.876 147.688C138.876 147.688 82.2658 167.648 82.2534 167.655C80.1795 168.383 76.555 169.106 74.9233 167.138C74.1448 166.204 73.9518 164.821 74.4313 163.706C73.3601 163.905 72.1955 163.47 71.5167 162.616C70.24 161.01 70.6822 155.878 71.5167 154.109C72.3761 152.291 73.821 150.752 75.3219 149.445C75.3405 149.426 75.3779 149.407 75.4277 149.382C98.4642 135.002 160.212 121.75 160.212 121.75L160.206 121.737Z" fill="#F2F2F2"/>
<g opacity="0.99">
<path d="M74.7738 164.092C74.8361 163.893 74.8984 163.756 74.9544 163.638C75.1662 163.177 75.409 162.735 75.6893 162.318C76.5861 160.966 77.8379 159.864 79.2765 159.117C80.4286 158.519 81.6991 158.164 82.982 158.002C83.474 157.939 83.4802 157.161 82.982 157.223C79.3325 157.684 75.9695 159.696 74.3503 163.084C74.2258 163.345 74.1012 163.613 74.0202 163.887C73.8708 164.367 74.6243 164.572 74.7738 164.092Z" fill="#DAB7B7"/>
</g>
<g opacity="0.99">
<path d="M71.6164 159.484C71.6537 159.384 71.5728 159.571 71.6475 159.409C71.716 159.272 71.7783 159.129 71.853 158.998C72.1146 158.5 72.426 158.027 72.7623 157.578C73.8708 156.109 75.3406 154.919 76.9785 154.085C78.3174 153.406 79.7623 152.982 81.2383 152.733C81.7676 152.646 81.5434 151.843 81.0203 151.93C77.0158 152.596 73.2107 154.813 71.2116 158.431C71.0621 158.699 70.9251 158.973 70.813 159.26C70.6199 159.758 71.4233 159.976 71.6164 159.478V159.484Z" fill="#DAB7B7"/>
</g>
<path d="M174.79 155.088C167.92 155.93 161.049 156.772 154.179 157.615C153.635 157.679 151.072 174.549 150.682 176.604C149.797 181.227 149.51 185.965 149.851 190.661C150.234 195.985 152.589 199.707 154.693 204.524C155.243 205.788 161.282 219.712 161.311 219.698C155.309 222.215 151.842 227.41 152.525 232.033C152.852 234.209 154.155 236.721 156.586 238.138C159.845 240.033 164.328 239.504 167.78 236.675C171.299 234.356 174.829 232.028 178.352 229.701C180.913 228.011 181.931 224.753 180.794 221.925C178.337 215.81 175.886 209.694 173.431 203.585C172.149 200.39 169.696 196.423 169.182 193.039C168.252 186.935 170.246 180.597 171.578 174.697C172.062 172.539 173.96 155.191 174.802 155.085L174.79 155.088Z" fill="#F2F2F2"/>
<path opacity="0.99" d="M157.683 211.365C158.895 214.14 160.104 216.922 161.317 219.697C155.315 222.213 151.848 227.409 152.531 232.031C152.858 234.208 154.161 236.719 156.592 238.136C159.851 240.031 164.334 239.503 167.786 236.673C171.305 234.354 174.835 232.026 178.358 229.7C180.919 228.009 181.937 224.751 180.8 221.923L173.358 203.385L157.689 211.364L157.683 211.365Z" fill="#FE9878"/>
<path d="M156.275 162.259C149.542 160.663 142.803 159.069 136.069 157.473C135.538 157.346 127.279 172.281 126.198 174.072C123.762 178.097 121.853 182.443 120.541 186.969C119.051 192.099 119.97 196.405 120.267 201.649C120.345 203.028 121.174 218.182 121.206 218.18C114.705 218.457 109.65 222.13 108.686 226.703C108.239 228.858 108.589 231.66 110.375 233.84C112.774 236.75 117.16 237.81 121.377 236.347C125.486 235.391 129.602 234.433 133.711 233.477C136.697 232.781 138.782 230.078 138.695 227.029C138.518 220.443 138.334 213.858 138.156 207.272C138.06 203.832 137.14 199.261 137.828 195.905C139.074 189.855 143.144 184.604 146.438 179.533C147.645 177.682 155.441 162.066 156.269 162.261L156.275 162.259Z" fill="#F2F2F2"/>
<path opacity="0.99" d="M120.699 209.102C120.87 212.128 121.041 215.153 121.212 218.179C114.711 218.456 109.656 222.128 108.692 226.702C108.246 228.856 108.595 231.659 110.381 233.839C112.78 236.749 117.166 237.809 121.383 236.346C125.492 235.389 129.608 234.432 133.717 233.475C136.703 232.78 138.788 230.076 138.701 227.028L138.157 207.059L120.693 209.104L120.699 209.102Z" fill="#FE9878"/>
<path opacity="0.99" d="M214.301 168.464C221.145 153.58 214.867 135.868 200.026 128.632C197.28 127.293 194.428 126.408 191.563 125.941C189.464 117.559 183.809 110.11 175.421 106.019C162.492 99.716 147.302 103.428 138.633 114.121C138.397 114.002 138.172 113.878 137.929 113.76C122.889 106.423 104.754 112.651 97.4428 127.66C90.1252 142.669 96.3903 160.785 111.43 168.116L183.454 203.228C184.196 203.695 184.955 204.131 185.765 204.523C197.479 210.234 211.585 205.382 217.277 193.705C221.438 185.18 219.949 175.358 214.301 168.464Z" fill="#6F92FF"/>
<path opacity="0.99" d="M123.114 135.625C126.738 137.394 131.104 135.893 132.866 132.275C134.629 128.657 133.122 124.297 129.497 122.528C125.872 120.76 121.507 122.261 119.744 125.873C117.982 129.485 119.489 133.851 123.114 135.619V135.625Z" fill="#ED7B69"/>
<path opacity="0.99" d="M160.997 156.806C164.622 158.575 168.987 157.074 170.75 153.462C172.512 149.849 171.005 145.484 167.381 143.715C163.756 141.946 159.39 143.447 157.628 147.066C155.865 150.684 157.373 155.043 160.997 156.812V156.806Z" fill="#ED7B69"/>
<path opacity="0.99" d="M154.682 144.5C159.39 146.611 165.126 144.033 167.499 138.745C169.872 133.458 167.978 127.454 163.276 125.343C158.574 123.232 152.833 125.81 150.46 131.098C148.087 136.385 149.98 142.389 154.682 144.5Z" fill="white"/>
<path opacity="0.99" d="M152.658 137.556C155 138.609 157.808 137.419 158.942 134.903C160.075 132.387 159.085 129.497 156.744 128.451C154.402 127.399 151.587 128.588 150.46 131.104C149.332 133.62 150.316 136.51 152.658 137.556Z" fill="#221714"/>
<path opacity="0.99" d="M135.314 136.448C140.022 138.559 145.758 135.98 148.131 130.693C150.503 125.406 148.61 119.402 143.908 117.291C139.2 115.18 133.464 117.758 131.091 123.045C128.719 128.333 130.612 134.336 135.314 136.448Z" fill="white"/>
<path opacity="0.99" d="M133.296 129.497C135.638 130.55 138.446 129.36 139.58 126.844C140.713 124.328 139.723 121.438 137.381 120.392C135.04 119.346 132.225 120.529 131.098 123.045C129.97 125.561 130.954 128.451 133.296 129.497Z" fill="#221714"/>
<path opacity="0.99" d="M133.134 138.216L153.91 148.342C153.343 148.953 149.999 152.403 144.687 152.403C143.223 152.403 139.343 152.135 136.273 149.071C131.963 144.774 133.034 138.752 133.14 138.216H133.134Z" fill="#ED7B69"/>
<path opacity="0.99" d="M65.8691 133.309C65.8691 133.309 75.2835 106.956 62.8305 95.8301" stroke="#DAB7B7" stroke-width="0.641077" stroke-miterlimit="10"/>
<path opacity="0.99" d="M79.9304 126.103C79.9304 126.103 81.7987 104.113 89.1038 91.8999" stroke="#DAB7B7" stroke-width="0.641077" stroke-miterlimit="10"/>
<path opacity="0.99" d="M118.075 108.142L139.505 57.3176" stroke="#DAB7B7" stroke-width="0.641077" stroke-miterlimit="10"/>
<path opacity="0.99" d="M93.5567 121.083C93.4633 120.056 100.775 103.795 100.775 103.795" stroke="#DAB7B7" stroke-width="0.641077" stroke-miterlimit="10"/>
<path opacity="0.99" d="M157.217 99.5524C157.217 99.5524 163.598 91.4039 205.427 81.3922" stroke="#DAB7B7" stroke-width="0.641077" stroke-miterlimit="10"/>
<path d="M104.929 135.44L90.1727 146.395C88.6234 147.545 88.2999 149.733 89.4501 151.283L96.6036 160.918C97.7538 162.468 99.9422 162.791 101.491 161.641L116.248 150.686C117.797 149.536 118.12 147.347 116.97 145.798L109.817 136.162C108.667 134.613 106.478 134.29 104.929 135.44Z" fill="#F7DFBC"/>
<g opacity="0.99">
<path d="M106.747 135.943C105.122 139.717 103.496 143.485 101.871 147.259L102.543 146.873C98.4643 147.334 94.3789 147.801 90.2997 148.262C89.3157 148.374 89.3032 149.931 90.2997 149.819C94.3789 149.358 98.4643 148.891 102.543 148.43C102.799 148.399 103.104 148.305 103.216 148.044C104.841 144.27 106.467 140.502 108.092 136.728C108.485 135.819 107.146 135.022 106.747 135.943Z" fill="#DAB7B7"/>
</g>
<path d="M229.756 73.6575L215.049 69.8841C213.18 69.4046 211.276 70.531 210.796 72.4L208.408 81.708C207.928 83.577 209.055 85.4809 210.924 85.9604L225.631 89.7338C227.5 90.2133 229.404 89.0869 229.883 87.2179L232.271 77.9099C232.751 76.0409 231.625 74.137 229.756 73.6575Z" fill="#F7DFBC"/>
<g opacity="0.99">
<path d="M230.775 75.2838C227.319 76.2554 223.862 77.2269 220.406 78.2046L221.066 78.379C218.506 75.863 215.947 73.347 213.381 70.831C212.758 70.2144 211.793 71.1797 212.416 71.7963C214.975 74.3123 217.535 76.8283 220.101 79.3443C220.275 79.5125 220.53 79.5872 220.761 79.5187C224.217 78.5472 227.674 77.5756 231.13 76.5979C231.971 76.3612 231.616 75.0472 230.769 75.2838H230.775Z" fill="#DAB7B7"/>
</g>
<path d="M229.802 117.538L214.714 115.832C212.797 115.615 211.067 116.994 210.85 118.911L209.771 128.46C209.554 130.377 210.933 132.107 212.85 132.324L227.937 134.03C229.854 134.246 231.584 132.868 231.801 130.951L232.881 121.402C233.097 119.485 231.719 117.755 229.802 117.538Z" fill="#F7DFBC"/>
<g opacity="0.99">
<path d="M230.947 119.072C227.659 120.51 224.371 121.955 221.083 123.394H221.768C218.884 121.258 216.001 119.115 213.117 116.979C212.414 116.456 211.735 117.639 212.432 118.156C215.316 120.292 218.199 122.435 221.083 124.571C221.288 124.72 221.562 124.664 221.768 124.571C225.056 123.132 228.344 121.687 231.632 120.249C232.436 119.9 231.738 118.723 230.947 119.072Z" fill="#DAB7B7"/>
</g>
<path d="M67.8655 88.0962L59.4963 71.7343C58.6176 70.0164 56.5127 69.3361 54.7948 70.2148L44.1105 75.6799C42.3926 76.5586 41.7123 78.6635 42.591 80.3814L50.9602 96.7433C51.8389 98.4612 53.9439 99.1414 55.6618 98.2627L66.3461 92.7977C68.0639 91.919 68.7442 89.814 67.8655 88.0962Z" fill="#F7DFBC"/>
<g opacity="0.99">
<path d="M66.9654 89.7368C63.5152 87.5135 60.0588 85.2839 56.6086 83.0606L56.9948 83.7332C57.2127 79.6291 57.4307 75.5313 57.6425 71.4272C57.6923 70.4245 56.1353 70.4307 56.0855 71.4272C55.8675 75.5313 55.6496 79.6291 55.4378 83.7332C55.4254 84.0135 55.5997 84.2626 55.8239 84.4058C59.2741 86.6291 62.7305 88.8587 66.1807 91.082C67.0277 91.6238 67.8062 90.2786 66.9654 89.7368Z" fill="#DAB7B7"/>
</g>
<path d="M72.5421 39.5848L65.5298 56.5725C64.7936 58.3561 65.6427 60.3988 67.4262 61.1351L78.5192 65.7141C80.3028 66.4503 82.3455 65.6012 83.0817 63.8177L90.094 46.8299C90.8302 45.0463 89.9812 43.0036 88.1976 42.2674L77.1046 37.6884C75.321 36.9522 73.2783 37.8012 72.5421 39.5848Z" fill="#F7DFBC"/>
<g opacity="0.99">
<path d="M74.3876 39.2687C74.9357 43.3416 75.4837 47.4084 76.0318 51.4813L76.3868 50.6032C73.1234 53.1005 69.8663 55.5979 66.6029 58.1014C65.8182 58.7055 66.5905 60.057 67.3876 59.4466C70.651 56.9493 73.9081 54.452 77.1715 51.9484C77.4828 51.7118 77.5825 51.4564 77.5264 51.0703C76.9784 46.9973 76.4304 42.9306 75.8823 38.8577C75.7515 37.8674 74.2506 38.2909 74.3814 39.2687H74.3876Z" fill="#DAB7B7"/>
</g>
<path d="M72.2893 132.465L70.1355 150.716C69.9094 152.632 71.2795 154.369 73.1958 154.595L85.114 156.002C87.0302 156.228 88.767 154.858 88.9931 152.941L91.1468 134.69C91.373 132.774 90.0028 131.037 88.0866 130.811L76.1684 129.404C74.2521 129.178 72.5154 130.548 72.2893 132.465Z" fill="#F7DFBC"/>
<g opacity="0.99">
<path d="M73.9766 131.664C75.6083 135.432 77.2337 139.206 78.8654 142.974V142.189C76.4054 145.477 73.9392 148.766 71.4793 152.048C70.8752 152.851 72.2266 153.629 72.8245 152.832C75.2844 149.544 77.7506 146.256 80.2106 142.974C80.385 142.737 80.3165 142.426 80.2106 142.189C78.5789 138.421 76.9535 134.647 75.3218 130.879C74.9232 129.964 73.5843 130.755 73.9766 131.664Z" fill="#DAB7B7"/>
</g>
<path d="M137.485 35.9086L127.307 51.2108C126.238 52.8175 126.674 54.9862 128.281 56.0548L138.273 62.7012C139.88 63.7699 142.049 63.3338 143.117 61.7272L153.295 46.425C154.364 44.8184 153.928 42.6496 152.321 41.581L142.329 34.9346C140.722 33.8659 138.554 34.302 137.485 35.9086Z" fill="#F7DFBC"/>
<g opacity="0.99">
<path d="M139.345 35.8991C139.096 39.9969 138.841 44.101 138.591 48.1989L138.978 47.5263C135.297 49.3448 131.61 51.1633 127.93 52.9818C127.033 53.424 127.817 54.7692 128.714 54.327C132.395 52.5085 136.082 50.69 139.762 48.8715C140.011 48.747 140.13 48.4605 140.148 48.1989C140.397 44.101 140.653 39.9969 140.902 35.8991C140.964 34.8964 139.407 34.9026 139.345 35.8991Z" fill="#DAB7B7"/>
</g>
<path d="M150.555 84.1405L166.569 75.1242C168.251 74.1776 168.846 72.0471 167.9 70.3657L162.012 59.9083C161.065 58.2269 158.935 57.6313 157.254 58.578L141.239 67.5943C139.558 68.5409 138.962 70.6713 139.909 72.3527L145.796 82.8101C146.743 84.4915 148.873 85.0871 150.555 84.1405Z" fill="#F7DFBC"/>
<g opacity="0.99">
<path d="M148.872 83.3436C150.958 79.8062 153.044 76.2689 155.124 72.7253L154.452 73.1114C158.556 73.1612 162.666 73.2173 166.77 73.2671C167.773 73.2795 167.773 71.7226 166.77 71.7101C162.666 71.6603 158.556 71.6043 154.452 71.5544C154.178 71.5544 153.916 71.7039 153.779 71.9406C151.693 75.4779 149.607 79.0153 147.527 82.5589C147.016 83.4246 148.361 84.2093 148.872 83.3436Z" fill="#DAB7B7"/>
</g>
<path d="M90.1563 79.8057L105.234 70.2648C106.816 69.2621 109.344 69.5735 110.876 70.9561L120.398 79.5504C121.93 80.933 121.887 82.8698 120.305 83.8725L105.228 93.4134C103.646 94.4161 101.117 94.1047 99.5852 92.7221L90.0629 84.1278C88.5309 82.7452 88.5745 80.8084 90.1563 79.8057Z" fill="#F7DFBC"/>
<g opacity="0.99">
<path d="M103.029 92.8095C104.306 89.4901 105.589 86.1645 106.865 82.8451L106.112 83.418C110.085 83.0942 114.052 82.7766 118.026 82.4527C118.605 82.4029 119.184 82.3593 119.769 82.3095C120.76 82.2285 120.772 80.6716 119.769 80.7526C115.796 81.0764 111.829 81.394 107.856 81.7179C107.276 81.7677 106.697 81.8113 106.112 81.8611C105.738 81.8922 105.495 82.0853 105.358 82.4341C104.082 85.7535 102.799 89.0791 101.522 92.3985C101.161 93.3326 102.668 93.7374 103.023 92.8095H103.029Z" fill="#DAB7B7"/>
</g>
<path d="M104.117 171.14C98.9605 159.507 93.8039 147.873 88.6473 136.24C88.2674 135.387 87.4516 134.814 86.5237 134.751C80.8003 134.365 75.077 133.985 69.3537 133.599C67.4979 133.475 66.1589 135.337 66.8626 137.056L80.7817 171.047C81.1304 171.9 81.9151 172.492 82.8306 172.591C89.0708 173.276 95.311 173.968 101.551 174.653C103.476 174.864 104.908 172.909 104.123 171.14H104.117Z" fill="#464646"/>
<path opacity="0.99" d="M191.985 179.456L164.888 159.602C164.888 159.602 105.1 154.299 105.081 154.297C102.891 154.103 99.2034 154.308 98.1049 156.618C97.5826 157.716 97.7348 159.105 98.4751 160.064C97.3871 160.137 96.3671 160.853 95.9229 161.845C95.0817 163.722 96.7837 168.58 98.0317 170.091C99.3142 171.636 101.095 172.775 102.873 173.664C102.897 173.679 102.94 173.689 102.989 173.7C128.87 181.923 191.979 179.455 191.979 179.455L191.985 179.456Z" fill="#F2F2F2"/>
<g opacity="0.99">
<path d="M98.0345 159.957C98.6639 160.969 99.607 161.828 100.579 162.501C102.866 164.073 105.629 164.568 108.36 164.228C108.859 164.166 108.714 163.403 108.222 163.459C105.668 163.777 103.078 163.298 100.953 161.803C100.329 161.366 99.7614 160.86 99.2622 160.284C99.1202 160.122 98.9794 159.947 98.851 159.773C98.812 159.719 98.6518 159.48 98.7458 159.62C98.4831 159.196 97.7786 159.528 98.0412 159.951L98.0345 159.957Z" fill="#DAB7B7"/>
</g>
<g opacity="0.99">
<path d="M96.123 165.308C96.8681 166.355 97.986 167.217 99.0645 167.888C101.708 169.522 104.792 170.076 107.866 169.811C108.395 169.764 108.249 168.951 107.72 168.991C104.803 169.24 101.833 168.683 99.3547 167.082C98.4026 166.466 97.4321 165.705 96.7645 164.771C96.4528 164.337 95.8181 164.868 96.1298 165.302L96.123 165.308Z" fill="#DAB7B7"/>
</g>
<path d="M195.379 182.736C192.06 186.628 186.505 187.488 182.544 185.003C179.212 182.917 177.499 178.757 178.34 174.634C173.495 175.456 168.843 173.463 166.931 169.963C164.328 165.199 166.812 157.676 173.651 154.861" fill="#6E92FF"/>
<path d="M145.625 131.8C143.239 136.779 137.27 138.886 132.29 136.5C127.311 134.113 125.204 128.145 127.59 123.165" stroke="#3D3A39" stroke-width="0.724821" stroke-miterlimit="10"/>
<path d="M127.586 123.165C129.973 118.186 135.941 116.079 140.921 118.465C145.9 120.852 148.007 126.82 145.621 131.8" stroke="#3D3A39" stroke-width="0.724821" stroke-miterlimit="10"/>
<path d="M158.306 147.87C163.828 147.87 168.304 143.393 168.304 137.872C168.304 132.35 163.828 127.874 158.306 127.874C152.784 127.874 148.308 132.35 148.308 137.872C148.308 143.393 152.784 147.87 158.306 147.87Z" stroke="#3D3A39" stroke-width="0.724821" stroke-miterlimit="10"/>
<path d="M145.625 131.8L149.284 133.554" stroke="#3D3A39" stroke-width="0.724821" stroke-miterlimit="10"/>
<defs>
<filter id="filter0_d_1506_5098" x="0" y="0" width="283" height="341" filterUnits="userSpaceOnUse" color-interpolation-filters="sRGB">
<feFlood flood-opacity="0" result="BackgroundImageFix"/>
<feColorMatrix in="SourceAlpha" type="matrix" values="0 0 0 0 0 0 0 0 0 0 0 0 0 0 0 0 0 0 127 0" result="hardAlpha"/>
<feMorphology radius="1" operator="dilate" in="SourceAlpha" result="effect1_dropShadow_1506_5098"/>
<feOffset dx="1" dy="1"/>
<feGaussianBlur stdDeviation="5"/>
<feComposite in2="hardAlpha" operator="out"/>
<feColorMatrix type="matrix" values="0 0 0 0 0 0 0 0 0 0 0 0 0 0 0 0 0 0 0.1 0"/>
<feBlend mode="normal" in2="BackgroundImageFix" result="effect1_dropShadow_1506_5098"/>
<feBlend mode="normal" in="SourceGraphic" in2="effect1_dropShadow_1506_5098" result="shape"/>
</filter>
</defs>
</svg>
