<svg width="225" height="312" viewBox="0 0 225 312" fill="none" xmlns="http://www.w3.org/2000/svg">
<g clip-path="url(#clip0_1468_24339)">
<path d="M74.6824 251.242C74.3421 263.71 74.0245 276.177 73.6842 288.645C65.7101 288.315 59.1652 292.296 57.5204 297.802C56.7491 300.396 56.8966 303.865 58.8589 306.72C61.4905 310.531 66.7423 312.283 72.0395 310.929C77.1552 310.178 82.2822 309.428 87.3979 308.677C91.1184 308.131 93.9428 305.037 94.147 301.294L97.9015 234.463L74.6711 251.254H74.6824V251.242Z" fill="#F2F2F2"/>
<path d="M73.9791 277.462C73.877 281.182 73.775 284.913 73.6842 288.633C65.7101 288.303 59.1652 292.284 57.5204 297.79C56.7491 300.384 56.8966 303.853 58.8589 306.708C61.4905 310.519 66.7423 312.271 72.0395 310.917C77.1552 310.167 82.2822 309.416 87.3979 308.665C91.1184 308.119 93.9428 305.025 94.147 301.282L95.5195 276.757L73.9678 277.473L73.9791 277.462Z" fill="#FE9979"/>
<mask id="path-3-inside-1_1468_24339" fill="white">
<path d="M37.3752 209.107C37.3752 209.107 1.80352 183.99 31.5903 146.622C41.0503 141.514 53.2441 133.995 51.951 129.547C51.554 128.148 49.8639 127.227 48.0717 126.226C47.6406 125.998 40.7554 122.301 36.9895 125.077C33.3938 127.727 34.8117 134.689 32.6792 134.985C31.9759 135.087 31.3861 134.359 31.1139 134.109C28.8906 132.027 30.6488 127.784 31.9192 125.543C33.8248 122.187 37.1143 120.015 40.7327 118.888C42.4342 118.877 43.8407 118.035 44.3058 116.795C44.3739 116.625 44.6801 115.794 44.3398 115.032C43.5798 113.337 40.1996 113.36 38.8044 113.371C37.2504 113.383 30.6148 113.451 25.4537 118.411C18.0581 125.52 20.2926 136.35 20.4288 137.044C17.0372 139.728 12.8062 143.801 9.28991 149.682C0.408334 164.606 2.84708 180.1 3.81124 184.946C4.55988 189.325 6.02313 194.922 8.99499 200.917C15.0408 213.168 23.9451 220.266 28.7885 223.599"/>
</mask>
<path d="M37.3752 209.107C37.3752 209.107 1.80352 183.99 31.5903 146.622C41.0503 141.514 53.2441 133.995 51.951 129.547C51.554 128.148 49.8639 127.227 48.0717 126.226C47.6406 125.998 40.7554 122.301 36.9895 125.077C33.3938 127.727 34.8117 134.689 32.6792 134.985C31.9759 135.087 31.3861 134.359 31.1139 134.109C28.8906 132.027 30.6488 127.784 31.9192 125.543C33.8248 122.187 37.1143 120.015 40.7327 118.888C42.4342 118.877 43.8407 118.035 44.3058 116.795C44.3739 116.625 44.6801 115.794 44.3398 115.032C43.5798 113.337 40.1996 113.36 38.8044 113.371C37.2504 113.383 30.6148 113.451 25.4537 118.411C18.0581 125.52 20.2926 136.35 20.4288 137.044C17.0372 139.728 12.8062 143.801 9.28991 149.682C0.408334 164.606 2.84708 180.1 3.81124 184.946C4.55988 189.325 6.02313 194.922 8.99499 200.917C15.0408 213.168 23.9451 220.266 28.7885 223.599" fill="#F2F2F2"/>
<path d="M31.5903 146.622L31.1363 145.781L30.9647 145.874L30.8431 146.026L31.5903 146.622ZM51.951 129.547L51.0317 129.808L51.0334 129.814L51.951 129.547ZM48.0717 126.226L48.5376 125.391L48.5277 125.386L48.5177 125.38L48.0717 126.226ZM36.9895 125.077L36.4226 124.307L36.4226 124.307L36.9895 125.077ZM32.6792 134.985L32.5479 134.038L32.5415 134.039L32.6792 134.985ZM31.1139 134.109L30.4607 134.806L30.4672 134.812L31.1139 134.109ZM31.9192 125.543L31.0883 125.071L31.088 125.072L31.9192 125.543ZM40.7327 118.888L40.7264 117.933L40.5844 117.934L40.4488 117.976L40.7327 118.888ZM44.3058 116.795L43.4182 116.441L43.4146 116.45L43.4111 116.46L44.3058 116.795ZM44.3398 115.032L45.2124 114.642L45.2117 114.641L44.3398 115.032ZM38.8044 113.371L38.8114 114.327L38.8122 114.327L38.8044 113.371ZM25.4537 118.411L24.7916 117.722L24.7915 117.722L25.4537 118.411ZM20.4288 137.044L21.0218 137.793L21.4786 137.431L21.3664 136.86L20.4288 137.044ZM9.28991 149.682L8.46977 149.191L8.46876 149.193L9.28991 149.682ZM3.81124 184.946L4.75313 184.785L4.75095 184.772L4.74842 184.759L3.81124 184.946ZM8.99499 200.917L9.85189 200.494L9.85112 200.492L8.99499 200.917ZM37.3752 209.107C37.9264 208.327 37.9267 208.327 37.9268 208.327C37.9267 208.327 37.9267 208.327 37.9264 208.327C37.9259 208.326 37.9249 208.325 37.9233 208.324C37.9201 208.322 37.9148 208.318 37.9075 208.313C37.8928 208.302 37.8698 208.286 37.839 208.263C37.7773 208.218 37.684 208.149 37.5623 208.056C37.3189 207.87 36.9618 207.591 36.5156 207.22C35.6227 206.478 34.3745 205.373 32.9662 203.931C30.1463 201.043 26.7034 196.821 24.1768 191.47C21.6535 186.125 20.0467 179.66 20.8775 172.256C21.7081 164.854 24.9836 156.443 32.3375 147.217L30.8431 146.026C23.3036 155.485 19.8555 164.226 18.9783 172.043C18.1012 179.859 19.8024 186.68 22.4486 192.286C25.0916 197.884 28.6799 202.277 31.5989 205.266C33.06 206.763 34.3582 207.912 35.2943 208.69C35.7625 209.079 36.1405 209.375 36.4037 209.576C36.5352 209.676 36.6381 209.753 36.7092 209.805C36.7447 209.831 36.7723 209.851 36.7916 209.865C36.8012 209.871 36.8088 209.877 36.8142 209.881C36.8169 209.883 36.8191 209.884 36.8207 209.885C36.8216 209.886 36.8224 209.887 36.8228 209.887C36.8235 209.887 36.824 209.888 37.3752 209.107ZM32.0442 147.463C36.785 144.903 42.2502 141.719 46.3791 138.599C48.4385 137.044 50.2126 135.469 51.3966 133.964C52.5445 132.504 53.3289 130.864 52.8685 129.28L51.0334 129.814C51.2196 130.454 50.9647 131.422 49.8944 132.782C48.86 134.098 47.237 135.556 45.2271 137.075C41.2173 140.104 35.8556 143.233 31.1363 145.781L32.0442 147.463ZM52.8702 129.286C52.5887 128.294 51.8743 127.556 51.1136 126.977C50.3517 126.396 49.4133 125.88 48.5376 125.391L47.6057 127.06C48.5223 127.572 49.325 128.017 49.9554 128.497C50.5871 128.978 50.9163 129.401 51.0317 129.808L52.8702 129.286ZM48.5177 125.38C48.2907 125.261 46.3837 124.237 44.03 123.602C41.7422 122.985 38.685 122.64 36.4226 124.307L37.5565 125.846C39.06 124.738 41.3283 124.853 43.5323 125.447C45.6705 126.024 47.4216 126.963 47.6256 127.071L48.5177 125.38ZM36.4226 124.307C34.274 125.891 33.6972 128.691 33.3438 130.752C33.1529 131.866 33.0325 132.747 32.8323 133.407C32.7346 133.729 32.642 133.909 32.572 134C32.5415 134.039 32.5259 134.048 32.5298 134.045C32.5316 134.044 32.5355 134.042 32.5408 134.04C32.5461 134.038 32.5491 134.038 32.5479 134.038L32.8105 135.931C33.9714 135.77 34.435 134.707 34.6611 133.962C34.9071 133.151 35.0568 132.07 35.2275 131.075C35.5972 128.919 36.1093 126.913 37.5565 125.846L36.4226 124.307ZM32.5415 134.039C32.5621 134.036 32.4983 134.056 32.3054 133.912C32.2193 133.848 32.1324 133.77 32.0411 133.681C31.9951 133.636 31.9534 133.594 31.9069 133.548C31.8651 133.506 31.8121 133.453 31.7606 133.405L30.4672 134.812C30.4931 134.836 30.8502 135.212 31.1644 135.445C31.5103 135.703 32.093 136.036 32.8169 135.93L32.5415 134.039ZM31.767 133.411C31.0232 132.715 30.8444 131.567 31.1434 130.073C31.4358 128.612 32.1399 127.091 32.7505 126.014L31.088 125.072C30.4282 126.236 29.6179 127.957 29.2695 129.698C28.9276 131.406 28.9813 133.421 30.4608 134.806L31.767 133.411ZM32.7501 126.015C34.5056 122.924 37.5635 120.875 41.0167 119.801L40.4488 117.976C36.6651 119.154 33.1441 121.451 31.0883 125.071L32.7501 126.015ZM40.7391 119.844C42.7113 119.831 44.5571 118.846 45.2005 117.131L43.4111 116.46C43.1244 117.224 42.157 117.923 40.7264 117.933L40.7391 119.844ZM45.1934 117.149C45.2664 116.966 45.7274 115.796 45.2124 114.642L43.4673 115.422C43.5415 115.588 43.5572 115.792 43.5285 116.011C43.5003 116.226 43.4371 116.394 43.4182 116.441L45.1934 117.149ZM45.2117 114.641C44.9082 113.964 44.3649 113.512 43.7978 113.212C43.2341 112.913 42.5924 112.734 41.983 112.622C40.7668 112.398 39.4864 112.41 38.7966 112.416L38.8122 114.327C39.5176 114.321 40.6249 114.316 41.6377 114.502C42.1427 114.594 42.5758 114.727 42.9032 114.9C43.2272 115.072 43.3915 115.253 43.4679 115.423L45.2117 114.641ZM38.7974 112.416C37.2171 112.427 30.2402 112.486 24.7916 117.722L26.1158 119.1C30.9894 114.416 37.2837 114.338 38.8114 114.327L38.7974 112.416ZM24.7915 117.722C20.8734 121.488 19.5273 126.223 19.1655 130.043C18.8037 133.864 19.4174 136.852 19.4911 137.228L21.3664 136.86C21.304 136.541 20.7324 133.768 21.0681 130.223C21.4039 126.678 22.6384 122.443 26.1159 119.099L24.7915 117.722ZM19.8357 136.294C16.3789 139.031 12.0602 143.186 8.46977 149.191L10.1101 150.172C13.5523 144.415 17.6955 140.426 21.0218 137.793L19.8357 136.294ZM8.46876 149.193C-0.599427 164.431 1.89737 180.223 2.87405 185.132L4.74842 184.759C3.7968 179.976 1.4161 164.781 10.1111 150.17L8.46876 149.193ZM2.86934 185.107C3.63001 189.557 5.11721 195.246 8.13886 201.341L9.85112 200.492C6.92904 194.598 5.48974 189.094 4.75313 184.785L2.86934 185.107ZM8.1381 201.34C14.2842 213.794 23.3331 221.005 28.2469 224.387L29.3302 222.812C24.5571 219.528 15.7975 212.542 9.85189 200.494L8.1381 201.34Z" fill="#BDBDBD" mask="url(#path-3-inside-1_1468_24339)"/>
<path d="M65.5853 91.7917C62.8403 93.2023 59.8798 95.0224 56.8512 97.3316C52.9719 100.312 49.4555 103.793 46.427 107.638C44.7822 109.719 43.5345 111.619 42.8426 112.7C41.6289 114.622 40.6307 116.397 39.8367 117.944C38.4074 118.297 33.6434 119.65 30.7396 124.212C30.0703 125.27 26.9737 130.104 29.0721 134.279C29.7868 135.712 30.8984 136.611 31.6697 137.134C33.2464 137.68 34.9478 137.339 36.0594 136.258C37.2391 135.11 37.2618 133.574 37.2618 133.267C37.137 131.492 37.931 129.843 39.3376 129.069C40.5513 128.398 41.7877 128.614 42.1733 128.694C42.4682 128.785 43.1035 129.012 43.6139 129.627C44.4306 130.616 44.0449 131.685 44.4192 132.778C44.8503 134.052 46.0526 135.166 47.4138 135.303C49.0358 135.462 50.2269 134.154 50.828 133.471C53.5163 130.491 52.4955 126.123 52.3934 125.702C52.0871 124.473 51.5767 123.529 51.2024 122.938C52.7337 120.481 55.1497 117.182 58.7908 114.042C63.5209 109.958 68.2623 107.888 71.3702 106.819C69.4419 101.814 67.5136 96.8083 65.5853 91.8031H65.5966L65.5853 91.7917Z" fill="#FF8F6B" stroke="white" stroke-width="1.30526" stroke-miterlimit="10"/>
<path d="M115.2 137.578C146.983 137.578 172.754 111.79 172.754 79.9844C172.754 48.1786 146.983 22.3904 115.2 22.3904C83.4165 22.3904 57.6452 48.1786 57.6452 79.9844C57.6452 111.79 83.4165 137.578 115.2 137.578Z" fill="#FF8F6B"/>
<path d="M117.74 249.501C121.586 261.366 125.454 273.219 129.299 285.073C121.677 287.439 116.844 293.399 117.128 299.133C117.275 301.829 118.569 305.059 121.37 307.084C125.125 309.791 130.66 309.666 135.197 306.606C139.769 304.183 144.351 301.749 148.922 299.315C152.246 297.551 153.868 293.684 152.813 290.089L134.006 225.863L117.729 249.501H117.74Z" fill="#F2F2F2"/>
<path d="M125.851 274.448C127.008 277.986 128.153 281.535 129.299 285.072C121.677 287.439 116.844 293.399 117.128 299.133C117.275 301.828 118.569 305.059 121.37 307.084C125.125 309.791 130.66 309.666 135.197 306.606C139.769 304.183 144.351 301.749 148.922 299.314C152.246 297.551 153.868 293.684 152.813 290.089L145.905 266.519L125.851 274.436V274.448Z" fill="#FE9979"/>
<path d="M197.97 178.553C197.38 152.105 175.783 130.832 149.195 130.832C144.272 130.832 139.519 131.572 135.05 132.914C126.089 122.233 112.659 115.419 97.618 115.419C74.4555 115.419 55.0817 131.56 50.0794 153.219C49.6484 153.219 49.24 153.197 48.809 153.197C21.858 153.197 0 175.06 0 202.031C0 229.003 21.858 250.866 48.809 250.866H177.858C179.254 251.026 180.672 251.117 182.123 251.117C203.108 251.117 220.111 234.099 220.111 213.111C220.111 197.788 211.037 184.582 197.981 178.575L197.97 178.553Z" fill="#6F92FF"/>
<path d="M67.8312 209.13C74.3194 209.13 79.5826 203.863 79.5826 197.368C79.5826 190.872 74.3194 185.605 67.8312 185.605C61.343 185.605 56.0799 190.872 56.0799 197.368C56.0799 203.863 61.343 209.13 67.8312 209.13Z" fill="#ED7B69"/>
<path d="M137.625 213.078C144.113 213.078 149.376 207.811 149.376 201.315C149.376 194.82 144.113 189.553 137.625 189.553C131.137 189.553 125.873 194.82 125.873 201.315C125.873 207.811 131.137 213.078 137.625 213.078Z" fill="#ED7B69"/>
<path d="M108.995 31.479C108.995 31.479 103.21 1.82321 142.752 0.0827637C142.899 0.913173 145.1 15.6671 133.711 25.5638C123.185 34.7211 110.209 31.7634 108.984 31.4677L108.995 31.479Z" fill="#42CA89"/>
<path d="M125.896 17.5671C125.896 17.5671 119.635 17.8629 110.05 31.5703" stroke="#888888" stroke-width="1.45443" stroke-miterlimit="10"/>
<path d="M77.0758 83.9652C82.4637 83.9652 86.8421 79.597 86.8421 74.1936C86.8421 68.7903 82.4751 64.4221 77.0758 64.4221C71.6765 64.4221 67.3094 68.7903 67.3094 74.1936C67.3094 79.597 71.6765 83.9652 77.0758 83.9652Z" fill="#FF7364" stroke="#FF8F6B" stroke-width="1.95789" stroke-miterlimit="10"/>
<path d="M115.789 83.9652C121.177 83.9652 125.556 79.597 125.556 74.1936C125.556 68.7903 121.189 64.4221 115.789 64.4221C110.39 64.4221 106.023 68.7903 106.023 74.1936C106.023 79.597 110.39 83.9652 115.789 83.9652Z" fill="#FF7364" stroke="#FF8F6B" stroke-width="1.95789" stroke-miterlimit="10"/>
<path d="M88.5776 72.7606C93.5004 72.7606 97.4818 66.5382 97.4818 58.8711C97.4818 51.2041 93.4891 44.9817 88.5776 44.9817C83.666 44.9817 79.6733 51.2041 79.6733 58.8711C79.6733 66.5382 83.666 72.7606 88.5776 72.7606Z" fill="white" stroke="#FF8F6B" stroke-width="1.45443" stroke-miterlimit="10"/>
<path d="M84.1765 65.4577C86.6266 65.4577 88.6116 62.5001 88.6116 58.86C88.6116 55.2198 86.6266 52.2622 84.1765 52.2622C81.7264 52.2622 79.73 55.2198 79.73 58.86C79.73 62.5001 81.7151 65.4577 84.1765 65.4577Z" fill="#221714"/>
<path d="M87.0236 57.4377C87.534 57.4377 87.9424 56.8234 87.9424 56.0612C87.9424 55.2991 87.534 54.6848 87.0236 54.6848C86.5132 54.6848 86.1048 55.2991 86.1048 56.0612C86.1048 56.8234 86.5132 57.4377 87.0236 57.4377Z" fill="white"/>
<path d="M104.605 72.7606C109.528 72.7606 113.51 66.5382 113.51 58.8711C113.51 51.2041 109.517 44.9817 104.605 44.9817C99.6937 44.9817 95.701 51.2041 95.701 58.8711C95.701 66.5382 99.6937 72.7606 104.605 72.7606Z" fill="white" stroke="#FF8F6B" stroke-width="1.45443" stroke-miterlimit="10"/>
<path d="M100.216 65.4577C102.666 65.4577 104.662 62.5001 104.662 58.86C104.662 55.2198 102.677 52.2622 100.216 52.2622C97.7541 52.2622 95.7804 55.2198 95.7804 58.86C95.7804 62.5001 97.7654 65.4577 100.216 65.4577Z" fill="#221714"/>
<path d="M103.051 57.4377C103.562 57.4377 103.97 56.8234 103.97 56.0612C103.97 55.2991 103.562 54.6848 103.051 54.6848C102.541 54.6848 102.133 55.2991 102.133 56.0612C102.133 56.8234 102.541 57.4377 103.051 57.4377Z" fill="white"/>
<path d="M119.283 200.223C127.586 200.223 134.324 192.636 134.324 183.262C134.324 173.889 127.586 166.302 119.283 166.302C110.98 166.302 104.242 173.889 104.242 183.262C104.242 192.636 110.98 200.223 119.283 200.223Z" fill="white"/>
<path d="M111.74 191.327C115.869 191.327 119.226 187.721 119.226 183.273C119.226 178.825 115.88 175.219 111.74 175.219C107.6 175.219 104.254 178.825 104.254 183.273C104.254 187.721 107.6 191.327 111.74 191.327Z" fill="#221714"/>
<path d="M84.1765 200.223C92.4796 200.223 99.2173 192.636 99.2173 183.262C99.2173 173.889 92.4796 166.302 84.1765 166.302C75.8734 166.302 69.1357 173.889 69.1357 183.262C69.1357 192.636 75.8734 200.223 84.1765 200.223Z" fill="white"/>
<path d="M76.6107 191.327C80.7396 191.327 84.0971 187.721 84.0971 183.273C84.0971 178.825 80.7509 175.219 76.6107 175.219C72.4705 175.219 69.1243 178.825 69.1243 183.273C69.1243 187.721 72.4705 191.327 76.6107 191.327Z" fill="#221714"/>
<path d="M95.8031 113.519C95.8031 113.519 76.9397 88.7999 64.1107 114.11C64.1107 114.11 60.549 123.177 64.6552 134.586C64.5985 134.461 58.0763 140.081 57.6566 140.627C51.7922 148.168 57.2596 155.665 66.3453 152.821C76.8603 149.522 81.2614 140.718 79.2877 130.491C79.0155 129.069 78.3802 125.577 79.4692 121.925C80.6488 117.989 83.3371 115.464 85.0499 114.144" fill="#F2F2F2"/>
<path d="M96.3135 186.333C96.3135 196.196 88.328 204.17 78.4823 204.17C68.6366 204.17 60.6511 196.173 60.6511 186.333" stroke="#616161" stroke-width="1.34255" stroke-miterlimit="10"/>
<path d="M60.6511 186.333C60.6511 176.471 68.6366 168.497 78.4823 168.497C88.328 168.497 96.3135 176.494 96.3135 186.333" stroke="#616161" stroke-width="1.34255" stroke-miterlimit="10"/>
<path d="M121.393 204.17C131.239 204.17 139.224 196.184 139.224 186.333C139.224 176.482 131.239 168.497 121.393 168.497C111.547 168.497 103.562 176.482 103.562 186.333C103.562 196.184 111.547 204.17 121.393 204.17Z" stroke="#616161" stroke-width="1.34255" stroke-miterlimit="10"/>
<path d="M96.3135 186.333H103.55" stroke="#616161" stroke-width="1.34255" stroke-miterlimit="10"/>
<path d="M108.677 75.3315C107.203 73.9665 105.104 73.7389 103.267 74.4328C101.225 75.2064 99.3081 75.9344 97.1302 76.196C94.941 75.9344 93.0354 75.2064 90.9937 74.4328C89.1561 73.7389 87.0576 73.9665 85.5831 75.3315C83.8703 76.9127 83.5413 79.5291 84.8458 81.5198C85.7305 82.5322 87.3866 84.1589 89.9615 85.3419C92.922 86.707 95.633 86.798 97.1416 86.7297C98.6615 86.798 101.361 86.707 104.322 85.3419C106.897 84.1589 108.553 82.5322 109.437 81.5198C110.731 79.5291 110.413 76.9127 108.7 75.3315H108.677Z" fill="#221714"/>
<path d="M96.5744 85.1601C97.4592 85.1943 99.0245 85.1487 100.749 84.3525C101.384 84.0681 101.917 83.7268 102.371 83.3969C101.656 81.9067 99.2287 80.8147 96.3249 80.8147C93.6252 80.8147 91.2999 81.7702 90.4379 83.1125C90.9483 83.5448 91.6062 83.9885 92.4229 84.3525C94.147 85.1374 95.7237 85.1943 96.5858 85.1601H96.5744Z" fill="#E17766"/>
<path d="M141.209 89.6648C146.223 90.5862 153.755 92.5769 161.536 97.2977C162.284 97.7527 167.945 101.234 173.026 106.409C174.478 107.888 175.862 109.435 177.155 111.051C178.323 112.507 179.276 114.873 180.717 115.931C181.454 116.477 182.316 116.807 183.178 117.137C186.649 118.467 189.167 120.128 191.243 123.257C193.001 125.907 194.646 129.911 192.434 132.801C191.538 133.961 190.302 134.484 189.44 134.723C189.44 134.723 186.071 134.473 185.288 129.604C185.288 129.604 184.381 124.747 180.74 125.407C180.74 125.407 175.51 127.352 177.983 130.662C177.995 131.071 177.983 131.97 177.382 132.744C175.896 134.7 173.049 133.972 171.506 132.562C169.374 130.616 168.727 127.795 169.102 125.008C169.136 124.701 170.032 122.187 169.986 122.13C167.706 119.23 163.566 115.146 161.468 114.122C150.216 108.673 136.093 103.554 130.354 101.518" fill="#FF8F6B"/>
<path d="M141.209 89.6648C146.223 90.5862 153.755 92.5769 161.536 97.2977C162.284 97.7527 167.945 101.234 173.026 106.409C174.478 107.888 175.862 109.435 177.155 111.051C178.323 112.507 179.276 114.873 180.717 115.931C181.454 116.477 182.316 116.807 183.178 117.137C186.649 118.467 189.167 120.128 191.243 123.257C193.001 125.907 194.646 129.911 192.434 132.801C191.538 133.961 190.302 134.484 189.44 134.723C189.44 134.723 186.071 134.473 185.288 129.604C185.288 129.604 184.381 124.747 180.74 125.407C180.74 125.407 175.51 127.352 177.983 130.662C177.995 131.071 177.983 131.97 177.382 132.744C175.896 134.7 173.049 133.972 171.506 132.562C169.374 130.616 168.727 127.795 169.102 125.008C169.136 124.701 170.032 122.187 169.986 122.13C167.706 119.23 163.566 115.146 161.468 114.122C150.216 108.673 136.093 103.554 130.354 101.518" fill="#FF8F6B"/>
<path d="M141.209 89.6648C146.223 90.5862 153.755 92.5769 161.536 97.2977C162.284 97.7527 167.945 101.234 173.026 106.409C174.478 107.888 175.862 109.435 177.155 111.051C178.323 112.507 179.276 114.873 180.717 115.931C181.454 116.477 182.316 116.807 183.178 117.137C186.649 118.467 189.167 120.128 191.243 123.257C193.001 125.907 194.646 129.911 192.434 132.801C191.538 133.961 190.302 134.484 189.44 134.723C189.44 134.723 186.071 134.473 185.288 129.604C185.288 129.604 184.381 124.747 180.74 125.407C180.74 125.407 175.51 127.352 177.983 130.662C177.995 131.071 177.983 131.97 177.382 132.744C175.896 134.7 173.049 133.972 171.506 132.562C169.374 130.616 168.727 127.795 169.102 125.008C169.136 124.701 170.032 122.187 169.986 122.13C167.706 119.23 163.566 115.146 161.468 114.122C150.216 108.673 136.093 103.554 130.354 101.518" stroke="white" stroke-width="1.30526" stroke-miterlimit="10"/>
<path d="M184.619 224.282C189.36 222.883 212.761 215.443 221.325 194.398C224.127 187.528 224.433 181.157 224.716 177.95C225.147 173.024 225.851 157.349 215.392 143.505C211.264 138.056 206.602 134.461 202.938 132.175C203.017 131.469 204.038 120.469 195.905 114.201C190.234 109.833 183.621 110.504 182.078 110.664C180.683 110.812 177.314 111.141 176.758 112.916C176.497 113.701 176.917 114.509 176.996 114.668C177.609 115.862 179.095 116.533 180.774 116.363C184.505 117.091 188.01 118.888 190.279 122.005C191.799 124.087 194.011 128.102 192.026 130.423C191.765 130.719 191.311 131.39 190.563 131.469C187.988 131.731 187.341 124.599 182.804 123.12C180.49 122.358 177.473 123.177 176.259 124.997C175.227 126.567 175.715 128.535 175.919 129.376C177.711 136.622 190.699 142.003 192.933 142.913C202.609 154.152 206.205 167.894 201.452 177.768C198.968 182.943 194.453 186.504 193.296 187.391C185.662 193.295 177.359 193.898 174.149 193.955" fill="#F2F2F2"/>
<mask id="path-37-inside-2_1468_24339" fill="white">
<path d="M184.619 224.282C189.36 222.883 212.761 215.443 221.325 194.398C223.82 188.256 224.319 182.204 224.716 177.949C225.091 173.923 226.021 160.317 220.066 143.209C215.971 131.424 210.458 115.578 198.298 111.403C192.718 109.492 186.252 110.209 182.089 110.664C179.696 110.925 177.246 111.449 176.769 112.916C176.509 113.701 176.928 114.509 177.008 114.668C177.62 115.862 179.106 116.533 180.785 116.363C184.517 117.091 188.022 118.888 190.29 122.005C191.81 124.087 194.022 128.102 192.037 130.423C191.776 130.719 191.323 131.39 190.574 131.469C187.999 131.731 187.352 124.599 182.815 123.12C180.501 122.358 177.484 123.177 176.27 124.997C175.238 126.566 175.726 128.534 175.93 129.376C177.722 136.622 190.71 142.003 192.945 142.913C199.909 156.313 197.72 164.344 196.461 167.495C195.746 169.281 194.623 171.329 184.108 183.08C179.98 187.698 176.52 191.452 174.161 193.977"/>
</mask>
<path d="M184.619 224.282C189.36 222.883 212.761 215.443 221.325 194.398C223.82 188.256 224.319 182.204 224.716 177.949C225.091 173.923 226.021 160.317 220.066 143.209C215.971 131.424 210.458 115.578 198.298 111.403C192.718 109.492 186.252 110.209 182.089 110.664C179.696 110.925 177.246 111.449 176.769 112.916C176.509 113.701 176.928 114.509 177.008 114.668C177.62 115.862 179.106 116.533 180.785 116.363C184.517 117.091 188.022 118.888 190.29 122.005C191.81 124.087 194.022 128.102 192.037 130.423C191.776 130.719 191.323 131.39 190.574 131.469C187.999 131.731 187.352 124.599 182.815 123.12C180.501 122.358 177.484 123.177 176.27 124.997C175.238 126.566 175.726 128.534 175.93 129.376C177.722 136.622 190.71 142.003 192.945 142.913C199.909 156.313 197.72 164.344 196.461 167.495C195.746 169.281 194.623 171.329 184.108 183.08C179.98 187.698 176.52 191.452 174.161 193.977" fill="#F2F2F2"/>
<path d="M221.325 194.398L222.21 194.759L222.21 194.758L221.325 194.398ZM224.716 177.949L225.668 178.038L225.668 178.038L224.716 177.949ZM220.066 143.209L219.163 143.522L219.163 143.523L220.066 143.209ZM198.298 111.403L198.609 110.499L198.608 110.499L198.298 111.403ZM182.089 110.664L181.985 109.714L181.985 109.714L182.089 110.664ZM176.769 112.916L177.676 113.217L177.678 113.211L176.769 112.916ZM177.008 114.668L176.152 115.094L176.157 115.104L177.008 114.668ZM180.785 116.363L180.968 115.425L180.829 115.398L180.688 115.412L180.785 116.363ZM190.29 122.005L189.518 122.567L189.519 122.568L190.29 122.005ZM192.037 130.423L192.754 131.055L192.759 131.049L192.763 131.044L192.037 130.423ZM190.574 131.469L190.67 132.42L190.675 132.42L190.574 131.469ZM182.815 123.12L182.516 124.027L182.519 124.028L182.815 123.12ZM176.27 124.997L175.475 124.467L175.472 124.472L176.27 124.997ZM175.93 129.376L175.001 129.601L175.002 129.606L175.93 129.376ZM192.945 142.913L193.792 142.472L193.63 142.161L193.305 142.028L192.945 142.913ZM196.461 167.495L197.348 167.85L197.348 167.85L196.461 167.495ZM184.108 183.08L183.396 182.443L183.396 182.443L184.108 183.08ZM184.889 225.198C187.296 224.488 194.424 222.249 202.042 217.519C209.658 212.79 217.826 205.531 222.21 194.759L220.44 194.038C216.26 204.31 208.445 211.294 201.034 215.895C193.626 220.496 186.683 222.676 184.348 223.365L184.889 225.198ZM222.21 194.758C224.766 188.466 225.272 182.278 225.668 178.038L223.765 177.861C223.367 182.13 222.874 188.045 220.44 194.039L222.21 194.758ZM225.668 178.038C226.049 173.938 226.985 160.182 220.968 142.895L219.163 143.523C225.056 160.453 224.132 173.907 223.765 177.861L225.668 178.038ZM220.968 142.895C218.926 137.018 216.497 130.024 213.036 123.977C209.576 117.934 205.007 112.696 198.609 110.499L197.988 112.307C203.75 114.285 208.017 119.057 211.377 124.927C214.736 130.793 217.11 137.615 219.163 143.522L220.968 142.895ZM198.608 110.499C192.793 108.508 186.111 109.263 181.985 109.714L182.193 111.613C186.393 111.154 192.643 110.476 197.989 112.307L198.608 110.499ZM181.985 109.714C180.772 109.846 179.47 110.052 178.389 110.438C177.351 110.808 176.243 111.444 175.861 112.621L177.678 113.211C177.773 112.92 178.127 112.561 179.032 112.237C179.894 111.93 181.013 111.742 182.193 111.613L181.985 109.714ZM175.863 112.615C175.653 113.244 175.728 113.844 175.835 114.264C175.945 114.691 176.111 115.011 176.152 115.094L177.863 114.241C177.825 114.166 177.741 114.002 177.686 113.789C177.63 113.569 177.625 113.372 177.676 113.217L175.863 112.615ZM176.157 115.104C177 116.746 178.933 117.511 180.882 117.313L180.688 115.412C179.279 115.555 178.241 114.978 177.858 114.232L176.157 115.104ZM180.602 117.301C184.165 117.996 187.427 119.695 189.518 122.567L191.063 121.443C188.616 118.081 184.869 116.186 180.968 115.425L180.602 117.301ZM189.519 122.568C190.248 123.567 191.116 124.997 191.568 126.414C192.029 127.862 191.977 129.023 191.311 129.802L192.763 131.044C194.082 129.502 193.917 127.495 193.389 125.834C192.85 124.143 191.853 122.524 191.062 121.441L189.519 122.568ZM191.321 129.791C191.118 130.02 191.036 130.149 190.851 130.315C190.695 130.455 190.575 130.508 190.473 130.519L190.675 132.42C191.321 132.351 191.802 132.029 192.126 131.739C192.42 131.475 192.695 131.121 192.754 131.055L191.321 129.791ZM190.477 130.519C190.357 130.531 190.121 130.498 189.677 129.908C189.239 129.327 188.822 128.507 188.27 127.491C187.241 125.595 185.789 123.084 183.111 122.211L182.519 124.028C184.379 124.634 185.519 126.429 186.591 128.403C187.09 129.322 187.601 130.329 188.15 131.058C188.693 131.778 189.503 132.539 190.67 132.42L190.477 130.519ZM183.114 122.212C181.754 121.764 180.225 121.788 178.871 122.17C177.524 122.55 176.243 123.315 175.475 124.467L177.065 125.527C177.511 124.858 178.346 124.304 179.39 124.01C180.426 123.717 181.563 123.713 182.516 124.027L183.114 122.212ZM175.472 124.472C174.18 126.437 174.813 128.823 175.001 129.601L176.859 129.151C176.639 128.246 176.297 126.696 177.069 125.522L175.472 124.472ZM175.002 129.606C175.507 131.645 176.778 133.485 178.347 135.089C179.922 136.698 181.85 138.124 183.762 139.329C187.586 141.74 191.455 143.338 192.584 143.798L193.305 142.028C192.2 141.578 188.458 140.031 184.781 137.712C182.943 136.553 181.148 135.218 179.713 133.752C178.273 132.28 177.249 130.731 176.858 129.147L175.002 129.606ZM192.097 143.354C198.927 156.496 196.734 164.236 195.574 167.141L197.348 167.85C198.706 164.452 200.891 156.13 193.792 142.472L192.097 143.354ZM195.574 167.14C194.934 168.738 193.944 170.655 183.396 182.443L184.82 183.717C195.303 172.002 196.558 169.824 197.348 167.85L195.574 167.14ZM183.396 182.443C179.272 187.056 175.817 190.804 173.462 193.325L174.859 194.63C177.222 192.1 180.687 188.341 184.821 183.717L183.396 182.443Z" fill="#BDBDBD" mask="url(#path-37-inside-2_1468_24339)"/>
<path d="M197.55 137.317C198.196 137.191 200.102 136.691 201.554 134.95C202.416 133.904 202.779 132.823 202.938 132.175" fill="#F2F2F2"/>
<path d="M20.4401 137.043C20.4401 137.043 21.0753 142.265 26.2477 141.491L20.4401 137.043Z" fill="#F4EDD7"/>
<path d="M20.4401 137.043C20.4401 137.043 21.0753 142.265 26.2477 141.491" stroke="#888888" stroke-width="1.45443" stroke-miterlimit="10"/>
<path d="M172.357 185.571C178.516 183.308 185.265 185.844 188.124 191.134C190.529 195.582 189.837 201.315 186.298 205.41C192.23 207.549 196.177 212.713 196.109 217.844C196.019 224.828 188.51 231.688 179.095 230.527" fill="#6E92FF"/>
<path d="M172.357 185.571C178.516 183.308 185.265 185.844 188.124 191.134C190.529 195.582 189.837 201.315 186.298 205.41C192.23 207.549 196.177 212.713 196.109 217.844C196.019 224.828 188.51 231.688 179.095 230.527" stroke="#888888" stroke-width="1.9206" stroke-miterlimit="10"/>
<path d="M147.72 88.3562C146.506 89.4255 141.958 93.714 141.118 100.858C140.495 106.147 142.241 110.231 143.069 111.892C133.144 105.192 123.208 98.4917 113.283 91.7916L141.096 74.1824C143.308 78.9032 145.519 83.624 147.731 88.3448L147.72 88.3562Z" fill="#FF8F6B"/>
<path d="M122.005 123.245C120.054 121.277 118.058 119.207 116.05 117.023C114.145 114.964 112.353 112.927 110.64 110.925C106.999 105.499 100.476 102.803 94.2491 104.111C88.6003 105.306 84.0517 109.629 82.4183 115.294C82.4183 115.294 78.8566 124.348 82.9628 135.769C82.8834 135.565 75.726 142.037 75.2495 142.743C72.0622 147.441 74.2627 151.979 79.5939 153.219C85.2541 154.539 91.2999 151.752 95.0204 147.543C99.4896 142.492 98.7636 137.783 97.5839 131.663C96.7672 127.443 97.1529 125.224 97.7654 123.097C98.8544 119.309 101.463 116.772 103.346 115.316" fill="#F2F2F2"/>
<path d="M103.346 115.316C107.657 115.805 115.597 117.33 123.571 122.892C128.233 126.134 131.443 129.74 133.541 132.539L105.989 147.361C105.104 136.679 104.22 125.998 103.346 115.316Z" fill="#6E92FF"/>
<path d="M74.0018 207.037C75.4083 208.515 86.2409 219.504 102.529 218.048C110.696 217.32 116.833 213.771 120.667 210.791" stroke="#616161" stroke-width="1.34255" stroke-miterlimit="10"/>
<path d="M120.735 206.024C120.735 206.024 119.17 209.403 121.484 211.325C122.334 212.031 123.707 212.543 125.873 212.622" stroke="#616161" stroke-width="1.34255" stroke-miterlimit="10"/>
</g>
<defs>
<clipPath id="clip0_1468_24339">
<rect width="225" height="311.278" fill="white" transform="translate(0 0.0827637)"/>
</clipPath>
</defs>
</svg>
