<svg width="390" height="742" viewBox="0 0 390 742" fill="none" xmlns="http://www.w3.org/2000/svg">
<g style="mix-blend-mode:multiply">
<ellipse cx="202" cy="647.5" rx="335" ry="254.5" fill="#E0E0E0"/>
</g>
<g clip-path="url(#clip0_1468_23353)">
<path d="M218.173 312.887C234.393 318.087 250.612 323.298 266.832 328.498C270.06 318.19 278.197 311.633 286.051 312.014C289.738 312.199 294.156 313.956 296.926 317.738C300.624 322.814 300.467 330.296 296.291 336.452C292.979 342.639 289.655 348.836 286.343 355.022C283.936 359.513 278.645 361.723 273.728 360.294L185.881 334.901L218.184 312.856V312.877L218.173 312.887Z" fill="#F2F2F2"/>
<path d="M173.828 364.004C173.599 380.827 173.391 397.651 173.172 414.484C162.234 414.186 153.328 419.684 151.182 427.135C150.182 430.639 150.432 435.325 153.182 439.139C156.869 444.225 164.099 446.486 171.339 444.565C178.339 443.454 185.36 442.344 192.36 441.235C197.454 440.433 201.267 436.199 201.485 431.143L205.35 340.912L173.807 364.004H173.828Z" fill="#F2F2F2"/>
<path opacity="0.99" d="M157.765 372.884C201.512 372.884 236.976 337.898 236.976 294.739C236.976 251.581 201.512 216.594 157.765 216.594C114.018 216.594 78.554 251.581 78.554 294.739C78.554 337.898 114.018 372.884 157.765 372.884Z" fill="#FF8F6B"/>
<path opacity="0.99" d="M113.628 252.594C113.628 252.594 76.7208 230.365 113.097 187.5C114.107 188.148 131.816 199.894 131.275 221.198C130.775 240.889 115.128 251.607 113.628 252.594Z" fill="#42CA89"/>
<path opacity="0.99" d="M114.149 222.729C114.149 222.729 108.409 229.553 113.628 252.594" stroke="#006934" stroke-width="1.02656" stroke-miterlimit="10"/>
<g opacity="0.99">
<path d="M141.233 351.889C152.182 351.889 161.057 343.132 161.057 332.331C161.057 321.53 152.182 312.774 141.233 312.774C130.285 312.774 121.41 321.53 121.41 332.331C121.41 343.132 130.285 351.889 141.233 351.889Z" fill="#FF7364" stroke="#FF8F6B" stroke-width="1.36472" stroke-miterlimit="10"/>
<path d="M194.245 294.698C205.193 294.698 214.069 285.942 214.069 275.141C214.069 264.34 205.193 255.584 194.245 255.584C183.297 255.584 174.422 264.34 174.422 275.141C174.422 285.942 183.297 294.698 194.245 294.698Z" fill="#FF7364" stroke="#FF8F6B" stroke-width="1.36472" stroke-miterlimit="10"/>
</g>
<path d="M157.517 314.772C162.273 309.641 159.564 299.561 151.468 292.257C143.371 284.953 132.952 283.191 128.196 288.322C123.44 293.453 126.149 303.534 134.245 310.838C142.342 318.142 152.761 319.903 157.517 314.772Z" fill="white"/>
<path d="M154.524 302.755C156.893 300.2 155.694 295.316 151.848 291.845C148.001 288.375 142.963 287.634 140.594 290.189C138.226 292.744 139.425 297.628 143.271 301.098C147.118 304.568 152.156 305.31 154.524 302.755Z" fill="#221714"/>
<path d="M148.782 292.133C149.271 291.606 149.021 290.594 148.223 289.874C147.424 289.154 146.381 288.998 145.892 289.526C145.402 290.054 145.653 291.065 146.451 291.785C147.249 292.505 148.293 292.661 148.782 292.133Z" fill="white"/>
<path d="M176.211 294.592C180.967 289.461 178.258 279.38 170.162 272.076C162.065 264.772 151.646 263.011 146.89 268.142C142.135 273.273 144.843 283.353 152.939 290.657C161.036 297.961 171.455 299.723 176.211 294.592Z" fill="white"/>
<path d="M173.229 282.564C175.597 280.009 174.398 275.124 170.552 271.654C166.705 268.184 161.667 267.442 159.299 269.998C156.931 272.553 158.129 277.437 161.976 280.907C165.822 284.377 170.861 285.119 173.229 282.564Z" fill="#221714"/>
<path d="M163.516 272.53C164.505 272.53 165.308 271.739 165.308 270.763C165.308 269.786 164.505 268.995 163.516 268.995C162.526 268.995 161.724 269.786 161.724 270.763C161.724 271.739 162.526 272.53 163.516 272.53Z" fill="white"/>
<path d="M178.703 313.627C182.724 309.291 187.922 307.05 192.276 307.328C191.454 305.488 190.245 303.782 188.651 302.333C182.474 296.763 172.88 297.185 167.234 303.279C161.588 309.373 162.015 318.838 168.192 324.408C169.797 325.857 171.619 326.884 173.557 327.532C172.89 323.278 174.692 317.964 178.713 313.627H178.703Z" fill="#221714"/>
<path d="M189.61 323.473C193.797 318.961 194.641 312.6 192.287 307.338C187.933 307.06 182.734 309.301 178.713 313.638C174.692 317.974 172.89 323.287 173.557 327.543C179.078 329.381 185.422 327.994 189.61 323.473Z" fill="#E17766"/>
<path d="M163.578 310.421C166.567 310.842 169.713 309.856 171.901 307.492C174.088 305.128 174.818 301.953 174.12 299.055C171.557 299.805 169.172 301.203 167.234 303.289C165.296 305.375 164.099 307.852 163.578 310.431V310.421Z" fill="white"/>
<path d="M159.743 321.11L148.409 348.199C147.219 351.043 148.591 354.3 151.474 355.474L169.405 362.777C172.288 363.95 175.589 362.597 176.779 359.752L188.114 332.662C189.304 329.819 187.932 326.562 185.049 325.387L167.118 318.086C164.235 316.912 160.933 318.265 159.743 321.11Z" fill="#F7DFBC"/>
<g opacity="0.99">
<path d="M162.726 320.607C163.611 327.101 164.497 333.586 165.383 340.081L165.957 338.681C160.682 342.664 155.417 346.645 150.143 350.638C148.874 351.601 150.122 353.757 151.411 352.783C156.686 348.801 161.95 344.819 167.225 340.827C167.729 340.449 167.89 340.042 167.799 339.426C166.913 332.931 166.027 326.447 165.142 319.951C164.93 318.372 162.504 319.048 162.716 320.607H162.726Z" fill="#DAB7B7"/>
</g>
<path d="M141.066 361.939C142.264 366.152 143.785 370.602 145.702 375.195C146.233 376.47 146.473 377.467 147.639 378.093C147.806 378.176 160.254 343.286 167.14 343.03C171.151 342.886 174.005 346.925 175.067 350.737C176.62 356.275 176.109 362.216 174.567 367.766C172.078 376.728 167.515 385.401 162.421 393.18C157.911 400.056 151.89 406.058 143.15 405.193C134.41 404.33 127.222 398.257 122.753 390.971C115.388 378.978 111.565 362.154 110.982 348.24" fill="#FF8F6B"/>
<path d="M141.066 361.939C142.264 366.152 143.785 370.602 145.702 375.195C146.233 376.47 146.473 377.467 147.639 378.093C147.806 378.176 160.254 343.286 167.14 343.03C171.151 342.886 174.005 346.925 175.067 350.737C176.62 356.275 176.109 362.216 174.567 367.766C172.078 376.728 167.515 385.401 162.421 393.18C157.911 400.056 151.89 406.058 143.15 405.193C134.41 404.33 127.222 398.257 122.753 390.971C115.388 378.978 111.565 362.154 110.982 348.24" stroke="white" stroke-width="0.845403" stroke-miterlimit="10"/>
<path d="M169.255 353.081C169.255 353.081 174.13 350.089 170.391 344.211L169.255 353.081Z" fill="#FF8F6B"/>
<path d="M169.588 353.635C171.599 352.391 172.703 349.914 172.401 347.623C172.224 346.277 171.672 345.024 170.953 343.883C170.515 343.184 169.39 343.82 169.828 344.53C170.963 346.349 171.682 348.599 170.63 350.593C170.307 351.2 169.995 351.611 169.495 352.073C169.401 352.155 169.317 352.238 169.224 352.31C169.192 352.33 169.161 352.361 169.13 352.381C168.995 352.494 169.213 352.319 169.13 352.381C169.067 352.433 168.995 352.474 168.932 352.516C168.224 352.957 168.88 354.067 169.588 353.625V353.635Z" fill="white"/>
<path d="M164.557 351.703C164.557 351.703 167.797 349.493 166.88 343.554L164.557 351.703Z" fill="#FF8F6B"/>
<path d="M164.89 352.258C166.557 351.107 167.359 348.908 167.609 347.006C167.765 345.793 167.692 344.591 167.515 343.388C167.463 343.05 167.026 342.854 166.713 342.937C166.338 343.039 166.203 343.379 166.255 343.728C166.547 345.681 166.432 347.818 165.484 349.565C165.338 349.843 165.161 350.109 164.974 350.367C164.953 350.398 164.932 350.428 164.911 350.459C164.963 350.398 164.963 350.398 164.911 350.459C164.88 350.5 164.849 350.531 164.817 350.573C164.744 350.665 164.661 350.746 164.578 350.829C164.474 350.943 164.349 351.044 164.234 351.147C164.067 351.292 164.317 351.086 164.223 351.158C163.536 351.631 164.192 352.74 164.88 352.268L164.89 352.258Z" fill="white"/>
<path d="M275.192 325.383H261.296V445.001H275.192V325.383Z" fill="#6F92FF"/>
<path d="M201.509 324.414C209.788 325.509 218.066 326.613 226.345 327.709C227.895 327.916 229.455 328.125 231.005 328.323C262.082 327.69 293.147 327.067 324.223 326.434V293.454C324.088 291.613 323.333 284.428 317.389 278.81C309.207 271.068 298.354 273.107 297.282 273.324C284.256 273.221 271.059 273.221 257.688 273.324C241.81 273.447 226.173 273.721 210.783 274.137C209.338 274.335 207.309 274.835 205.462 276.251C200.83 279.801 200.648 286.581 200.59 291.774C200.495 300.016 200.638 311.044 201.519 324.414H201.509Z" fill="#FBFBFD" stroke="#6F92FF" stroke-width="1.12068" stroke-miterlimit="10"/>
<g opacity="0.99">
<path d="M205.873 275.975C212.745 272.255 222.373 273.879 226.575 280.752C228.804 284.397 229.484 288.674 229.426 292.857C229.351 298.304 229.686 303.79 229.809 309.229C229.953 315.498 230.106 321.777 230.25 328.045C230.25 328.442 231.647 328.188 231.637 327.678C231.494 321.635 231.36 315.602 231.217 309.559C231.082 303.649 230.709 297.7 230.853 291.79C230.957 287.494 229.828 282.744 227.225 279.242C224.775 275.956 220.909 274.039 216.88 273.435C212.85 272.831 208.639 273.643 205.041 275.597C204.227 276.041 205.462 276.192 205.893 275.965L205.873 275.975Z" fill="#6F92FF"/>
</g>
<path d="M230.996 327.876C228.163 331.171 225.264 334.475 222.286 337.799C215.932 344.89 209.606 351.669 203.328 358.127C202.122 359.619 195.977 366.898 187.374 366.936C185.584 366.936 182.292 366.955 179.497 364.643C179.028 364.246 176.702 362.234 176.243 359.165C175.784 356.069 177.621 353.558 181.315 348.676C188.015 339.81 191.403 335.334 193.508 332.908C195.824 330.227 198.494 327.243 201.509 324.032C211.338 325.317 221.167 326.592 231.005 327.876H230.996Z" fill="#FBFBFD" stroke="#6F92FF" stroke-width="1.10958" stroke-miterlimit="10"/>
</g>
<defs>
<clipPath id="clip0_1468_23353">
<rect width="247.191" height="258.767" fill="white" transform="translate(78.4045 187)"/>
</clipPath>
</defs>
</svg>
