<svg width="90" height="31" viewBox="0 0 90 31" fill="none" xmlns="http://www.w3.org/2000/svg">
<path d="M11.0312 1.375H15.0625V17.2812C15.0625 21.6562 12.1406 24.3125 7.78125 24.3125C3.8125 24.3125 0.765625 22.1562 0.78125 18H4.84375C4.85938 19.8438 6.10938 20.9531 7.9375 20.9688C9.90625 20.9531 11.0156 19.6875 11.0312 17.2812V1.375ZM29.9062 16.875V7.03125H33.875V24H30.0312V21H29.8438C29.0625 22.8906 27.2812 24.2188 24.75 24.2188C21.3906 24.2188 19.0781 21.9062 19.0625 17.8438V7.03125H23.0625V17.2188C23.0625 19.375 24.3438 20.75 26.2812 20.75C28.0312 20.75 29.9062 19.4688 29.9062 16.875ZM37.6875 24V7.03125H41.6875V24H37.6875ZM37.4062 2.4375C37.4062 1.25 38.4531 0.28125 39.7188 0.28125C40.9844 0.28125 42.0312 1.25 42.0312 2.4375C42.0312 3.64062 40.9844 4.60938 39.7188 4.625C38.4531 4.60938 37.4062 3.64062 37.4062 2.4375ZM53.9688 7.03125V10.0938H50.625V18.9062C50.625 20.5312 51.4375 20.8594 52.4375 20.875C52.9062 20.8906 53.6875 20.8438 54.1875 20.8125V24.0625C53.7188 24.1406 52.9531 24.2344 51.9375 24.2188C48.9375 24.2344 46.625 22.75 46.6562 19.5625V10.0938H44.2188V7.03125H46.6562V2.96875H50.625V7.03125H53.9688ZM64.25 24.3438C59.1875 24.3438 56.125 20.7188 56.125 15.5938C56.125 10.3906 59.2812 6.8125 64.25 6.8125C68.3594 6.8125 71.25 9.21875 71.5312 12.875H67.7188C67.4062 11.25 66.2188 10.0156 64.2812 10C61.8125 10.0156 60.1562 12.0781 60.1562 15.5C60.1562 19 61.7812 21.0781 64.2812 21.0938C66.0469 21.0781 67.3594 20.0469 67.7188 18.2188H71.5312C71.2344 21.7969 68.5156 24.3438 64.25 24.3438ZM76.9375 30.375C76.1406 30.3594 75.3906 30.3438 74.875 30.2812V27.0938C75.3594 27.1406 76.0312 27.1406 76.5625 27.1562C77.5312 27.1406 78.3438 27.0781 79.0312 25.25L79.375 24.3438L73.1875 7.03125H77.4062L81.3438 19.8438H81.5312L85.4688 7.03125H89.6875L82.875 26.0625C81.9062 28.7656 80.125 30.3594 76.9375 30.375Z" fill="url(#paint0_linear_1140_6542)"/>
<defs>
<linearGradient id="paint0_linear_1140_6542" x1="88" y1="7.99999" x2="-4.5061e-06" y2="27.5" gradientUnits="userSpaceOnUse">
<stop stop-color="#FF8267"/>
<stop offset="1" stop-color="#3F6EFF"/>
</linearGradient>
</defs>
</svg>
