<svg width="128" height="37" viewBox="0 0 128 37" fill="none" xmlns="http://www.w3.org/2000/svg">
<path d="M34.6002 20.882C34.019 22.2433 33.2388 23.4136 32.2676 24.4008C31.2724 25.388 30.1021 26.1682 28.7726 26.7493C27.4352 27.3225 25.9942 27.6012 24.4418 27.6012C23.8447 27.6012 23.2237 27.5534 22.5789 27.4658C22.3082 27.426 22.0933 27.2987 21.9261 27.0837C21.7669 26.8688 21.6873 26.6299 21.6873 26.3513V23.3977C21.6873 22.8802 21.7589 22.4424 21.8942 22.0921C22.0296 21.7418 22.1729 21.5905 22.3321 21.6463C22.4913 21.7338 22.7142 21.8214 23.0088 21.901C23.5024 22.0284 23.9801 22.0921 24.4498 22.0921C25.1981 22.0921 25.9305 21.9329 26.6231 21.6224C27.2839 21.3517 27.8651 20.9616 28.3746 20.4601C28.8841 19.9585 29.2742 19.3694 29.5608 18.7086C29.8474 18.0478 29.9907 17.3393 29.9907 16.5671V1.17028C29.9907 0.835918 30.1021 0.557264 30.333 0.334353C30.5639 0.111442 30.8346 0 31.161 0H34.3295C34.6639 0 34.9425 0.111442 35.1654 0.334353C35.3883 0.557264 35.4998 0.835918 35.4998 1.17028V16.5671C35.4998 18.0956 35.2052 19.5286 34.6241 20.8661L34.6002 20.882Z" fill="#616161"/>
<path d="M38.517 7.51529C38.7478 7.29237 39.0185 7.18091 39.3449 7.18091H42.2826C42.617 7.18091 42.8956 7.29237 43.1185 7.51529C43.3414 7.7382 43.4529 8.01683 43.4529 8.35119V19.1544C43.4529 19.7356 43.5484 20.2531 43.7474 20.6909C43.9544 21.1606 44.241 21.5826 44.5993 21.9567C44.9496 22.307 45.3635 22.5857 45.8412 22.7927C46.3189 22.9997 46.8204 23.1031 47.3379 23.1031H47.728C48.2455 23.1031 48.755 22.9997 49.2406 22.7927C49.7183 22.5857 50.1322 22.307 50.4825 21.9567C50.8567 21.5826 51.1433 21.1606 51.3344 20.6909C51.5254 20.2531 51.6289 19.7356 51.6289 19.1544V8.35119C51.6289 8.01683 51.7404 7.7382 51.9713 7.51529C52.2021 7.29237 52.4728 7.18091 52.7992 7.18091H55.713C56.0474 7.18091 56.334 7.29237 56.5569 7.51529C56.7877 7.7382 56.8992 8.01683 56.8992 8.35119V18.7723C56.8992 20.0142 56.6604 21.2163 56.1827 22.3707C55.6811 23.5251 55.0204 24.5123 54.2004 25.3243C53.3804 26.1363 52.3932 26.813 51.2627 27.3066C50.188 27.7763 49.0097 28.0072 47.728 28.0072H47.3777C46.096 28.0072 44.9097 27.7763 43.8191 27.3066C42.6886 26.813 41.7094 26.1523 40.8814 25.3243C40.0614 24.5043 39.4007 23.5251 38.8991 22.3707C38.4214 21.2163 38.1826 20.0222 38.1826 18.7723V8.35119C38.1826 8.01683 38.2941 7.7382 38.5249 7.51529H38.517Z" fill="#616161"/>
<path d="M66.803 4.28313C66.6199 4.6175 66.4129 4.92002 66.182 5.17478C65.9193 5.46138 65.6168 5.67632 65.2665 5.81962C64.9162 5.96292 64.5341 6.03457 64.1201 6.03457C63.7061 6.03457 63.332 5.96292 63.0135 5.81962C62.6632 5.6604 62.3527 5.45341 62.0821 5.17478C61.8114 4.89614 61.6044 4.60158 61.4611 4.28313C61.3019 3.94877 61.2302 3.57458 61.2302 3.15265C61.2302 2.73071 61.3098 2.37245 61.4611 2.02216C61.6044 1.71167 61.8114 1.40916 62.0821 1.10663C62.3527 0.820033 62.6632 0.613045 63.0135 0.485667C63.3479 0.35829 63.7221 0.286648 64.1201 0.270726C64.5341 0.254804 64.9162 0.326445 65.2665 0.485667C65.6009 0.628968 65.9114 0.835956 66.182 1.10663C66.4448 1.36935 66.6517 1.67187 66.803 2.02216C66.9702 2.41225 67.0578 2.78643 67.0578 3.15265C67.0578 3.56662 66.9702 3.94081 66.803 4.28313Z" fill="#3F6EFF"/>
<path d="M61.7955 27.2748C61.5726 27.0519 61.4531 26.7733 61.4531 26.4389V8.35925C61.4531 8.02488 61.5646 7.74623 61.7955 7.52332C62.0263 7.30041 62.305 7.18896 62.6393 7.18896H65.5929C65.9273 7.18896 66.2059 7.30041 66.4288 7.52332C66.6517 7.74623 66.7632 8.02488 66.7632 8.35925V26.4389C66.7632 26.7733 66.6517 27.0519 66.4288 27.2748C66.2059 27.4978 65.9273 27.6092 65.5929 27.6092H62.6393C62.305 27.6092 62.0184 27.4978 61.7955 27.2748Z" fill="#616161"/>
<path d="M77.0249 26.8927C75.8626 26.3753 74.8834 25.7145 74.1111 24.9104C73.2673 24.0824 72.6065 23.1112 72.1288 21.9967C71.6352 20.8662 71.3884 19.672 71.3884 18.3982V1.21814C71.3884 0.88377 71.4999 0.605116 71.7228 0.382205C71.9457 0.159294 72.2243 0.0478516 72.5587 0.0478516H75.4565C75.7909 0.0478516 76.0696 0.159294 76.2925 0.382205C76.5154 0.605116 76.6268 0.88377 76.6268 1.21814V5.88334C76.6268 6.21771 76.7383 6.49636 76.9612 6.71927C77.1841 6.94218 77.4627 7.05362 77.7971 7.05362H83.4336C83.768 7.05362 84.0546 7.16507 84.2775 7.39595C84.5004 7.62682 84.6198 7.90545 84.6198 8.23982V11.1377C84.6198 11.4641 84.5083 11.7348 84.2775 11.9656C84.0466 12.1965 83.768 12.308 83.4336 12.308H77.7971C77.4627 12.308 77.1841 12.4194 76.9612 12.6423C76.7383 12.8653 76.6268 13.1439 76.6268 13.4782V18.4142C76.6268 18.9555 76.7303 19.473 76.9373 19.9666C77.1602 20.4681 77.4389 20.89 77.7892 21.2324C78.1156 21.5588 78.5375 21.8454 79.055 22.0842C79.5327 22.2912 80.0501 22.3947 80.6074 22.3947H83.4256C83.76 22.3947 84.0466 22.5061 84.2695 22.7291C84.4924 22.952 84.6118 23.2306 84.6118 23.5809V26.4549C84.6118 26.7892 84.5004 27.0679 84.2695 27.2908C84.0386 27.5137 83.76 27.6251 83.4256 27.6251H80.6074C79.3495 27.6251 78.1554 27.3863 77.0329 26.9086L77.0249 26.8927Z" fill="#616161"/>
<path d="M103.4 14.2425C103.193 14.3699 103.002 14.4256 102.835 14.4256C102.668 14.4256 102.548 14.3539 102.485 14.2106C102.381 14.0434 102.222 13.8126 102.015 13.5101C101.689 13.0961 101.322 12.7299 100.908 12.4194C100.471 12.1328 100.009 11.9178 99.5311 11.7586C99.0774 11.5994 98.5758 11.5277 98.0344 11.5277C97.3498 11.5277 96.6731 11.679 96.0123 11.9736C95.4152 12.2442 94.8659 12.6503 94.3564 13.1996C93.9026 13.717 93.5285 14.3539 93.2259 15.1023C92.9632 15.8427 92.8358 16.6547 92.8358 17.5304C92.8358 18.2151 92.9632 18.8918 93.2259 19.5526C93.5125 20.1894 93.8867 20.7387 94.3564 21.2085C94.8261 21.702 95.3754 22.0762 96.0123 22.3389C96.6572 22.6017 97.3339 22.729 98.0344 22.729C98.536 22.729 99.0296 22.6574 99.5152 22.5141C99.9849 22.3867 100.439 22.1797 100.877 21.909C101.314 21.6145 101.689 21.2881 101.983 20.9378C102.437 20.7069 102.859 20.5875 103.249 20.5875C103.536 20.5875 103.751 20.6671 103.91 20.8184L105.932 22.8564C106.163 23.0873 106.282 23.358 106.282 23.6764C106.282 23.9073 106.195 24.1302 106.011 24.3372C105.709 24.7113 105.359 25.0776 104.945 25.4279C104.364 25.9294 103.671 26.3991 102.883 26.829C102.158 27.2191 101.386 27.5137 100.566 27.7206C99.762 27.9037 98.9181 27.9913 98.0424 27.9913C96.5776 27.9913 95.2162 27.7207 93.9584 27.1713C92.7164 26.638 91.6019 25.9055 90.6147 24.9581C89.6673 24.0267 88.911 22.9121 88.3378 21.6145C87.7965 20.3725 87.5178 19.0112 87.5178 17.5304C87.5178 15.9223 87.7885 14.4495 88.3378 13.0961C88.911 11.7108 89.6673 10.5087 90.6147 9.49766C91.5461 8.4866 92.6607 7.68253 93.9584 7.08544C95.2401 6.50428 96.6015 6.20972 98.0424 6.20972C98.8704 6.20972 99.7142 6.32118 100.566 6.54409C101.346 6.7272 102.142 7.03767 102.954 7.47553C103.639 7.86563 104.332 8.38311 105.032 9.02796C105.462 9.44194 105.844 9.8798 106.179 10.3495C106.306 10.5326 106.37 10.7316 106.37 10.9545C106.37 11.2411 106.25 11.4959 106.019 11.7347L104.037 13.717C103.814 13.94 103.599 14.1072 103.392 14.2345L103.4 14.2425Z" fill="#616161"/>
<path d="M109.626 7.31631C109.857 7.0934 110.127 6.98193 110.454 6.98193H113.391C113.726 6.98193 114.004 7.0934 114.227 7.31631C114.45 7.53922 114.562 7.81785 114.562 8.15222V19.1545C114.562 19.7356 114.657 20.2531 114.856 20.691C115.063 21.1607 115.35 21.5826 115.708 21.9568C116.058 22.3071 116.472 22.5857 116.95 22.7927C117.428 22.9997 117.929 23.1032 118.447 23.1032H118.837C119.354 23.1032 119.864 22.9997 120.349 22.7927C120.827 22.5857 121.241 22.3071 121.591 21.9568C121.965 21.5826 122.252 21.1607 122.443 20.691C122.602 20.3009 122.69 19.9267 122.714 19.5605V9.60909C122.714 9.5056 122.714 9.43396 122.73 9.39415V8.15222C122.73 7.81785 122.841 7.53922 123.072 7.31631C123.303 7.0934 123.574 6.98193 123.9 6.98193H126.814C127.148 6.98193 127.435 7.0934 127.658 7.31631C127.889 7.53922 128 7.81785 128 8.15222L127.96 26.3991C127.936 27.434 127.801 28.3655 127.57 29.2014C127.339 30.0532 126.989 30.8971 126.519 31.7251C126.042 32.5053 125.484 33.2058 124.847 33.8427C124.171 34.5194 123.47 35.0528 122.73 35.4588C121.95 35.9285 121.114 36.2789 120.222 36.5256C119.338 36.7724 118.415 36.8918 117.444 36.8918H116.027C115.692 36.8918 115.406 36.7804 115.183 36.5575C114.96 36.3346 114.84 36.0559 114.84 35.7216V32.7839C114.84 32.4495 114.952 32.1629 115.183 31.94C115.414 31.7171 115.692 31.5977 116.027 31.5977L117.754 31.6136C118.494 31.6136 119.147 31.4783 119.72 31.2076C120.318 30.921 120.843 30.5309 121.297 30.0453C121.751 29.5676 122.093 29.0103 122.324 28.3734C122.507 27.9356 122.618 27.5216 122.674 27.1474L122.364 27.2828C121.289 27.7525 120.111 27.9834 118.829 27.9834H118.479C117.197 27.9834 116.011 27.7525 114.92 27.2828C113.789 26.7892 112.81 26.1284 111.982 25.3005C111.162 24.4805 110.501 23.5012 110 22.3469C109.522 21.1925 109.283 19.9984 109.283 18.7485V8.1363C109.283 7.80194 109.395 7.52328 109.626 7.30037V7.31631Z" fill="#616161"/>
<path d="M19.6015 17.443C20.2622 16.3921 20.7877 15.2457 21.13 14.0117C22.5073 9.08377 19.6572 3.34382 14.9283 1.38538C9.81724 -0.740236 3.17768 1.56052 0.829149 7.19699C-1.39996 12.5548 1.02022 18.669 6.23475 21.0971L3.52798 27.6093C6.09942 27.2192 8.08173 26.5107 9.37143 25.9613C11.2503 25.1652 16.2498 22.7928 19.5935 17.443H19.6015Z" fill="#3F6EFF"/>
</svg>
