<svg width="187" height="117" viewBox="0 0 187 117" fill="none" xmlns="http://www.w3.org/2000/svg">
<g clip-path="url(#clip0_1468_32941)">
<path opacity="0.99" d="M168.199 54.4405C167.701 31.6377 149.346 13.2871 126.754 13.2871C122.568 13.2871 118.537 13.9157 114.729 15.0855C107.112 5.86659 95.7043 0 82.9415 0C63.2654 0 46.7972 13.9157 42.56 32.598C42.1998 32.598 41.8396 32.5805 41.4793 32.5805C18.561 32.563 0 51.4199 0 74.6768C0 97.9336 18.561 116.79 41.4622 116.79H151.096C152.28 116.93 153.48 117 154.715 117C172.539 117 186.983 102.316 186.983 84.2274C186.983 71.0101 179.263 59.6262 168.182 54.4405H168.199Z" fill="#3F6EFF" fill-opacity="0.4"/>
<path opacity="0.99" d="M54.7081 83.3058C61.1858 83.3058 66.4163 77.9821 66.4163 71.4095C66.4163 64.8368 61.1657 59.5132 54.7081 59.5132C48.2506 59.5132 43 64.8368 43 71.4095C43 77.9821 48.2506 83.3058 54.7081 83.3058Z" fill="#EC7B69"/>
<path opacity="0.99" d="M124.253 87.2779C130.731 87.2779 135.961 81.9543 135.961 75.3816C135.961 68.809 130.71 63.4854 124.253 63.4854C117.795 63.4854 112.545 68.809 112.545 75.3816C112.545 81.9543 117.795 87.2779 124.253 87.2779Z" fill="#EC7B69"/>
<path opacity="0.99" d="M105.966 74.2761C114.235 74.2761 120.954 66.5977 120.954 57.138C120.954 47.6783 114.235 40 105.966 40C97.6983 40 90.9792 47.6783 90.9792 57.138C90.9792 66.5977 97.6983 74.2761 105.966 74.2761Z" fill="white"/>
<path opacity="0.99" d="M113.51 65.2873C117.634 65.2873 120.974 61.6427 120.974 57.138C120.974 52.6334 117.634 48.9888 113.51 48.9888C109.386 48.9888 106.047 52.6334 106.047 57.138C106.047 61.6427 109.386 65.2873 113.51 65.2873Z" fill="#221714"/>
<path opacity="0.99" d="M70.9828 74.2761C79.2509 74.2761 85.97 66.5977 85.97 57.138C85.97 47.6783 79.2509 40 70.9828 40C62.7147 40 55.9956 47.6783 55.9956 57.138C55.9956 66.5977 62.7147 74.2761 70.9828 74.2761Z" fill="white"/>
<path opacity="0.99" d="M78.5268 65.2873C82.6508 65.2873 85.9902 61.6427 85.9902 57.138C85.9902 52.6334 82.6508 48.9888 78.5268 48.9888C74.4028 48.9888 71.0634 52.6334 71.0634 57.138C71.0634 61.6427 74.4028 65.2873 78.5268 65.2873Z" fill="#221714"/>
<g opacity="0.99">
<mask id="path-8-inside-1_1468_32941" fill="white">
<path d="M61.8497 82.5483C68.3475 88.9367 76.9576 92.8271 86.0505 92.8885C95.1233 92.9499 103.754 89.121 110.09 82.5483C110.553 82.0569 109.829 81.3198 109.346 81.8112C103.19 88.1791 94.8618 91.9057 86.0304 91.8442C77.2192 91.7828 68.8706 87.9948 62.5739 81.8112C62.0911 81.3403 61.3669 82.0774 61.8296 82.5483H61.8497Z"/>
</mask>
<path d="M61.8497 82.5483C68.3475 88.9367 76.9576 92.8271 86.0505 92.8885C95.1233 92.9499 103.754 89.121 110.09 82.5483C110.553 82.0569 109.829 81.3198 109.346 81.8112C103.19 88.1791 94.8618 91.9057 86.0304 91.8442C77.2192 91.7828 68.8706 87.9948 62.5739 81.8112C62.0911 81.3403 61.3669 82.0774 61.8296 82.5483H61.8497Z" fill="#616161"/>
<path d="M61.8497 82.5483L62.9021 81.478L62.464 81.0473H61.8497V82.5483ZM86.0505 92.8885L86.0607 91.3875H86.0607L86.0505 92.8885ZM110.09 82.5483L111.171 83.5902L111.177 83.5838L111.183 83.5773L110.09 82.5483ZM109.346 81.8112L108.275 80.7592L108.267 80.7679L109.346 81.8112ZM86.0304 91.8442L86.02 93.3453L86.02 93.3453L86.0304 91.8442ZM62.5739 81.8112L63.6257 80.7402L63.6221 80.7367L62.5739 81.8112ZM61.8296 82.5483L60.7589 83.6003L61.2001 84.0494H61.8296V82.5483ZM60.7974 83.6187C67.546 90.2537 76.5206 94.3252 86.0404 94.3895L86.0607 91.3875C77.3947 91.3289 69.149 87.6197 62.9021 81.478L60.7974 83.6187ZM86.0404 94.3895C95.5475 94.4539 104.565 90.4417 111.171 83.5902L109.01 81.5065C102.942 87.8003 94.6992 91.446 86.0607 91.3875L86.0404 94.3895ZM111.183 83.5773C112.09 82.6139 111.759 81.3772 111.136 80.7519C110.823 80.4377 110.368 80.1843 109.821 80.1516C109.234 80.1166 108.682 80.3452 108.275 80.7592L110.417 82.8632C110.251 83.0315 109.971 83.1681 109.642 83.1484C109.351 83.131 109.139 83.0005 109.009 82.8706C108.88 82.7404 108.762 82.5399 108.741 82.2757C108.717 81.9762 108.828 81.6995 108.998 81.5193L111.183 83.5773ZM108.267 80.7679C102.377 86.8605 94.435 90.4016 86.0409 90.3432L86.02 93.3453C95.2887 93.4097 104.003 89.4978 110.425 82.8545L108.267 80.7679ZM86.0409 90.3432C77.658 90.2848 69.673 86.679 63.6257 80.7402L61.5222 82.8822C68.0681 89.3107 76.7804 93.2809 86.02 93.3453L86.0409 90.3432ZM63.6221 80.7367C63.2014 80.3264 62.6439 80.1195 62.0697 80.1652C61.5354 80.2077 61.0911 80.4586 60.7837 80.7672C60.4767 81.0755 60.2295 81.518 60.1867 82.047C60.1405 82.6158 60.3425 83.1765 60.7589 83.6003L62.9003 81.4963C63.0854 81.6847 63.2043 81.9766 63.179 82.2895C63.1568 82.5626 63.0342 82.762 62.9107 82.8859C62.7868 83.0102 62.5853 83.1358 62.308 83.1578C61.991 83.1831 61.7051 83.0606 61.5258 82.8858L63.6221 80.7367ZM61.8296 84.0494H61.8497V81.0473H61.8296V84.0494Z" fill="#616161" mask="url(#path-8-inside-1_1468_32941)"/>
</g>
<path opacity="0.99" d="M83.0934 60.2505C83.0934 70.2221 75.127 78.2895 65.33 78.2895C55.533 78.2895 47.5667 70.2016 47.5667 60.2505" stroke="#616161" stroke-width="1.50106" stroke-miterlimit="10"/>
<path opacity="0.99" d="M47.5465 60.2504C47.5465 50.2788 55.5129 42.2114 65.3099 42.2114C75.1069 42.2114 83.0732 50.2993 83.0732 60.2504" stroke="#616161" stroke-width="1.50106" stroke-miterlimit="10"/>
<path opacity="0.99" d="M108.079 78.2893C117.896 78.2893 125.842 70.222 125.842 60.2504C125.842 50.2788 117.896 42.2114 108.079 42.2114C98.2617 42.2114 90.3154 50.2788 90.3154 60.2504C90.3154 70.222 98.2617 78.2893 108.079 78.2893Z" stroke="#616161" stroke-width="1.50106" stroke-miterlimit="10"/>
<path opacity="0.99" d="M83.0934 60.2505H90.2953" stroke="#616161" stroke-width="1.50106" stroke-miterlimit="10"/>
</g>
<defs>
<clipPath id="clip0_1468_32941">
<rect width="187" height="117" fill="white"/>
</clipPath>
</defs>
</svg>
