<svg width="162" height="100" viewBox="0 0 162 100" fill="none" xmlns="http://www.w3.org/2000/svg">
<path d="M29.5 78C45.7924 78 59 66.3594 59 52C59 37.6406 45.7924 26 29.5 26C13.2076 26 0 37.6406 0 52C0 66.3594 13.2076 78 29.5 78Z" fill="#FF8267" fill-opacity="0.5"/>
<path d="M132.5 78C148.792 78 162 66.3594 162 52C162 37.6406 148.792 26 132.5 26C116.208 26 103 37.6406 103 52C103 66.3594 116.208 78 132.5 78Z" fill="#FF8267" fill-opacity="0.5"/>
<path d="M100.99 64.7762C112.305 64.7762 121.478 50.4994 121.478 32.8881C121.478 15.2768 112.305 1 100.99 1C89.6747 1 80.502 15.2768 80.502 32.8881C80.502 50.4994 89.6747 64.7762 100.99 64.7762Z" fill="white" stroke="#231815" stroke-width="1.79247" stroke-miterlimit="10"/>
<path d="M112.193 48.0525C117.826 48.0525 122.392 41.2632 122.392 32.8881C122.392 24.5131 117.826 17.7238 112.193 17.7238C106.56 17.7238 101.994 24.5131 101.994 32.8881C101.994 41.2632 106.56 48.0525 112.193 48.0525Z" fill="#231815"/>
<path d="M115.867 26.4352C117.451 26.4352 118.735 25.1512 118.735 23.5672C118.735 21.9833 117.451 20.6993 115.867 20.6993C114.284 20.6993 113 21.9833 113 23.5672C113 25.1512 114.284 26.4352 115.867 26.4352Z" fill="white"/>
<path d="M57.6291 64.7762C68.9443 64.7762 78.1171 50.4994 78.1171 32.8881C78.1171 15.2768 68.9443 1 57.6291 1C46.3139 1 37.1411 15.2768 37.1411 32.8881C37.1411 50.4994 46.3139 64.7762 57.6291 64.7762Z" fill="white" stroke="#231815" stroke-width="1.79247" stroke-miterlimit="10"/>
<path d="M68.8325 48.0525C74.4653 48.0525 79.0316 41.2632 79.0316 32.8881C79.0316 24.5131 74.4653 17.7238 68.8325 17.7238C63.1996 17.7238 58.6333 24.5131 58.6333 32.8881C58.6333 41.2632 63.1996 48.0525 68.8325 48.0525Z" fill="#231815"/>
<path d="M72.4891 26.4352C74.073 26.4352 75.357 25.1512 75.357 23.5672C75.357 21.9833 74.073 20.6993 72.4891 20.6993C70.9051 20.6993 69.6211 21.9833 69.6211 23.5672C69.6211 25.1512 70.9051 26.4352 72.4891 26.4352Z" fill="white"/>
<path d="M19.8984 71.731C23.2862 75.2621 49.2771 101.576 88.3889 98.0983C107.981 96.3596 122.733 87.8453 131.928 80.7292" stroke="#221714" stroke-width="1.79247" stroke-miterlimit="10"/>
<path d="M132.071 69.2932C132.071 69.2932 128.325 77.3773 133.882 81.9839C135.925 83.6689 139.223 84.8877 144.422 85.0849" stroke="#221714" stroke-width="1.79247" stroke-miterlimit="10"/>
</svg>
