<svg width="25" height="25" viewBox="0 0 25 25" fill="none" xmlns="http://www.w3.org/2000/svg">
<mask id="path-1-inside-1_1568_13687" fill="white">
<path fill-rule="evenodd" clip-rule="evenodd" d="M25 20V25H21H12.5C5.59644 25 0 19.4036 0 12.5C0 5.59644 5.59644 0 12.5 0C19.4036 0 25 5.59644 25 12.5V20Z"/>
</mask>
<path d="M25 25V26.5H26.5V25H25ZM23.5 20V25H26.5V20H23.5ZM25 23.5H21V26.5H25V23.5ZM12.5 26.5H21V23.5H12.5V26.5ZM-1.5 12.5C-1.5 20.232 4.76801 26.5 12.5 26.5V23.5C6.42487 23.5 1.5 18.5751 1.5 12.5H-1.5ZM12.5 -1.5C4.76801 -1.5 -1.5 4.76801 -1.5 12.5H1.5C1.5 6.42487 6.42487 1.5 12.5 1.5V-1.5ZM26.5 12.5C26.5 4.76801 20.232 -1.5 12.5 -1.5V1.5C18.5751 1.5 23.5 6.42487 23.5 12.5H26.5ZM23.5 12.5V20H26.5V12.5H23.5Z" fill="#616161" mask="url(#path-1-inside-1_1568_13687)"/>
<path d="M9 9.5L9.16538 8.50771C9.37124 7.27254 10.243 6.25233 11.431 5.85635V5.85635C12.1249 5.62504 12.8845 5.62818 13.5785 5.85949V5.85949C13.8558 5.95193 14.1232 6.08216 14.3665 6.24432V6.24432C15.0923 6.72817 15.5961 7.48053 15.7672 8.33587L15.7911 8.45546C15.9274 9.13708 15.8625 9.84364 15.6044 10.489L15.47 10.8249C15.1619 11.5952 14.6595 12.2724 14.0118 12.7906L12.5 14V17" stroke="#616161" stroke-width="1.5"/>
<path d="M12.5 19.5V20" stroke="#616161" stroke-width="2" stroke-linecap="round"/>
</svg>
