<svg width="23" height="24" viewBox="0 0 23 24" fill="none" xmlns="http://www.w3.org/2000/svg">
<path d="M1.5 8.75C1.5 5.21447 1.5 3.4467 2.59835 2.34835C3.6967 1.25 5.46447 1.25 9 1.25H14C17.5355 1.25 19.3033 1.25 20.4017 2.34835C21.5 3.4467 21.5 5.21447 21.5 8.75V17.2845C21.5 20.6386 21.5 22.3157 20.4446 22.8286C19.3893 23.3416 18.0706 22.3054 15.4332 20.2332L14.5891 19.57C13.1061 18.4048 12.3647 17.8222 11.5 17.8222C10.6353 17.8222 9.89386 18.4048 8.41089 19.57L7.56683 20.2332C4.92943 22.3054 3.61073 23.3416 2.55537 22.8286C1.5 22.3157 1.5 20.6386 1.5 17.2845V8.75Z" stroke="#616161" stroke-width="1.5"/>
</svg>
