<svg width="31" height="31" viewBox="0 0 31 31" fill="none" xmlns="http://www.w3.org/2000/svg">
<path d="M5.5 11.75C5.5 8.21447 5.5 6.4467 6.59835 5.34835C7.6967 4.25 9.46447 4.25 13 4.25H18C21.5355 4.25 23.3033 4.25 24.4017 5.34835C25.5 6.4467 25.5 8.21447 25.5 11.75V20.2845C25.5 23.6386 25.5 25.3157 24.4446 25.8286C23.3893 26.3416 22.0706 25.3054 19.4332 23.2332L18.5891 22.57C17.1061 21.4048 16.3647 20.8222 15.5 20.8222C14.6353 20.8222 13.8939 21.4048 12.4109 22.57L11.5668 23.2332C8.92943 25.3054 7.61073 26.3416 6.55537 25.8286C5.5 25.3157 5.5 23.6386 5.5 20.2845V11.75Z" stroke="#616161" stroke-width="1.5"/>
</svg>
